<svg width="32" height="10" viewBox="0 0 32 10" fill="none" xmlns="http://www.w3.org/2000/svg">
<path fill-rule="evenodd" clip-rule="evenodd" d="M7.87533 9.90422H5.1492L3.10494 2.16055C3.00791 1.80434 2.80189 1.48943 2.49884 1.34101C1.74254 0.968028 0.909152 0.671187 0 0.521477V0.223346H4.39157C4.99768 0.223346 5.45225 0.671187 5.52801 1.1913L6.58869 6.77707L9.31349 0.223346H11.9639L7.87533 9.90422ZM13.4791 9.90422H10.9045L13.0245 0.223346H15.5991L13.4791 9.90422ZM18.9301 2.90516C19.0058 2.38376 19.4604 2.08563 19.9907 2.08563C20.8241 2.01077 21.7319 2.16048 22.4896 2.53218L22.9442 0.447842C22.1865 0.149711 21.3531 0 20.5968 0C18.098 0 16.2797 1.34094 16.2797 3.202C16.2797 4.6178 17.5677 5.3612 18.4768 5.80904C19.4604 6.25559 19.8392 6.55372 19.7635 7.00027C19.7635 7.6701 19.0058 7.96823 18.2495 7.96823C17.3404 7.96823 16.4312 7.74495 15.5992 7.37197L15.1446 9.45759C16.0537 9.82929 17.0373 9.979 17.9465 9.979C20.7484 10.0526 22.4896 8.71291 22.4896 6.70214C22.4896 4.16996 18.9301 4.02154 18.9301 2.90516ZM31.5 9.90422L29.4557 0.223346H27.26C26.8054 0.223346 26.3508 0.521477 26.1993 0.968028L22.4138 9.90422H25.0642L25.5932 8.48971H28.8496L29.1527 9.90422H31.5ZM27.6388 2.83008L28.3951 6.47863H26.275L27.6388 2.83008Z" fill="#1332C1"/>
</svg>
