<svg width="16" height="12" viewBox="0 0 16 12" fill="none" xmlns="http://www.w3.org/2000/svg">
<path d="M15.8591 1.17878L11.0066 6L15.8591 10.8212C15.9468 10.6379 16 10.4352 16 10.2188V1.78125C16 1.56478 15.9468 1.36213 15.8591 1.17878Z" fill="#E72E2C"/>
<path d="M14.5938 0.375H1.40625C1.18978 0.375 0.987125 0.428219 0.803781 0.515938L7.00575 6.68666C7.55413 7.23503 8.44588 7.23503 8.99425 6.68666L15.1962 0.515938C15.0129 0.428219 14.8102 0.375 14.5938 0.375Z" fill="#E72E2C"/>
<path d="M0.140938 1.17878C0.0532188 1.36213 0 1.56478 0 1.78125V10.2188C0 10.4352 0.0532188 10.6379 0.140938 10.8212L4.99341 6L0.140938 1.17878Z" fill="#E72E2C"/>
<path d="M10.3438 6.66284L9.65709 7.3495C8.74338 8.26322 7.25659 8.26322 6.34288 7.3495L5.65625 6.66284L0.803781 11.4841C0.987125 11.5718 1.18978 11.625 1.40625 11.625H14.5938C14.8102 11.625 15.0129 11.5718 15.1962 11.4841L10.3438 6.66284Z" fill="#E72E2C"/>
</svg>
