<svg width="51" height="12" viewBox="0 0 51 12" fill="none" xmlns="http://www.w3.org/2000/svg">
<path d="M48.004 11.186V8.55618C48.004 7.65332 48.1703 7.08116 48.7056 6.59823C49.3865 5.97358 50.3377 5.98408 50.3377 5.98408V4.03663C48.3054 4.03663 47.9104 5.1757 47.9104 5.1757L47.3283 4.2151H46.1121V11.186H48.004ZM10.0675 11.3698C11.8763 11.3698 12.3492 10.2307 12.3492 10.2307L12.9313 11.1913H14.1476V4.22035H12.2557V7.67957C12.2557 8.58243 11.9802 9.17034 11.5436 9.44855C11.3305 9.59027 10.9875 9.65326 10.6652 9.65326C9.57377 9.65326 9.2983 9.02861 9.2983 7.99452V4.22035H7.39602V8.55618C7.40122 10.5036 8.36276 11.3698 10.0675 11.3698ZM34.5009 4.03663C34.5113 4.03663 34.5113 4.03663 34.5009 4.03663C32.6922 4.03663 32.2192 5.1757 32.2192 5.1757L31.6475 4.2151H30.4313V11.186H32.3232V7.73731C32.3232 6.83445 32.5986 6.24654 33.0352 5.96833C33.2483 5.8266 33.5914 5.76361 33.9136 5.76361C35.0051 5.76361 35.2805 6.38827 35.2805 7.42236V11.186H37.1724V6.8502C37.1672 4.90275 36.2109 4.03663 34.5009 4.03663ZM24.0176 4.03663C22.2712 4.03663 21.7671 5.08122 21.7567 5.09172L21.7203 5.1757L21.6735 5.10221C21.2006 4.38308 20.5301 4.04188 19.4126 4.04188C17.6663 4.04188 17.1621 5.08647 17.1517 5.09697L17.1153 5.18095L16.5332 4.22035H15.317V5.18095V6.62448V11.1913H17.2089V7.74256C17.2089 6.39352 17.6715 5.76886 18.6486 5.76886C19.5166 5.76886 19.922 6.28853 19.922 7.40661V11.1913H21.8139V7.69532C21.8139 6.38302 22.266 5.76361 23.2276 5.76361C23.7889 5.76361 24.5269 5.93159 24.5269 7.42236V11.186H26.4188V6.8502C26.4292 4.90275 25.6808 4.03663 24.0176 4.03663ZM1.96465 9.19658V1.41728H0V11.186H6.74634V9.20183H1.96465V9.19658ZM26.9646 1.41728L28.3679 2.83456L29.7712 1.41728L28.3679 0L26.9646 1.41728ZM27.3856 4.20985H29.3502V11.1808H27.3856V4.20985ZM41.5903 4.03663C40.4728 4.03663 39.5217 4.40932 38.8304 5.11796C38.1859 5.77936 37.8325 6.70322 37.8325 7.70056C37.8325 8.69791 38.1807 9.62177 38.8304 10.2832C39.5113 10.9918 40.4728 11.375 41.5903 11.375C43.8044 11.375 45.3533 9.86323 45.3533 7.70056C45.3533 5.5379 43.8044 4.03663 41.5903 4.03663ZM41.5799 9.74775C40.4988 9.74775 39.7244 8.89213 39.7244 7.70581C39.7244 6.54049 40.5196 5.66388 41.5799 5.66388C42.661 5.66388 43.4614 6.54049 43.4614 7.70581C43.4614 8.88163 42.6714 9.74775 41.5799 9.74775Z" fill="#481335"/>
</svg>
