<svg width="57" height="15" viewBox="0 0 57 15" fill="none" xmlns="http://www.w3.org/2000/svg">
<g clip-path="url(#clip0_375_8280)">
<path d="M43.5617 8.32257C43.5617 4.92533 46.4497 2.17188 50.0104 2.17188C53.5743 2.17188 56.4607 4.92533 56.4607 8.32257C56.4607 11.7198 53.5743 14.474 50.0104 14.474C46.4497 14.474 43.5617 11.7198 43.5617 8.32257Z" fill="#0000CC"/>
<path d="M3.48856 2.01896C3.47834 2.42066 3.33296 2.75416 3.05555 3.02021C2.77579 3.28477 2.42687 3.42342 2.00487 3.43316C1.59229 3.42342 1.24809 3.28477 0.971466 3.02021C0.693273 2.75416 0.549462 2.42066 0.539246 2.01896C0.551033 1.6165 0.698774 1.283 0.982468 1.01695C1.26616 0.751645 1.61822 0.614496 2.04101 0.604004C2.45359 0.614496 2.79465 0.751645 3.06656 1.01695C3.33768 1.283 3.47913 1.6165 3.48856 2.01896ZM3.20251 13.1482H0.808794V4.57531L3.20251 4.21708V13.1482Z" fill="#0000CC"/>
<path d="M10.9683 12.9608C10.2847 13.2283 9.63475 13.358 9.021 13.3527C8.40332 13.3475 7.87679 13.2291 7.43907 13.0005C7.00135 12.7726 6.70508 12.4631 6.5542 12.0749C6.48504 11.9048 6.44025 11.7339 6.4206 11.5615C6.40096 11.3877 6.39074 11.1104 6.3931 10.7274V5.98942H5.48151V4.42083H6.3931C6.39074 4.00339 6.39546 3.63391 6.40489 3.3139C6.41353 2.99389 6.43946 2.67537 6.48347 2.35911L8.91334 1.77979C8.86854 2.18523 8.83318 2.61467 8.80803 3.06883C8.7821 3.52299 8.7711 3.97416 8.76952 4.42083H10.9149L10.3074 5.98942H8.76952V10.3699C8.76245 10.9133 8.83239 11.285 8.98092 11.4836C9.12866 11.6837 9.40371 11.7789 9.80607 11.7669C9.9098 11.7669 10.0261 11.7549 10.1558 11.7272C10.2854 11.6994 10.4552 11.656 10.6642 11.5975L10.9683 12.9608Z" fill="#0000CC"/>
<path d="M19.9908 9.48794H14.7004V9.55539C14.7043 10.2321 14.8717 10.753 15.2041 11.118C15.5357 11.4807 16.0112 11.6658 16.6304 11.6696C17.4501 11.6696 18.2249 11.3795 18.955 10.801L19.8847 12.1642C18.8505 12.9759 17.7008 13.3798 16.4348 13.3738C15.1051 13.3573 14.056 12.9474 13.2866 12.144C12.5181 11.3413 12.1251 10.2456 12.1094 8.85765C12.1071 8.08048 12.1974 7.41497 12.3798 6.85888C12.5621 6.30354 12.8536 5.81641 13.2528 5.39747C13.9805 4.60455 14.9393 4.21259 16.1314 4.22159C16.6658 4.22309 17.1648 4.30328 17.6277 4.46366C18.0906 4.62329 18.4733 4.84887 18.7758 5.14116C19.1939 5.54361 19.502 6.05548 19.6984 6.67302C19.8957 7.29132 19.9931 8.0535 19.9908 8.96033C19.9908 9.15219 19.9908 9.32831 19.9908 9.48794ZM17.5075 7.81667V7.71475C17.509 7.39774 17.487 7.13768 17.4446 6.93758C17.4014 6.73748 17.3275 6.55836 17.2206 6.40247C16.9951 6.06147 16.6422 5.89135 16.1668 5.89135C15.7079 5.89435 15.3558 6.05923 15.1098 6.38224C14.8638 6.709 14.7389 7.1744 14.7373 7.78445V7.81667H17.5075Z" fill="#0000CC"/>
<path d="M26.1629 13.1138C25.7393 13.2705 25.2623 13.3506 24.7318 13.3529C24.2171 13.3491 23.7699 13.242 23.3943 13.0299C23.0194 12.8208 22.7562 12.53 22.6061 12.1598C22.5471 12.0189 22.5023 11.8757 22.4709 11.7303C22.4395 11.5865 22.419 11.3953 22.4073 11.1623C22.397 10.9284 22.3908 10.6069 22.3915 10.1992V3.68955C22.3915 3.12822 22.3821 2.64708 22.3625 2.24163C22.342 1.83768 22.3114 1.44497 22.2658 1.06425L24.7153 0.535889C24.7601 0.762221 24.7908 1.04626 24.8112 1.38801C24.8308 1.729 24.8403 2.20041 24.8403 2.80221V9.60342C24.8395 10.0951 24.8426 10.4675 24.8497 10.7201C24.8576 10.9734 24.8725 11.1555 24.8961 11.2694C24.9189 11.3811 24.9526 11.4748 25.0014 11.5467C25.1082 11.7019 25.2693 11.7813 25.4839 11.7843C25.5538 11.7911 25.6442 11.7791 25.7519 11.7506L26.1629 13.1138Z" fill="#0000CC"/>
<path d="M31.6387 13.1138C31.2143 13.2705 30.7381 13.3506 30.2077 13.3529C29.6906 13.3491 29.2466 13.242 28.8701 13.0299C28.4945 12.8208 28.232 12.53 28.0819 12.1598C28.0222 12.0189 27.9774 11.8757 27.9467 11.7303C27.9153 11.5865 27.8941 11.3953 27.8831 11.1623C27.8713 10.9284 27.8666 10.6069 27.8674 10.1992V3.68955C27.8674 3.12822 27.8572 2.64708 27.8367 2.24163C27.8179 1.83768 27.7856 1.44497 27.7416 1.06425L30.1911 0.535889C30.2359 0.762221 30.2674 1.04626 30.2862 1.38801C30.3067 1.729 30.3153 2.20041 30.3153 2.80221V9.60342C30.3145 10.0951 30.3177 10.4675 30.3255 10.7201C30.3326 10.9734 30.3483 11.1555 30.3711 11.2694C30.3931 11.3811 30.4277 11.4748 30.4756 11.5467C30.5833 11.7019 30.7444 11.7813 30.9581 11.7843C31.0297 11.7911 31.1192 11.7791 31.2277 11.7506L31.6387 13.1138Z" fill="#0000CC"/>
<path d="M41.0391 12.1911L39.7707 13.5903C39.4878 13.4757 39.234 13.3288 39.0053 13.1444C38.7782 12.9608 38.6038 12.7577 38.4835 12.5329C38.2996 12.712 38.1142 12.8649 37.9295 12.993C37.4674 13.304 36.8544 13.4644 36.0882 13.4712C35.0666 13.4652 34.287 13.2283 33.7511 12.7592C33.2159 12.2893 32.9464 11.6185 32.9432 10.7432C32.9527 8.72118 34.4175 7.72142 37.3401 7.74315C37.5091 7.74091 37.689 7.7469 37.876 7.76114V7.40291C37.8855 6.92401 37.8171 6.58676 37.6678 6.39116C37.5201 6.1948 37.2309 6.10112 36.8041 6.10711C36.0293 6.1221 35.1483 6.45111 34.1582 7.09638L33.1397 5.4596C33.3723 5.3187 33.5994 5.19504 33.821 5.08862C34.0426 4.9822 34.3106 4.86828 34.6226 4.74387C35.0658 4.56626 35.4902 4.43585 35.8949 4.35341C36.2988 4.27098 36.7106 4.23051 37.1248 4.23275C37.8981 4.235 38.537 4.36615 39.0423 4.62696C39.5468 4.88702 39.891 5.26099 40.0741 5.74963C40.137 5.91301 40.1825 6.10112 40.2085 6.31621C40.2352 6.53055 40.2446 6.86255 40.2352 7.31747L40.1825 10.2493C40.1597 10.711 40.1998 11.0819 40.3028 11.3607C40.4041 11.6403 40.6501 11.9168 41.0391 12.1911ZM37.8399 9.32823H37.7322C36.9126 9.31924 36.3318 9.40992 35.9931 9.60327C35.6537 9.79588 35.4878 10.1481 35.4996 10.6577C35.5051 11.0032 35.6049 11.2798 35.7983 11.4844C35.9924 11.6905 36.243 11.7947 36.5535 11.8006C37.0155 11.7872 37.432 11.5901 37.8053 11.2026L37.8399 9.32823Z" fill="#0000CC"/>
</g>
<defs>
<clipPath id="clip0_375_8280">
<rect width="56" height="14" fill="white" transform="translate(0.5 0.5)"/>
</clipPath>
</defs>
</svg>
