<svg width="69" height="21" viewBox="0 0 69 21" fill="none" xmlns="http://www.w3.org/2000/svg">
<g clip-path="url(#clip0_375_8175)">
<path d="M28.8021 10.393C26.7907 10.393 25.3279 11.8929 25.3279 13.8305C25.3279 15.7679 26.7907 17.268 28.8021 17.268C30.8134 17.268 32.2762 15.7679 32.2762 13.8305C32.2762 11.8929 30.8134 10.393 28.8021 10.393ZM28.8021 15.9554C27.644 15.9554 26.7907 15.0804 26.7907 13.8305C26.7907 12.5804 27.644 11.7054 28.8021 11.7054C29.9602 11.7054 30.8134 12.5804 30.8134 13.8305C30.8134 15.0804 29.9602 15.9554 28.8021 15.9554ZM3.84635 3.93754C-0.604382 8.50142 -0.604382 15.9009 3.84635 20.4648V17.0419C8.29708 21.6057 15.5131 21.6057 19.9638 17.0419H3.84635V3.93754ZM41.2765 10.393C39.5698 10.393 39.0213 11.7055 39.0213 11.7055H38.9604C38.9604 11.7055 38.5337 10.393 36.949 10.393C35.5471 10.393 34.9986 11.5805 34.9986 11.5805H34.9377L34.8767 10.5804H33.5358V17.0804H34.9377V13.5805C34.9377 12.4555 35.73 11.7054 36.5833 11.7054C37.3757 11.7054 37.8633 12.143 37.8633 13.143V17.0804H39.2652V13.5805C39.2652 12.4555 40.0574 11.7054 40.9108 11.7054C41.7032 11.7054 42.1908 12.143 42.1908 13.143V17.0804H43.5926V13.0804C43.5926 11.393 42.6784 10.393 41.2765 10.393ZM16.6258 0.514672V17.0419C21.0765 12.478 21.0765 5.07854 16.6258 0.514672ZM0.508316 3.93751H16.6258C12.1751 -0.626297 4.95903 -0.626297 0.508316 3.93751ZM59.0757 15.0179H59.0148L57.1253 10.5804H55.6625L58.4053 17.0804H59.6853L62.428 10.5804H60.9652L59.0757 15.0179ZM65.7525 10.393C64.1435 10.393 63.2224 11.211 63.2224 11.211V12.5235H63.4052C63.4052 12.5235 64.1679 11.7054 65.5697 11.7054C66.5449 11.7054 67.0935 12.2054 67.0935 13.0805V13.6429C67.0935 13.6429 66.423 13.2055 65.2649 13.2055C63.7412 13.2055 62.8879 14.0804 62.8879 15.3055C62.8879 16.393 63.7412 17.268 65.0212 17.268C66.6059 17.268 67.0325 16.0804 67.0325 16.0804H67.0935L67.1544 17.0804H68.4954V13.0179C68.4954 11.393 67.5202 10.393 65.7525 10.393ZM65.3259 16.0178C64.7164 16.0178 64.3507 15.7054 64.3507 15.143C64.3507 14.5804 64.7773 14.2055 65.5088 14.2055C66.6059 14.2055 67.0935 14.643 67.0935 14.643C67.0935 14.643 66.7887 16.0178 65.3259 16.0178ZM53.8581 7.5805C53.4071 7.5805 53.0414 7.8929 53.0414 8.4305C53.0414 8.95552 53.4071 9.26799 53.8581 9.26799C54.3214 9.26799 54.6871 8.95552 54.6871 8.4305C54.6871 7.89291 54.3214 7.5805 53.8581 7.5805ZM53.1633 17.0804H54.5652V10.5803H53.1633V17.0804ZM48.8961 10.393C47.3723 10.393 46.8238 11.5805 46.8238 11.5805H46.7629L46.7019 10.5804H45.361V17.0804H46.7629V13.5805C46.7629 12.5179 47.6162 11.7054 48.5914 11.7054C49.4446 11.7054 49.9932 12.2054 49.9932 13.143V17.0804H51.3951V13.0804C51.3951 11.393 50.4198 10.393 48.8961 10.393Z" fill="#FF6600"/>
</g>
<defs>
<clipPath id="clip0_375_8175">
<rect width="68" height="20" fill="white" transform="translate(0.5 0.5)"/>
</clipPath>
</defs>
</svg>
