<svg width="27" height="16" viewBox="0 0 27 16" fill="none" xmlns="http://www.w3.org/2000/svg">
<path fill-rule="evenodd" clip-rule="evenodd" d="M13.1309 14.0889C11.7402 15.2806 9.93606 16 7.96468 16C3.56591 16 0 12.4183 0 8C0 3.58172 3.56591 0 7.96468 0C9.93606 0 11.7402 0.719394 13.1309 1.91108C14.5217 0.719394 16.3258 0 18.2972 0C22.696 0 26.2619 3.58172 26.2619 8C26.2619 12.4183 22.696 16 18.2972 16C16.3258 16 14.5217 15.2806 13.1309 14.0889Z" fill="#ED0006"/>
<path fill-rule="evenodd" clip-rule="evenodd" d="M13.1309 14.0889C14.8434 12.6216 15.9293 10.4382 15.9293 8C15.9293 5.56184 14.8434 3.37843 13.1309 1.91108C14.5217 0.719394 16.3257 0 18.2971 0C22.6959 0 26.2618 3.58172 26.2618 8C26.2618 12.4183 22.6959 16 18.2971 16C16.3257 16 14.5217 15.2806 13.1309 14.0889Z" fill="#F9A000"/>
<path fill-rule="evenodd" clip-rule="evenodd" d="M13.1304 14.0879C14.8429 12.6206 15.9288 10.4372 15.9288 7.99905C15.9288 5.5609 14.8429 3.3775 13.1304 1.91016C11.4179 3.3775 10.332 5.5609 10.332 7.99905C10.332 10.4372 11.4179 12.6206 13.1304 14.0879Z" fill="#FF5E00"/>
</svg>
