<svg width="48" height="21" viewBox="0 0 48 21" fill="none" xmlns="http://www.w3.org/2000/svg">
<g clip-path="url(#clip0_375_8178)">
<path fill-rule="evenodd" clip-rule="evenodd" d="M30.7427 16.2842C29.8871 16.5262 28.7729 16.6269 27.8178 16.6269C25.3308 16.6269 23.6993 15.3166 23.6993 12.9178C23.6993 10.6398 25.2314 9.16827 27.4597 9.16827C27.9571 9.16827 28.4943 9.22875 28.8127 9.39002V6.08398H30.7427V16.2842ZM28.8127 11.0833C28.5142 10.9422 28.0964 10.8616 27.6189 10.8616C26.4451 10.8616 25.6691 11.5873 25.6691 12.8573C25.6691 14.2079 26.5047 14.9739 27.8775 14.9739C28.1163 14.9739 28.4943 14.9739 28.8127 14.8933V11.0833ZM46.6003 16.2842C45.7447 16.5262 44.6305 16.6269 43.6556 16.6269C41.1884 16.6269 39.537 15.3166 39.537 12.9178C39.537 10.6398 41.069 9.16827 43.2975 9.16827C43.8148 9.16827 44.3321 9.22875 44.6504 9.39002V6.08398H46.6003V16.2842ZM44.6504 11.0833C44.352 10.9422 43.954 10.8616 43.4765 10.8616C42.2827 10.8616 41.5068 11.5873 41.5068 12.8573C41.5068 14.2079 42.3623 14.9739 43.7352 14.9739C43.9739 14.9739 44.3321 14.9739 44.6504 14.8933V11.0833ZM33.7868 11.0833C34.1052 10.9422 34.5628 10.9019 34.9409 10.9019C36.1347 10.9019 36.9504 11.5873 36.9504 12.817C36.9504 14.2684 36.0352 14.9336 34.8215 14.9538V16.6269H34.921C37.4279 16.6269 38.9202 15.236 38.9202 12.7565C38.9202 10.4987 37.3285 9.16827 34.9806 9.16827C33.7868 9.16827 32.6129 9.45049 31.837 9.77301V19.3483H33.7868V11.0833Z" fill="#3F3F42"/>
<path fill-rule="evenodd" clip-rule="evenodd" d="M16.5764 4.51147L16.8947 4.87433L17.0738 4.77354L16.5764 4.51147Z" fill="#DC0032"/>
<path fill-rule="evenodd" clip-rule="evenodd" d="M16.0989 4.24951L16.7156 4.97523L16.9345 4.85427L16.6958 4.57205L16.0989 4.24951Z" fill="#DC0032"/>
<path fill-rule="evenodd" clip-rule="evenodd" d="M15.6014 3.98755L16.5366 5.07612L16.7554 4.95517L16.2182 4.31009L15.6014 3.98755Z" fill="#DC0032"/>
<path fill-rule="evenodd" clip-rule="evenodd" d="M15.124 3.72534L16.3576 5.17677L16.5764 5.05582L15.7209 4.04788L15.124 3.72534ZM17.4916 6.28547L17.3524 6.36611L17.4916 6.52738V6.28547Z" fill="#DC0032"/>
<path fill-rule="evenodd" clip-rule="evenodd" d="M14.6464 3.46338L16.1785 5.27766L16.3973 5.15671L15.2433 3.78592L14.6464 3.46338ZM17.412 6.32589L17.1932 6.467L17.4916 6.82986V6.44684L17.412 6.32589Z" fill="#DC0032"/>
<path fill-rule="evenodd" clip-rule="evenodd" d="M14.149 3.20117L15.9994 5.37831L16.2381 5.25736L14.7658 3.52371L14.149 3.20117ZM17.2329 6.42654L17.0141 6.56765L17.4916 7.1321V6.74908L17.2329 6.42654Z" fill="#DC0032"/>
<path fill-rule="evenodd" clip-rule="evenodd" d="M13.6715 2.93921L15.8402 5.4792L16.0591 5.35825L14.2684 3.26174L13.6715 2.93921ZM17.0539 6.54759L16.8351 6.66854L17.4916 7.45473V7.07171L17.0539 6.54759Z" fill="#DC0032"/>
<path fill-rule="evenodd" clip-rule="evenodd" d="M13.194 2.67725L15.6612 5.58009L15.88 5.45914L13.7909 2.99978L13.194 2.67725ZM16.8748 6.64848L16.656 6.76943L17.4916 7.75721V7.37419L16.8748 6.64848Z" fill="#DC0032"/>
<path fill-rule="evenodd" clip-rule="evenodd" d="M12.6966 2.41504L15.4821 5.68074L15.701 5.55979L13.3134 2.73758L12.6966 2.41504ZM16.6958 6.74913L16.4769 6.87008L17.4916 8.05944V7.67643L16.6958 6.74913Z" fill="#DC0032"/>
<path fill-rule="evenodd" clip-rule="evenodd" d="M12.2191 2.15308L15.303 5.80179L15.5219 5.66068L12.816 2.47562L12.2191 2.15308ZM16.5167 6.85002L16.2978 6.97097L17.4916 8.38208V7.99907L16.5167 6.85002Z" fill="#DC0032"/>
<path fill-rule="evenodd" clip-rule="evenodd" d="M11.7216 1.89087L15.1239 5.90244L15.3428 5.76133L12.3384 2.21341L11.7216 1.89087ZM16.3575 6.95067L16.1188 7.07162L17.4916 8.68432V8.3013L16.3575 6.95067Z" fill="#DC0032"/>
<path fill-rule="evenodd" clip-rule="evenodd" d="M11.2441 1.62891L14.9449 6.00331L15.1837 5.86222L11.8609 1.95144L11.2441 1.62891ZM16.1785 7.05156L15.9596 7.17251L17.4916 9.00696V8.60378L16.1785 7.05156Z" fill="#DC0032"/>
<path fill-rule="evenodd" clip-rule="evenodd" d="M10.7666 1.3667L14.7857 6.10395L15.0046 5.96284L11.3635 1.68924L10.7666 1.3667ZM15.9994 7.15221L15.7805 7.27316L17.4916 9.30919V8.92618L15.9994 7.15221Z" fill="#DC0032"/>
<path fill-rule="evenodd" clip-rule="evenodd" d="M10.2692 1.08472L14.6066 6.20499L14.8255 6.06388L10.886 1.42741L10.2692 1.08472ZM15.8203 7.25324L15.6014 7.37419L17.4916 9.61178V9.2288L15.8203 7.25324Z" fill="#DC0032"/>
<path fill-rule="evenodd" clip-rule="evenodd" d="M9.79169 0.82251L14.4276 6.30563L14.6464 6.18468L10.4085 1.16521L9.79169 0.82251ZM15.6413 7.35389L15.4224 7.47484L17.4916 9.93418V9.53103L15.6413 7.35389Z" fill="#DC0032"/>
<path fill-rule="evenodd" clip-rule="evenodd" d="M9.31415 0.580566L14.2485 6.40639L14.4673 6.28543L9.91102 0.903104L9.31415 0.580566ZM15.4622 7.45464L15.2433 7.57559L17.4916 10.2365V9.8535L15.4622 7.45464Z" fill="#DC0032"/>
<path fill-rule="evenodd" clip-rule="evenodd" d="M8.99585 0.5L14.0694 6.50725L14.2883 6.3863L9.43358 0.64111L9.3142 0.580634C9.21471 0.520159 9.11523 0.5 8.99585 0.5ZM15.2831 7.5555L15.0643 7.67645L17.4916 10.539V10.156L15.2831 7.5555Z" fill="#DC0032"/>
<path fill-rule="evenodd" clip-rule="evenodd" d="M8.99584 0.5C8.91625 0.5 8.83667 0.520159 8.75708 0.540317L13.8904 6.60804L14.1291 6.48709L9.05553 0.5C9.03563 0.5 9.01574 0.5 8.99584 0.5ZM15.124 7.65629L14.9051 7.77725L17.4916 10.8615V10.4583L15.124 7.65629Z" fill="#DC0032"/>
<path fill-rule="evenodd" clip-rule="evenodd" d="M8.81676 0.520264C8.77697 0.540422 8.71728 0.560581 8.69738 0.580739L8.578 0.641215L13.7312 6.70894L13.95 6.58799L8.81676 0.520264ZM14.9449 7.75719L14.726 7.89831L17.4916 11.164V10.781L14.9449 7.75719Z" fill="#DC0032"/>
<path fill-rule="evenodd" clip-rule="evenodd" d="M8.61779 0.60083L8.39893 0.721782L13.5521 6.80967L13.771 6.68871L8.61779 0.60083ZM14.7658 7.85792L14.5469 7.99903L17.4916 11.4663V11.0833L14.7658 7.85792Z" fill="#DC0032"/>
<path fill-rule="evenodd" clip-rule="evenodd" d="M8.43871 0.70166L8.21985 0.822611L13.373 6.9105L13.5919 6.78955L8.43871 0.70166ZM14.5867 7.95875L14.3679 8.09986L17.4916 11.7889V11.4059L14.5867 7.95875Z" fill="#DC0032"/>
<path fill-rule="evenodd" clip-rule="evenodd" d="M8.25963 0.80249L8.04077 0.923443L13.194 7.01133L13.4128 6.89038L8.25963 0.80249ZM14.4077 8.05958L14.1888 8.20069L17.4916 12.0913V11.7083L14.4077 8.05958Z" fill="#DC0032"/>
<path fill-rule="evenodd" clip-rule="evenodd" d="M8.08056 0.903076L7.86169 1.02403L13.0149 7.11191L13.2337 6.99096L8.08056 0.903076ZM14.2286 8.16017L14.0097 8.30128L17.4916 12.3935V12.0105L14.2286 8.16017Z" fill="#DC0032"/>
<path fill-rule="evenodd" clip-rule="evenodd" d="M7.90148 1.00391L7.68262 1.12486L12.8358 7.21274L13.0547 7.09179L7.90148 1.00391ZM14.0694 8.261L13.8505 8.40211L17.4916 12.7161V12.333L14.0694 8.261Z" fill="#DC0032"/>
<path fill-rule="evenodd" clip-rule="evenodd" d="M7.72246 1.08472L7.5036 1.22583L12.6767 7.31372L12.8956 7.19276L7.72246 1.08472ZM13.8904 8.38213L13.6715 8.50308L17.4916 13.0186V12.6356L13.8904 8.38213Z" fill="#DC0032"/>
<path fill-rule="evenodd" clip-rule="evenodd" d="M7.54339 1.1853L7.32452 1.30626L12.4976 7.4143L12.7165 7.29335L7.54339 1.1853ZM13.7113 8.48272L13.4924 8.60367L17.4916 13.3409V12.9378L13.7113 8.48272Z" fill="#DC0032"/>
<path fill-rule="evenodd" clip-rule="evenodd" d="M7.36431 1.28613L7.14545 1.40709L12.3186 7.53529L12.5374 7.39418L7.36431 1.28613ZM13.5322 8.58354L13.3134 8.7045L17.4916 13.6433V13.2603L13.5322 8.58354Z" fill="#DC0032"/>
<path fill-rule="evenodd" clip-rule="evenodd" d="M7.18523 1.38696L6.96637 1.50791L12.1395 7.63612L12.3583 7.49501L7.18523 1.38696ZM13.3531 8.68437L13.1343 8.80533L17.4916 13.9458V13.5627L13.3531 8.68437Z" fill="#DC0032"/>
<path fill-rule="evenodd" clip-rule="evenodd" d="M7.00616 1.48779L6.78729 1.60875L11.9604 7.73695L12.1793 7.59584L7.00616 1.48779ZM13.1741 8.78521L12.9552 8.90616L17.4916 14.2683V13.8652L13.1741 8.78521Z" fill="#DC0032"/>
<path fill-rule="evenodd" clip-rule="evenodd" d="M6.82708 1.58862L6.60822 1.70958L11.7813 7.83778L12.0002 7.69667L6.82708 1.58862ZM13.0149 8.88604L12.7961 9.00699L17.4916 14.5707V14.1877L13.0149 8.88604Z" fill="#DC0032"/>
<path fill-rule="evenodd" clip-rule="evenodd" d="M6.648 1.66919L6.40924 1.79014L11.6221 7.93851L11.841 7.7974L6.648 1.66919ZM12.8358 8.98676L12.617 9.10772L17.4916 14.8731V14.49L12.8358 8.98676Z" fill="#DC0032"/>
<path fill-rule="evenodd" clip-rule="evenodd" d="M6.46892 1.77002L6.23016 1.89097L11.463 8.0595C11.4829 8.01918 11.5028 7.99902 11.5426 7.97886L11.6619 7.89823L6.46892 1.77002ZM12.6568 9.08759L12.4379 9.20855L17.4518 15.1352C17.4717 15.0747 17.4916 15.0142 17.4916 14.9537V14.7925L12.6568 9.08759Z" fill="#DC0032"/>
<path fill-rule="evenodd" clip-rule="evenodd" d="M6.28985 1.87085L6.05109 1.9918L11.4033 8.30144V8.22081C11.4033 8.16033 11.4431 8.0797 11.4829 8.01922L6.28985 1.87085ZM12.4777 9.18843L12.3185 9.28922C12.2986 9.28922 12.2787 9.30938 12.2588 9.30938L17.3523 15.3368C17.412 15.2561 17.4518 15.1755 17.4717 15.0949L12.4777 9.18843Z" fill="#DC0032"/>
<path fill-rule="evenodd" clip-rule="evenodd" d="M6.1108 1.97168L5.87207 2.09263L11.4033 8.62402V8.22084L6.1108 1.97168ZM11.9206 9.20862L17.2131 15.4779C17.2728 15.4376 17.3324 15.357 17.3921 15.2965L12.2986 9.28926C12.2191 9.32957 12.0997 9.32957 12.0201 9.28926L11.9206 9.20862Z" fill="#DC0032"/>
<path fill-rule="evenodd" clip-rule="evenodd" d="M5.93173 2.07227L5.69299 2.19322L17.034 15.5785L17.1932 15.4979C17.2131 15.4777 17.233 15.4576 17.2529 15.4374L12.04 9.28905H12.0201L11.5625 9.00683C11.5227 8.98667 11.5028 8.94635 11.463 8.90603C11.4232 8.84556 11.4232 8.80524 11.4033 8.76492V8.54318L5.93173 2.07227Z" fill="#DC0032"/>
<path fill-rule="evenodd" clip-rule="evenodd" d="M5.75268 2.1731L5.51392 2.29405L16.8549 15.6794L17.0738 15.5584L5.75268 2.1731Z" fill="#DC0032"/>
<path fill-rule="evenodd" clip-rule="evenodd" d="M5.5736 2.25391L5.33484 2.37486L16.6957 15.7803L16.9146 15.6594L5.5736 2.25391Z" fill="#DC0032"/>
<path fill-rule="evenodd" clip-rule="evenodd" d="M5.39452 2.35449L5.15576 2.47544L16.5167 15.8809L16.7355 15.76L5.39452 2.35449Z" fill="#DC0032"/>
<path fill-rule="evenodd" clip-rule="evenodd" d="M5.21551 2.45532L4.97675 2.57627L16.3377 15.9817L16.5565 15.8608L5.21551 2.45532Z" fill="#DC0032"/>
<path fill-rule="evenodd" clip-rule="evenodd" d="M5.01653 2.55615L4.79767 2.6771L16.1586 16.1027L16.3774 15.9616L5.01653 2.55615Z" fill="#DC0032"/>
<path fill-rule="evenodd" clip-rule="evenodd" d="M4.83745 2.65698L4.61859 2.77793L15.9795 16.2036L16.1984 16.0624L4.83745 2.65698Z" fill="#DC0032"/>
<path fill-rule="evenodd" clip-rule="evenodd" d="M4.65838 2.75781L4.43951 2.87876L15.8203 16.3044L16.0392 16.1633L4.65838 2.75781Z" fill="#DC0032"/>
<path fill-rule="evenodd" clip-rule="evenodd" d="M4.4793 2.83838L4.26044 2.95933L15.6413 16.4051L15.8601 16.264L4.4793 2.83838Z" fill="#DC0032"/>
<path fill-rule="evenodd" clip-rule="evenodd" d="M4.30022 2.93921L4.08136 3.06016L15.4622 16.5059L15.681 16.385L4.30022 2.93921Z" fill="#DC0032"/>
<path fill-rule="evenodd" clip-rule="evenodd" d="M4.12115 3.04004L3.90228 3.16099L9.43353 9.69236L9.61257 9.81331C9.69216 9.85363 9.77175 9.95442 9.77175 10.0552V10.0754L15.2831 16.6068L15.502 16.4858L4.12115 3.04004Z" fill="#DC0032"/>
<path fill-rule="evenodd" clip-rule="evenodd" d="M3.94207 3.14087L3.72321 3.26181L8.91621 9.4102L9.57277 9.77303L3.94207 3.14087ZM9.75184 9.99478C9.75184 10.0149 9.77174 10.0351 9.77174 10.0553V10.398L15.104 16.7076L15.3229 16.5867L9.75184 9.99478Z" fill="#DC0032"/>
<path fill-rule="evenodd" clip-rule="evenodd" d="M3.76305 3.24146L3.54419 3.36241L8.39895 9.10762L9.05554 9.47048L3.76305 3.24146ZM9.77179 10.3171V10.7001L14.9449 16.8082L15.1638 16.6872L9.77179 10.3171Z" fill="#DC0032"/>
<path fill-rule="evenodd" clip-rule="evenodd" d="M3.58398 3.34229L3.36511 3.46324L7.90153 8.80527L8.53822 9.16813L3.58398 3.34229ZM9.77179 10.6195V11.0227L14.7658 16.909L14.9847 16.7881L9.77179 10.6195Z" fill="#DC0032"/>
<path fill-rule="evenodd" clip-rule="evenodd" d="M3.4049 3.4231L3.18604 3.54405L7.38421 8.50307L8.0209 8.88609L3.4049 3.4231ZM9.77178 10.9422V11.3253L14.5867 17.01L14.8056 16.889L9.77178 10.9422Z" fill="#DC0032"/>
<path fill-rule="evenodd" clip-rule="evenodd" d="M3.22581 3.52368L3.00696 3.64463L6.86688 8.20048L7.50357 8.5835L3.22581 3.52368ZM9.77176 11.2444V11.6274L14.4077 17.1106L14.6265 16.9896L9.77176 11.2444Z" fill="#DC0032"/>
<path fill-rule="evenodd" clip-rule="evenodd" d="M3.04674 3.62451L2.82788 3.74546L6.34955 7.91829L6.98625 8.28115L3.04674 3.62451ZM9.77175 11.5468V11.95L14.2286 17.2315L14.4474 17.0904L9.77175 11.5468Z" fill="#DC0032"/>
<path fill-rule="evenodd" clip-rule="evenodd" d="M2.86766 3.72534L2.6488 3.84629L5.83226 7.61595L6.46893 7.97881L2.86766 3.72534ZM9.77175 11.8694V12.2524L14.0694 17.3324L14.2883 17.1913L9.77175 11.8694Z" fill="#DC0032"/>
<path fill-rule="evenodd" clip-rule="evenodd" d="M2.68859 3.82617L2.46973 3.94712L5.31494 7.31361L5.9715 7.67646L2.68859 3.82617ZM9.77174 12.1718V12.5548L13.8903 17.4332L14.1092 17.2921L9.77174 12.1718Z" fill="#DC0032"/>
<path fill-rule="evenodd" clip-rule="evenodd" d="M2.50957 3.927L2.29071 4.04795L4.79768 7.01126L5.45427 7.39428L2.50957 3.927ZM7.72246 10.4584L8.23977 11.0631V10.8414C8.23977 10.8011 8.19998 10.7406 8.16019 10.7204L7.72246 10.4584ZM9.77179 12.4743V12.8774L13.7113 17.534L13.9302 17.3929L9.77179 12.4743Z" fill="#DB0032"/>
<path fill-rule="evenodd" clip-rule="evenodd" d="M2.33049 4.00757L2.11163 4.12852L4.28035 6.70881L4.93694 7.09183L2.33049 4.00757ZM7.20514 10.1559L8.23976 11.3655V10.9824L7.86173 10.5389L7.20514 10.1559ZM9.77178 12.7967V13.1797L13.5322 17.6348L13.7511 17.5138L9.77178 12.7967Z" fill="#DC0032"/>
<path fill-rule="evenodd" clip-rule="evenodd" d="M2.15142 4.1084L1.93256 4.22935L3.78293 6.42663L4.41962 6.78948L2.15142 4.1084ZM6.68782 9.87374L8.23976 11.688V11.305L7.34441 10.2366L6.68782 9.87374ZM9.77178 13.0991V13.4821L13.3531 17.7356L13.572 17.6146L9.77178 13.0991Z" fill="#DC0032"/>
<path fill-rule="evenodd" clip-rule="evenodd" d="M1.97234 4.20923L1.75348 4.33018L3.26561 6.12428L3.9023 6.48714L1.97234 4.20923ZM6.19039 9.57142L8.23975 11.9904V11.6074L6.82708 9.93425L6.19039 9.57142ZM9.77176 13.4217V13.8047L13.194 17.8364L13.4128 17.7155L9.77176 13.4217Z" fill="#DC0032"/>
<path fill-rule="evenodd" clip-rule="evenodd" d="M1.79326 4.31006L1.5744 4.43101L2.7483 5.82196L3.38498 6.18479L1.79326 4.31006ZM5.6731 9.26908L8.23974 12.2929V11.9098L6.30976 9.65207L5.6731 9.26908ZM9.77176 13.7241V14.1071L13.0149 17.9373L13.2338 17.8163L9.77176 13.7241Z" fill="#DC0032"/>
<path fill-rule="evenodd" clip-rule="evenodd" d="M1.61419 4.41064L1.39532 4.5316L2.23098 5.51937L2.86766 5.90239L1.61419 4.41064ZM5.15577 8.96649L8.23973 12.6152V12.2322L5.79247 9.34951L5.15577 8.96649ZM9.77175 14.0263V14.4093L12.8358 18.0378L13.0547 17.9169L9.77175 14.0263Z" fill="#DC0032"/>
<path fill-rule="evenodd" clip-rule="evenodd" d="M1.43511 4.51147L1.21625 4.63243L1.71366 5.21703L2.37025 5.60005L1.43511 4.51147ZM4.63845 8.6843L8.23972 12.9176V12.5346L5.27515 9.04716L4.63845 8.6843ZM9.77174 14.3489V14.7319L12.6568 18.1387L12.8756 18.0177L9.77174 14.3489Z" fill="#DC0032"/>
<path fill-rule="evenodd" clip-rule="evenodd" d="M1.25609 4.59229L1.01733 4.71324L1.1964 4.93498L1.85299 5.29784L1.25609 4.59229ZM4.12119 8.3821L8.23977 13.2403V12.8372L4.77778 8.74496L4.12119 8.3821ZM9.77179 14.6514V15.0344L12.4777 18.2598L12.6966 18.1187L9.77179 14.6514Z" fill="#DC0032"/>
<path fill-rule="evenodd" clip-rule="evenodd" d="M1.07702 4.69287L0.937744 4.77351L1.33567 4.99525L1.07702 4.69287ZM3.60387 8.07951L8.23977 13.5425V13.1595L4.26046 8.46253L3.60387 8.07951ZM9.77179 14.9536V15.3568L12.3186 18.3604L12.5374 18.2193L9.77179 14.9536Z" fill="#DC0032"/>
<path fill-rule="evenodd" clip-rule="evenodd" d="M3.10645 7.77734L8.23975 13.8451V13.4621L3.74313 8.16036L3.10645 7.77734ZM9.77177 15.2763V15.6594L12.1395 18.4614L12.3583 18.3203L9.77177 15.2763Z" fill="#DC0032"/>
<path fill-rule="evenodd" clip-rule="evenodd" d="M2.58911 7.49512L8.23973 14.1676V13.7644L3.22579 7.85797L2.58911 7.49512ZM9.77174 15.5787V15.9617L11.9604 18.5622L12.1792 18.4211L9.77174 15.5787Z" fill="#DC0032"/>
<path fill-rule="evenodd" clip-rule="evenodd" d="M2.07184 7.19263L8.23976 14.4699V14.0869L2.70853 7.55548L2.07184 7.19263ZM9.77178 15.881V16.2842L11.7813 18.6629L12.0002 18.5419L9.77178 15.881Z" fill="#DC0032"/>
<path fill-rule="evenodd" clip-rule="evenodd" d="M1.5545 6.89038L8.23974 14.7724V14.3894L2.19119 7.2734L1.5545 6.89038ZM9.77176 16.2037V16.5867L11.6023 18.7638L11.8211 18.6428L9.77176 16.2037Z" fill="#DB0032"/>
<path fill-rule="evenodd" clip-rule="evenodd" d="M1.03723 6.58789L8.23977 15.0948V14.7118L1.67392 6.97091L1.03723 6.58789ZM9.77179 16.5059V16.8889L11.4431 18.8645L11.662 18.7435L9.77179 16.5059Z" fill="#DA0032"/>
<path fill-rule="evenodd" clip-rule="evenodd" d="M0.519897 6.30566L8.23975 15.3972V15.0142L1.17648 6.66852L0.519897 6.30566ZM9.77177 16.8083V17.2115L11.264 18.9653L11.4829 18.8443L9.77177 16.8083Z" fill="#D90032"/>
<path fill-rule="evenodd" clip-rule="evenodd" d="M0.5 6.2854V6.56762L8.23975 15.6995V15.3165L0.659172 6.36603L0.5 6.2854ZM9.77177 17.1307V17.3726C9.77177 17.4129 9.75187 17.4533 9.73197 17.4734L11.0849 19.066L11.3038 18.945L9.77177 17.1307Z" fill="#D80032"/>
<path fill-rule="evenodd" clip-rule="evenodd" d="M0.5 6.48706V6.89024L8.23975 16.0221V15.6391L0.5 6.48706ZM9.75187 17.4332C9.73197 17.5138 9.67228 17.5944 9.61259 17.6146L9.5927 17.6348L10.9059 19.1668L11.1247 19.0459L9.75187 17.4332Z" fill="#D70032"/>
<path fill-rule="evenodd" clip-rule="evenodd" d="M0.5 6.80957V7.19259L8.23975 16.3244V15.9414L0.5 6.80957ZM9.63249 17.5944C9.63249 17.6146 9.63249 17.6146 9.61259 17.6146L9.41365 17.7355L10.7268 19.2676L10.9457 19.1466L9.63249 17.5944Z" fill="#D60032"/>
<path fill-rule="evenodd" clip-rule="evenodd" d="M0.5 7.11206V7.49508L8.23975 16.6269V16.2439L0.5 7.11206ZM9.47332 17.6953L9.23458 17.8364L10.5676 19.3886L10.7865 19.2475L9.47332 17.6953Z" fill="#D50032"/>
<path fill-rule="evenodd" clip-rule="evenodd" d="M0.5 7.43457V7.81759L8.23975 16.9494V16.5664L0.5 7.43457ZM9.29427 17.7961L9.155 17.8767C9.1152 17.8969 9.07541 17.8969 9.03562 17.8969L10.3886 19.4894L10.6074 19.3483L9.29427 17.7961Z" fill="#D40032"/>
<path fill-rule="evenodd" clip-rule="evenodd" d="M0.5 7.73682V8.11983L8.23975 17.2517V16.8686L0.5 7.73682ZM8.67748 17.7959L10.2095 19.5901L10.4284 19.449L9.09531 17.8967C9.07541 17.8967 9.03562 17.9169 9.01572 17.9169H8.99582C8.93613 17.9169 8.89634 17.8967 8.85655 17.8766L8.67748 17.7959Z" fill="#D30032"/>
<path fill-rule="evenodd" clip-rule="evenodd" d="M0.5 8.03931V8.44248L10.0304 19.691L10.2493 19.5499L8.81675 17.8565L8.37903 17.6146C8.29944 17.5743 8.23975 17.4735 8.23975 17.3727V17.1711L0.5 8.03931Z" fill="#D20032"/>
<path fill-rule="evenodd" clip-rule="evenodd" d="M0.5 8.36182V8.74483L9.85135 19.7917L10.0702 19.6708L0.5 8.36182Z" fill="#D10032"/>
<path fill-rule="evenodd" clip-rule="evenodd" d="M0.5 8.66431V9.04732L9.67228 19.8926L9.89115 19.7717L0.5 8.66431Z" fill="#D00032"/>
<path fill-rule="evenodd" clip-rule="evenodd" d="M0.5 8.96655V9.36973L9.51311 19.9933L9.73197 19.8723L0.5 8.96655Z" fill="#CF0032"/>
<path fill-rule="evenodd" clip-rule="evenodd" d="M0.5 9.28906V9.67205L9.33407 20.0941L9.5529 19.9731L0.5 9.28906Z" fill="#CE0032"/>
<path fill-rule="evenodd" clip-rule="evenodd" d="M0.5 9.59155V9.97457L9.1351 20.1748C9.19479 20.1547 9.25448 20.1345 9.31417 20.1144L9.37386 20.074L0.5 9.59155Z" fill="#CD0032"/>
<path fill-rule="evenodd" clip-rule="evenodd" d="M0.5 9.8938V10.297L8.87644 20.1747C8.91624 20.1747 8.95603 20.1747 8.99582 20.1747C9.05551 20.1747 9.1152 20.1747 9.17489 20.1545L0.5 9.8938Z" fill="#CC0032"/>
<path fill-rule="evenodd" clip-rule="evenodd" d="M0.5 10.2163V10.5993L8.41882 19.9529L8.69737 20.1142C8.75706 20.1545 8.85655 20.1747 8.93613 20.1747L0.5 10.2163Z" fill="#CB0032"/>
<path fill-rule="evenodd" clip-rule="evenodd" d="M0.5 10.5188V10.9018L7.90151 19.6507L8.5581 20.0337L0.5 10.5188Z" fill="#CA0032"/>
<path fill-rule="evenodd" clip-rule="evenodd" d="M0.5 10.8413V11.2243L7.38419 19.3482L8.04078 19.7313L0.5 10.8413Z" fill="#C90032"/>
<path fill-rule="evenodd" clip-rule="evenodd" d="M0.5 11.1438V11.5268L6.86688 19.046L7.50357 19.429L0.5 11.1438Z" fill="#C80033"/>
<path fill-rule="evenodd" clip-rule="evenodd" d="M0.5 11.446V11.8291L6.34957 18.7435L6.98626 19.1265L0.5 11.446Z" fill="#C70033"/>
<path fill-rule="evenodd" clip-rule="evenodd" d="M0.5 11.7686V12.1516L5.81238 18.4209L6.46895 18.8039L0.5 11.7686Z" fill="#C60033"/>
<path fill-rule="evenodd" clip-rule="evenodd" d="M0.5 12.071V12.4541L5.29507 18.1186L5.95163 18.5016L0.5 12.071Z" fill="#C50033"/>
<path fill-rule="evenodd" clip-rule="evenodd" d="M0.5 12.3733V12.7563L4.77776 17.8161L5.43435 18.1991L0.5 12.3733Z" fill="#C40033"/>
<path fill-rule="evenodd" clip-rule="evenodd" d="M0.5 12.696V13.0791L4.26044 17.5139L4.91703 17.8969L0.5 12.696Z" fill="#C30033"/>
<path fill-rule="evenodd" clip-rule="evenodd" d="M0.5 12.9983V13.3813L3.74313 17.2114L4.39972 17.5944L0.5 12.9983Z" fill="#C20033"/>
<path fill-rule="evenodd" clip-rule="evenodd" d="M0.5 13.3008V13.704L3.22582 16.9092L3.86251 17.2922L0.5 13.3008Z" fill="#C10033"/>
<path fill-rule="evenodd" clip-rule="evenodd" d="M0.5 13.6233V14.0063L2.68862 16.6068L3.3452 16.9898L0.5 13.6233Z" fill="#C00033"/>
<path fill-rule="evenodd" clip-rule="evenodd" d="M0.5 13.9255V14.3086L2.17131 16.3043L2.82789 16.6671L0.5 13.9255Z" fill="#BF0033"/>
<path fill-rule="evenodd" clip-rule="evenodd" d="M0.5 14.228V14.6312L1.654 15.9818L2.31058 16.3649L0.5 14.228Z" fill="#BE0033"/>
<path fill-rule="evenodd" clip-rule="evenodd" d="M0.5 14.5505V14.9336L1.13669 15.6794L1.79327 16.0624L0.5 14.5505Z" fill="#BD0033"/>
<path fill-rule="evenodd" clip-rule="evenodd" d="M0.5 14.853V14.9538C0.5 15.1554 0.639276 15.3973 0.798447 15.4981L1.27596 15.7602L0.5 14.853Z" fill="#BC0033"/>
<path fill-rule="evenodd" clip-rule="evenodd" d="M0.619385 15.3167C0.659178 15.357 0.679074 15.3973 0.718867 15.4174L0.619385 15.3167Z" fill="#BB0033"/>
</g>
<defs>
<clipPath id="clip0_375_8178">
<rect width="47" height="20" fill="white" transform="translate(0.5 0.5)"/>
</clipPath>
</defs>
</svg>
