<svg width="16" height="12" viewBox="0 0 16 12" fill="none" xmlns="http://www.w3.org/2000/svg">
<path d="M15.8591 1.17877L11.0066 5.99999L15.8591 10.8212C15.9468 10.6379 16 10.4352 16 10.2187V1.78124C16 1.56477 15.9468 1.36212 15.8591 1.17877Z" fill="#DA362C"/>
<path d="M14.5937 0.375H1.40625C1.18978 0.375 0.987123 0.42822 0.80378 0.51594L7.00575 6.68666C7.55412 7.23503 8.44587 7.23503 8.99425 6.68666L15.1962 0.51594C15.0129 0.42822 14.8102 0.375 14.5937 0.375Z" fill="#DA362C"/>
<path d="M0.140938 1.17877C0.0532188 1.36212 0 1.56477 0 1.78124V10.2187C0 10.4352 0.0532188 10.6379 0.140938 10.8212L4.99341 5.99999L0.140938 1.17877Z" fill="#DA362C"/>
<path d="M10.3437 6.66284L9.65709 7.3495C8.74337 8.2632 7.25659 8.2632 6.34287 7.3495L5.65625 6.66284L0.80378 11.4841C0.987123 11.5718 1.18978 11.625 1.40625 11.625H14.5937C14.8102 11.625 15.0129 11.5718 15.1962 11.4841L10.3437 6.66284Z" fill="#DA362C"/>
</svg>
