<svg width="157" height="42" viewBox="0 0 157 42" fill="none" xmlns="http://www.w3.org/2000/svg">
<g clip-path="url(#clip0_375_8290)">
<path d="M0 6.2621L2.73453 19.9303L3.65878 19.4711L2.86559 15.0583L6.14621 18.2377L8.57083 17.0351L7.90734 8.1857L7.04316 8.4993L2.64852 5.4585L0 6.2621Z" fill="#B8CCD9"/>
<path d="M16.1601 8.11705L24.8142 12.8435L25.4012 10.1639L29.8013 7.87345L30.2505 6.26065L22.0332 3.06445L16.3403 5.12945L16.1601 8.11705Z" fill="#8AC9AD"/>
<path d="M23.0558 20.8768L21.0353 19.4236L12.7975 24.689L13.9662 25.8216L13.8119 30.3058L15.5389 32.1664L26.6095 23.4318L25.6907 22.7696L22.0223 25.5906L23.0558 20.8768Z" fill="#0096D1"/>
<path d="M31.7522 6.85718L29.8013 7.87358L27.9405 14.5502L24.8142 12.8436L23.0558 20.8768L25.6907 22.7696L27.191 21.616L31.7522 6.85718Z" fill="#4F8AB8"/>
<path d="M24.8142 12.8435L27.9405 14.5487L29.8013 7.87354L25.4012 10.1639L24.8142 12.8435Z" fill="#457AA3"/>
<path d="M22.0223 25.5891L25.6893 22.7695L23.0558 20.8767L22.0223 25.5891Z" fill="#0085BA"/>
<path d="M16.8154 0.0251465L1.17272 4.43655L2.64852 5.45855L7.59197 3.96195L7.90734 8.18715L16.3417 5.12815L16.5929 0.949146L22.0332 3.06455L23.5514 2.51575L16.8154 0.0251465Z" fill="#B2CFCF"/>
<path d="M7.90734 8.18565L7.59197 3.96045L2.64852 5.45845L7.04316 8.49925L7.90734 8.18565Z" fill="#9EB8B8"/>
<path d="M16.3403 5.12822L22.0319 3.06462L16.5929 0.949219L16.3403 5.12822Z" fill="#7AB59C"/>
<path d="M12.7975 24.689L6.14484 18.2378L3.65878 19.4712L3.97961 21.2478L13.745 32.2238L13.8119 30.3058L10.1627 26.3732L12.7975 24.689Z" fill="#94B2CC"/>
<path d="M2.86696 15.0583L3.66015 19.4711L6.14485 18.2378L2.86696 15.0583Z" fill="#829EB5"/>
<path d="M12.7976 24.689L10.1627 26.3732L13.8119 30.3058L13.9662 25.8216L12.7976 24.689Z" fill="#0085BA"/>
<path d="M50.6346 7.5H39.2473V9.607H43.9573V24.7494H45.9246V9.607H50.6346V7.5Z" fill="white"/>
<path d="M52.2141 14.6553H59.6682V17.5939H52.2141V14.6553ZM61.6355 19.7009V14.8611C61.6355 14.2311 61.4252 13.6977 60.9925 13.2343C60.5597 12.7709 60.0627 12.5469 59.473 12.5469H52.408C51.7923 12.5469 51.283 12.7709 50.8516 13.2343C50.4461 13.6935 50.2468 14.2283 50.2468 14.8611L50.2455 22.3441L50.2496 22.4687C50.2577 23.1169 50.4557 23.6503 50.8557 24.1039C51.2803 24.5351 51.7923 24.7493 52.4093 24.7493H61.6355V22.6409H52.2141V19.7023H61.6355V19.7009Z" fill="white"/>
<path d="M64.2376 22.3342L64.243 22.4686C64.2499 23.1168 64.4478 23.6502 64.8492 24.1038C65.2738 24.535 65.7844 24.7478 66.4014 24.7478H74.56V22.6394H66.2062L66.2076 14.6538H74.5614V12.5454H66.4028C65.7898 12.5454 65.2806 12.7708 64.8492 13.2314C64.441 13.6962 64.2417 14.2282 64.2417 14.861L64.2376 22.3342Z" fill="white"/>
<path d="M79.2877 9.60816H86.7418V15.071H79.2877V9.60816ZM88.7091 24.7478V9.81536C88.7091 9.18536 88.4989 8.65196 88.0661 8.18856C87.6333 7.72516 87.1364 7.49976 86.5466 7.49976H79.4802C78.8672 7.49976 78.3566 7.72516 77.9252 8.18856C77.5198 8.64916 77.3204 9.18256 77.3204 9.81536V24.7492H79.2877V17.178H86.7418V24.7478H88.7091Z" fill="white"/>
<path d="M93.187 7.49829H91.2197V24.7477H93.187V7.49829Z" fill="white"/>
<path d="M97.6827 7.49829H95.7154V24.7477H97.6827V7.49829Z" fill="white"/>
<path d="M102.399 12.5466H100.432V24.749H102.399V12.5466Z" fill="white"/>
<path d="M102.399 7.49976H100.432V9.60816H102.399V7.49976Z" fill="white"/>
<path d="M106.905 19.7006H114.359V22.6406H106.905V19.7006ZM107.1 24.7476H116.327V14.8622C116.327 14.2308 116.116 13.6988 115.684 13.234C115.25 12.772 114.755 12.5466 114.165 12.5466H104.937V14.655H114.357V17.5936H107.099C106.484 17.5936 105.975 17.819 105.544 18.2824C105.137 18.7416 104.937 19.275 104.937 19.9092V22.4334C104.937 23.0942 105.137 23.6402 105.548 24.1036C105.972 24.5348 106.483 24.7476 107.1 24.7476Z" fill="white"/>
<path d="M130.309 24.7476V14.8622C130.309 14.2308 130.098 13.6988 129.666 13.2354C129.233 12.772 128.736 12.5466 128.146 12.5466H118.92V24.749H120.887V14.655H128.341V24.749H130.309V24.7476Z" fill="white"/>
<path d="M143.164 12.5466H135.005C134.392 12.5466 133.883 12.7706 133.451 13.2326C133.043 13.696 132.844 14.2294 132.844 14.8622V22.3564L132.848 22.4684C132.855 23.1166 133.054 23.65 133.454 24.1022C133.879 24.5348 134.389 24.7476 135.006 24.7476H143.165V22.6392H134.811L134.812 14.6522H143.165V12.5466H143.164Z" fill="white"/>
<path d="M147.569 14.655H155.022V17.5936H147.569V14.655ZM156.989 19.7006V14.8608C156.989 14.2294 156.779 13.6974 156.346 13.234C155.913 12.7706 155.416 12.5466 154.827 12.5466H147.762C147.147 12.5466 146.637 12.7706 146.205 13.234C145.8 13.6946 145.6 14.228 145.6 14.8608V22.355L145.605 22.467C145.611 23.1152 145.809 23.65 146.209 24.1022C146.634 24.5334 147.146 24.7476 147.763 24.7476H156.989V22.6392H147.569V19.7006H156.989Z" fill="white"/>
<path d="M109.955 37.0467C109.955 36.7135 109.915 36.4041 109.834 36.1171C109.755 35.8315 109.63 35.5837 109.458 35.3737C109.286 35.1637 109.069 35.0013 108.805 34.8837C108.543 34.7675 108.203 34.7073 107.789 34.7073H106.978V39.4953H107.799C108.181 39.4953 108.505 39.4463 108.767 39.3483C109.03 39.2503 109.25 39.0991 109.426 38.8961C109.601 38.6931 109.735 38.4397 109.822 38.1331C109.911 37.8265 109.955 37.4653 109.955 37.0467ZM110.794 37.0131C110.794 37.5451 110.727 38.0099 110.595 38.4089C110.462 38.8065 110.267 39.1355 110.013 39.3973C109.759 39.6591 109.445 39.8537 109.075 39.9839C108.704 40.1141 108.263 40.1799 107.75 40.1799H106.479C106.408 40.1799 106.341 40.1547 106.277 40.1057C106.214 40.0567 106.181 39.9713 106.181 39.8467V34.3601C106.181 34.2369 106.214 34.1501 106.277 34.1011C106.341 34.0521 106.408 34.0269 106.479 34.0269H107.837C108.356 34.0269 108.794 34.0969 109.153 34.2341C109.512 34.3727 109.813 34.5715 110.056 34.8291C110.299 35.0881 110.482 35.4003 110.607 35.7671C110.731 36.1353 110.794 36.5497 110.794 37.0131Z" fill="white"/>
<path d="M114.316 38.1105H113.663C113.452 38.1105 113.271 38.1287 113.115 38.1651C112.961 38.2029 112.832 38.2561 112.731 38.3275C112.629 38.3975 112.554 38.4843 112.506 38.5837C112.458 38.6845 112.435 38.7993 112.435 38.9295C112.435 39.1507 112.503 39.3271 112.641 39.4601C112.779 39.5917 112.97 39.6575 113.219 39.6575C113.42 39.6575 113.605 39.6057 113.777 39.5007C113.949 39.3971 114.128 39.2361 114.316 39.0205V38.1105ZM115.078 40.0649C115.078 40.1027 115.066 40.1321 115.041 40.1503C115.017 40.1685 114.984 40.1839 114.94 40.1937C114.897 40.2021 114.834 40.2077 114.749 40.2077C114.67 40.2077 114.606 40.2021 114.557 40.1937C114.509 40.1839 114.475 40.1685 114.453 40.1503C114.431 40.1321 114.42 40.1027 114.42 40.0649V39.6365C114.237 39.8367 114.035 39.9921 113.81 40.1027C113.586 40.2133 113.349 40.2693 113.099 40.2693C112.879 40.2693 112.681 40.2399 112.503 40.1811C112.325 40.1223 112.174 40.0369 112.049 39.9277C111.925 39.8157 111.826 39.6799 111.758 39.5189C111.688 39.3565 111.653 39.1731 111.653 38.9659C111.653 38.7251 111.701 38.5165 111.796 38.3387C111.893 38.1609 112.03 38.0125 112.21 37.8949C112.389 37.7787 112.609 37.6905 112.868 37.6317C113.127 37.5729 113.42 37.5435 113.743 37.5435H114.318V37.2117C114.318 37.0465 114.301 36.9009 114.267 36.7749C114.233 36.6475 114.179 36.5425 114.104 36.4585C114.027 36.3745 113.93 36.3115 113.809 36.2695C113.688 36.2261 113.541 36.2051 113.364 36.2051C113.175 36.2051 113.005 36.2275 112.856 36.2751C112.706 36.3213 112.574 36.3717 112.463 36.4263C112.351 36.4823 112.256 36.5327 112.18 36.5789C112.103 36.6251 112.047 36.6489 112.011 36.6489C111.985 36.6489 111.963 36.6433 111.945 36.6307C111.927 36.6167 111.91 36.5985 111.897 36.5719C111.882 36.5467 111.873 36.5145 111.867 36.4753C111.862 36.4361 111.858 36.3927 111.858 36.3437C111.858 36.2639 111.863 36.2023 111.874 36.1561C111.884 36.1085 111.911 36.0651 111.953 36.0245C111.994 35.9839 112.067 35.9349 112.168 35.8803C112.27 35.8243 112.387 35.7739 112.52 35.7277C112.652 35.6815 112.797 35.6437 112.955 35.6143C113.112 35.5849 113.272 35.5681 113.432 35.5681C113.732 35.5681 113.987 35.6045 114.198 35.6731C114.408 35.7431 114.577 35.8453 114.707 35.9797C114.837 36.1141 114.931 36.2807 114.99 36.4809C115.048 36.6797 115.078 36.9135 115.078 37.1795V40.0649Z" fill="white"/>
<path d="M118.565 39.7458C118.565 39.8368 118.56 39.911 118.547 39.9656C118.534 40.0188 118.516 40.058 118.491 40.0846C118.465 40.1098 118.429 40.1336 118.379 40.1546C118.33 40.1756 118.273 40.1952 118.21 40.2092C118.146 40.2246 118.079 40.2358 118.008 40.2456C117.937 40.2554 117.867 40.261 117.795 40.261C117.578 40.261 117.392 40.2316 117.237 40.1728C117.082 40.114 116.957 40.0258 116.857 39.9068C116.757 39.7878 116.685 39.6366 116.641 39.4546C116.596 39.2726 116.573 39.057 116.573 38.8106V36.3102H115.99C115.942 36.3102 115.907 36.2836 115.88 36.2332C115.852 36.1828 115.837 36.1002 115.837 35.9868C115.837 35.9266 115.841 35.8748 115.85 35.8342C115.856 35.7922 115.866 35.7586 115.88 35.732C115.892 35.7054 115.907 35.6858 115.927 35.6746C115.948 35.6634 115.97 35.6592 115.996 35.6592H116.575V34.6414C116.575 34.619 116.58 34.5994 116.591 34.5798C116.602 34.5616 116.622 34.5434 116.651 34.5308C116.68 34.5154 116.719 34.5056 116.77 34.5C116.819 34.4944 116.88 34.4902 116.954 34.4902C117.032 34.4902 117.095 34.4944 117.145 34.5C117.194 34.5056 117.234 34.5154 117.261 34.5308C117.289 34.5448 117.308 34.5616 117.321 34.5798C117.334 34.5994 117.339 34.619 117.339 34.6414V35.6592H118.411C118.437 35.6592 118.457 35.6648 118.476 35.6746C118.495 35.6844 118.51 35.704 118.524 35.732C118.538 35.7586 118.549 35.7922 118.554 35.8342C118.56 35.8748 118.564 35.9252 118.564 35.9868C118.564 36.1002 118.549 36.1828 118.521 36.2332C118.494 36.2836 118.457 36.3102 118.411 36.3102H117.339V38.6972C117.339 38.9926 117.381 39.2138 117.466 39.365C117.552 39.5162 117.704 39.5904 117.923 39.5904C117.994 39.5904 118.059 39.5848 118.115 39.5694C118.17 39.5554 118.22 39.54 118.262 39.5246C118.306 39.5092 118.343 39.4938 118.374 39.4784C118.404 39.4644 118.431 39.4574 118.457 39.4574C118.472 39.4574 118.486 39.4616 118.501 39.4686C118.515 39.477 118.525 39.4924 118.532 39.5148C118.54 39.5372 118.549 39.5666 118.554 39.6058C118.561 39.6422 118.565 39.6898 118.565 39.7458Z" fill="white"/>
<path d="M121.842 38.1105H121.188C120.977 38.1105 120.796 38.1287 120.64 38.1651C120.486 38.2029 120.358 38.2561 120.257 38.3275C120.154 38.3975 120.079 38.4843 120.031 38.5837C119.985 38.6845 119.96 38.7993 119.96 38.9295C119.96 39.1507 120.029 39.3271 120.166 39.4601C120.304 39.5917 120.495 39.6575 120.744 39.6575C120.945 39.6575 121.13 39.6057 121.302 39.5007C121.474 39.3971 121.653 39.2361 121.842 39.0205V38.1105ZM122.602 40.0649C122.602 40.1027 122.59 40.1321 122.565 40.1503C122.541 40.1685 122.508 40.1839 122.464 40.1937C122.42 40.2021 122.358 40.2077 122.273 40.2077C122.194 40.2077 122.13 40.2021 122.08 40.1937C122.033 40.1839 121.999 40.1685 121.977 40.1503C121.955 40.1321 121.944 40.1027 121.944 40.0649V39.6365C121.761 39.8367 121.559 39.9921 121.334 40.1027C121.11 40.2133 120.872 40.2693 120.622 40.2693C120.403 40.2693 120.205 40.2399 120.027 40.1811C119.848 40.1223 119.698 40.0369 119.573 39.9277C119.448 39.8157 119.35 39.6799 119.28 39.5189C119.212 39.3565 119.177 39.1731 119.177 38.9659C119.177 38.7251 119.224 38.5165 119.32 38.3387C119.416 38.1609 119.553 38.0125 119.734 37.8949C119.913 37.7787 120.132 37.6905 120.392 37.6317C120.651 37.5729 120.943 37.5435 121.267 37.5435H121.842V37.2117C121.842 37.0465 121.825 36.9009 121.791 36.7749C121.757 36.6475 121.702 36.5425 121.627 36.4585C121.551 36.3745 121.454 36.3115 121.332 36.2695C121.212 36.2261 121.065 36.2051 120.887 36.2051C120.699 36.2051 120.528 36.2275 120.379 36.2751C120.229 36.3213 120.098 36.3717 119.986 36.4263C119.874 36.4823 119.78 36.5327 119.704 36.5789C119.627 36.6251 119.571 36.6489 119.534 36.6489C119.508 36.6489 119.488 36.6433 119.469 36.6307C119.451 36.6167 119.433 36.5985 119.421 36.5719C119.406 36.5467 119.396 36.5145 119.391 36.4753C119.386 36.4361 119.381 36.3927 119.381 36.3437C119.381 36.2639 119.387 36.2023 119.396 36.1561C119.407 36.1085 119.433 36.0651 119.476 36.0245C119.517 35.9839 119.589 35.9349 119.69 35.8803C119.792 35.8243 119.91 35.7739 120.042 35.7277C120.175 35.6815 120.319 35.6437 120.478 35.6143C120.635 35.5849 120.794 35.5681 120.954 35.5681C121.253 35.5681 121.51 35.6045 121.72 35.6731C121.93 35.7431 122.1 35.8453 122.229 35.9797C122.359 36.1141 122.453 36.2807 122.512 36.4809C122.571 36.6797 122.601 36.9135 122.601 37.1795V40.0649H122.602Z" fill="white"/>
<path d="M129.464 38.4537C129.464 38.7421 129.412 38.9983 129.308 39.2237C129.206 39.4491 129.062 39.6395 128.877 39.7963C128.694 39.9531 128.477 40.0721 128.228 40.1505C127.98 40.2303 127.711 40.2695 127.424 40.2695C127.223 40.2695 127.036 40.2527 126.864 40.2177C126.692 40.1827 126.541 40.1407 126.405 40.0903C126.272 40.0399 126.16 39.9867 126.067 39.9335C125.977 39.8789 125.913 39.8327 125.877 39.7963C125.84 39.7585 125.814 39.7095 125.798 39.6507C125.782 39.5919 125.772 39.5149 125.772 39.4155C125.772 39.3455 125.776 39.2881 125.782 39.2419C125.787 39.1957 125.797 39.1593 125.809 39.1299C125.821 39.1019 125.836 39.0823 125.855 39.0711C125.874 39.0599 125.896 39.0557 125.921 39.0557C125.965 39.0557 126.025 39.0823 126.104 39.1355C126.183 39.1887 126.284 39.2475 126.407 39.3119C126.531 39.3749 126.68 39.4351 126.855 39.4897C127.028 39.5457 127.23 39.5723 127.459 39.5723C127.631 39.5723 127.79 39.5485 127.935 39.5023C128.078 39.4533 128.201 39.3875 128.306 39.2993C128.41 39.2125 128.489 39.1061 128.545 38.9787C128.601 38.8527 128.628 38.7085 128.628 38.5461C128.628 38.3711 128.59 38.2227 128.512 38.0995C128.434 37.9763 128.333 37.8685 128.206 37.7733C128.079 37.6809 127.935 37.5955 127.772 37.5171C127.61 37.4387 127.443 37.3603 127.274 37.2791C127.103 37.1993 126.938 37.1083 126.777 37.0103C126.616 36.9123 126.472 36.7961 126.345 36.6631C126.218 36.5287 126.116 36.3733 126.037 36.1955C125.959 36.0163 125.918 35.8021 125.918 35.5515C125.918 35.2939 125.965 35.0643 126.055 34.8641C126.146 34.6625 126.273 34.4945 126.436 34.3573C126.598 34.2215 126.79 34.1165 127.016 34.0465C127.241 33.9751 127.481 33.9387 127.742 33.9387C127.874 33.9387 128.008 33.9513 128.143 33.9751C128.277 33.9989 128.404 34.0311 128.524 34.0703C128.643 34.1095 128.75 34.1543 128.842 34.2033C128.934 34.2523 128.995 34.2929 129.025 34.3223C129.055 34.3517 129.074 34.3769 129.083 34.3937C129.092 34.4105 129.099 34.4329 129.106 34.4595C129.113 34.4861 129.117 34.5197 129.121 34.5575C129.124 34.5953 129.126 34.6457 129.126 34.7045C129.126 34.7619 129.124 34.8123 129.12 34.8571C129.114 34.9019 129.107 34.9383 129.099 34.9691C129.089 34.9999 129.076 35.0209 129.059 35.0363C129.043 35.0517 129.023 35.0573 129.002 35.0573C128.968 35.0573 128.915 35.0349 128.842 34.9901C128.77 34.9467 128.68 34.8963 128.576 34.8417C128.471 34.7857 128.347 34.7353 128.203 34.6891C128.06 34.6429 127.898 34.6191 127.719 34.6191C127.552 34.6191 127.406 34.6429 127.283 34.6891C127.16 34.7353 127.058 34.7955 126.978 34.8725C126.897 34.9481 126.837 35.0391 126.796 35.1427C126.756 35.2477 126.736 35.3583 126.736 35.4759C126.736 35.6467 126.774 35.7937 126.852 35.9183C126.93 36.0415 127.032 36.1507 127.16 36.2459C127.289 36.3411 127.435 36.4279 127.599 36.5077C127.763 36.5875 127.929 36.6673 128.098 36.7485C128.269 36.8283 128.436 36.9179 128.599 37.0145C128.763 37.1111 128.909 37.2245 129.038 37.3561C129.166 37.4891 129.27 37.6431 129.348 37.8223C129.424 37.9973 129.464 38.2101 129.464 38.4537Z" fill="white"/>
<path d="M134.09 40.0609C134.09 40.0875 134.085 40.1085 134.075 40.1253C134.064 40.1421 134.045 40.1575 134.018 40.1701C133.991 40.1841 133.952 40.1925 133.909 40.1981C133.865 40.2037 133.809 40.2079 133.745 40.2079C133.674 40.2079 133.615 40.2037 133.572 40.1981C133.528 40.1925 133.492 40.1827 133.465 40.1701C133.439 40.1575 133.42 40.1435 133.412 40.1253C133.402 40.1085 133.397 40.0875 133.397 40.0609V39.4953C133.159 39.7655 132.924 39.9615 132.692 40.0847C132.46 40.2079 132.225 40.2709 131.986 40.2709C131.709 40.2709 131.475 40.2233 131.285 40.1281C131.094 40.0329 130.941 39.9041 130.823 39.7403C130.705 39.5765 130.621 39.3861 130.569 39.1691C130.519 38.9521 130.493 38.6889 130.493 38.3781V35.7825C130.493 35.7573 130.498 35.7349 130.509 35.7181C130.519 35.7013 130.541 35.6845 130.571 35.6705C130.602 35.6551 130.642 35.6467 130.691 35.6425C130.74 35.6369 130.801 35.6355 130.877 35.6355C130.95 35.6355 131.012 35.6383 131.061 35.6425C131.11 35.6481 131.15 35.6565 131.18 35.6705C131.208 35.6845 131.23 35.6999 131.242 35.7181C131.255 35.7363 131.26 35.7573 131.26 35.7825V38.2745C131.26 38.5251 131.278 38.7253 131.313 38.8751C131.35 39.0263 131.404 39.1537 131.476 39.2601C131.548 39.3665 131.64 39.4477 131.752 39.5079C131.862 39.5667 131.993 39.5961 132.142 39.5961C132.333 39.5961 132.524 39.5261 132.714 39.3875C132.904 39.2475 133.106 39.0431 133.319 38.7743V35.7839C133.319 35.7587 133.324 35.7363 133.334 35.7195C133.345 35.7027 133.365 35.6859 133.397 35.6719C133.428 35.6565 133.466 35.6481 133.516 35.6439C133.563 35.6383 133.625 35.6369 133.703 35.6369C133.778 35.6369 133.839 35.6397 133.888 35.6439C133.937 35.6495 133.977 35.6579 134.004 35.6719C134.032 35.6859 134.052 35.7013 134.067 35.7195C134.081 35.7363 134.088 35.7587 134.088 35.7839V40.0609H134.09Z" fill="white"/>
<path d="M138.55 37.9453C138.55 37.7255 138.534 37.5141 138.501 37.3097C138.469 37.1053 138.413 36.9247 138.333 36.7665C138.254 36.6083 138.148 36.4823 138.014 36.3857C137.88 36.2905 137.714 36.2429 137.514 36.2429C137.415 36.2429 137.316 36.2583 137.221 36.2877C137.124 36.3171 137.027 36.3661 136.926 36.4305C136.826 36.4963 136.722 36.5817 136.615 36.6881C136.505 36.7931 136.389 36.9247 136.269 37.0801V38.7825C136.481 39.0457 136.681 39.2459 136.871 39.3859C137.061 39.5259 137.26 39.5945 137.468 39.5945C137.662 39.5945 137.827 39.5469 137.965 39.4517C138.103 39.3565 138.215 39.2305 138.301 39.0709C138.387 38.9127 138.449 38.7335 138.49 38.5389C138.53 38.3429 138.55 38.1441 138.55 37.9453ZM139.342 37.8543C139.342 38.2281 139.303 38.5641 139.224 38.8623C139.146 39.1591 139.03 39.4125 138.875 39.6197C138.724 39.8283 138.534 39.9879 138.307 40.0999C138.082 40.2119 137.823 40.2679 137.533 40.2679C137.409 40.2679 137.296 40.2553 137.191 40.2301C137.086 40.2049 136.983 40.1657 136.882 40.1111C136.781 40.0579 136.681 39.9893 136.583 39.9067C136.484 39.8255 136.38 39.7289 136.268 39.6169V41.7575C136.268 41.7827 136.262 41.8051 136.25 41.8233C136.236 41.8429 136.217 41.8597 136.19 41.8709C136.163 41.8821 136.123 41.8933 136.074 41.8989C136.025 41.9045 135.961 41.9073 135.883 41.9073C135.809 41.9073 135.748 41.9045 135.699 41.8989C135.649 41.8933 135.61 41.8835 135.58 41.8709C135.55 41.8583 135.531 41.8429 135.52 41.8233C135.509 41.8051 135.503 41.7827 135.503 41.7575V35.7809C135.503 35.7529 135.509 35.7305 135.518 35.7123C135.528 35.6941 135.546 35.6787 135.574 35.6661C135.602 35.6535 135.638 35.6451 135.681 35.6395C135.724 35.6339 135.778 35.6325 135.839 35.6325C135.905 35.6325 135.958 35.6353 135.999 35.6395C136.041 35.6451 136.077 35.6535 136.104 35.6661C136.131 35.6787 136.15 35.6927 136.161 35.7123C136.172 35.7291 136.176 35.7515 136.176 35.7809V36.3563C136.303 36.2219 136.425 36.1071 136.542 36.0091C136.661 35.9097 136.778 35.8285 136.897 35.7641C137.017 35.6983 137.139 35.6507 137.263 35.6171C137.389 35.5835 137.52 35.5681 137.659 35.5681C137.962 35.5681 138.22 35.6269 138.434 35.7473C138.647 35.8691 138.821 36.0329 138.955 36.2429C139.09 36.4515 139.188 36.6951 139.249 36.9723C139.311 37.2495 139.342 37.5435 139.342 37.8543Z" fill="white"/>
<path d="M143.539 37.9453C143.539 37.7255 143.523 37.5141 143.49 37.3097C143.457 37.1053 143.401 36.9247 143.322 36.7665C143.244 36.6083 143.136 36.4823 143.002 36.3857C142.869 36.2905 142.702 36.2429 142.503 36.2429C142.403 36.2429 142.305 36.2583 142.209 36.2877C142.112 36.3171 142.015 36.3661 141.914 36.4305C141.815 36.4963 141.711 36.5817 141.603 36.6881C141.494 36.7931 141.378 36.9247 141.258 37.0801V38.7825C141.469 39.0457 141.67 39.2459 141.86 39.3859C142.05 39.5259 142.249 39.5945 142.456 39.5945C142.65 39.5945 142.815 39.5469 142.953 39.4517C143.091 39.3565 143.203 39.2305 143.289 39.0709C143.375 38.9127 143.438 38.7335 143.479 38.5389C143.518 38.3429 143.539 38.1441 143.539 37.9453ZM144.331 37.8543C144.331 38.2281 144.291 38.5641 144.212 38.8623C144.134 39.1591 144.018 39.4125 143.864 39.6197C143.712 39.8283 143.523 39.9879 143.296 40.0999C143.071 40.2119 142.811 40.2679 142.522 40.2679C142.399 40.2679 142.284 40.2553 142.179 40.2301C142.074 40.2049 141.972 40.1657 141.871 40.1111C141.77 40.0579 141.67 39.9893 141.572 39.9067C141.472 39.8255 141.368 39.7289 141.256 39.6169V41.7575C141.256 41.7827 141.251 41.8051 141.239 41.8233C141.225 41.8429 141.206 41.8597 141.178 41.8709C141.151 41.8835 141.112 41.8933 141.062 41.8989C141.013 41.9045 140.949 41.9073 140.871 41.9073C140.798 41.9073 140.736 41.9045 140.687 41.8989C140.638 41.8933 140.598 41.8835 140.568 41.8709C140.538 41.8583 140.519 41.8429 140.508 41.8233C140.497 41.8051 140.492 41.7827 140.492 41.7575V35.7809C140.492 35.7529 140.497 35.7305 140.507 35.7123C140.516 35.6941 140.534 35.6787 140.563 35.6661C140.59 35.6535 140.627 35.6451 140.669 35.6395C140.713 35.6339 140.766 35.6325 140.828 35.6325C140.893 35.6325 140.946 35.6353 140.987 35.6395C141.03 35.6451 141.065 35.6535 141.092 35.6661C141.12 35.6787 141.139 35.6927 141.15 35.7123C141.161 35.7291 141.165 35.7515 141.165 35.7809V36.3563C141.292 36.2219 141.413 36.1071 141.531 36.0091C141.649 35.9097 141.767 35.8285 141.886 35.7641C142.006 35.6983 142.127 35.6507 142.252 35.6171C142.377 35.5835 142.508 35.5681 142.647 35.5681C142.951 35.5681 143.209 35.6269 143.423 35.7473C143.636 35.8691 143.809 36.0329 143.943 36.2429C144.078 36.4515 144.177 36.6951 144.238 36.9723C144.299 37.2495 144.331 37.5435 144.331 37.8543Z" fill="white"/>
<path d="M146.245 40.0609C146.245 40.0875 146.239 40.1085 146.227 40.1253C146.213 40.1421 146.194 40.1575 146.167 40.1701C146.14 40.1841 146.1 40.1925 146.051 40.1981C146.002 40.2037 145.938 40.2079 145.86 40.2079C145.786 40.2079 145.725 40.2037 145.676 40.1981C145.626 40.1925 145.587 40.1827 145.557 40.1701C145.528 40.1575 145.508 40.1435 145.497 40.1253C145.486 40.1085 145.482 40.0875 145.482 40.0609V33.7091C145.482 33.6839 145.487 33.6615 145.497 33.6433C145.508 33.6237 145.528 33.6069 145.557 33.5957C145.585 33.5845 145.625 33.5733 145.676 33.5677C145.725 33.5621 145.786 33.5593 145.86 33.5593C145.938 33.5593 146 33.5621 146.051 33.5677C146.1 33.5733 146.14 33.5831 146.167 33.5957C146.194 33.6083 146.213 33.6237 146.227 33.6433C146.239 33.6615 146.245 33.6839 146.245 33.7091V40.0609Z" fill="white"/>
<path d="M148.424 40.0609C148.424 40.0861 148.418 40.1085 148.406 40.1253C148.392 40.1421 148.373 40.1575 148.346 40.1701C148.319 40.1827 148.279 40.1925 148.23 40.1981C148.181 40.2037 148.117 40.2079 148.039 40.2079C147.965 40.2079 147.904 40.2037 147.854 40.1981C147.805 40.1925 147.766 40.1827 147.736 40.1701C147.707 40.1575 147.686 40.1435 147.676 40.1253C147.665 40.1085 147.661 40.0861 147.661 40.0609V35.7825C147.661 35.7601 147.666 35.7391 147.676 35.7209C147.686 35.7027 147.707 35.6859 147.736 35.6733C147.764 35.6593 147.804 35.6509 147.854 35.6453C147.904 35.6397 147.965 35.6355 148.039 35.6355C148.117 35.6355 148.181 35.6397 148.23 35.6453C148.279 35.6509 148.319 35.6607 148.346 35.6733C148.373 35.6859 148.392 35.7013 148.406 35.7209C148.418 35.7391 148.424 35.7601 148.424 35.7825V40.0609ZM148.512 34.3363C148.512 34.5197 148.478 34.6457 148.411 34.7115C148.343 34.7787 148.218 34.8123 148.036 34.8123C147.856 34.8123 147.733 34.7801 147.666 34.7143C147.599 34.6499 147.566 34.5267 147.566 34.3461C147.566 34.1613 147.6 34.0367 147.667 33.9695C147.736 33.9037 147.861 33.8701 148.043 33.8701C148.223 33.8701 148.345 33.9023 148.413 33.9667C148.478 34.0339 148.512 34.1557 148.512 34.3363Z" fill="white"/>
<path d="M152.629 37.503C152.637 37.09 152.548 36.768 152.361 36.5328C152.173 36.2976 151.894 36.1814 151.523 36.1814C151.333 36.1814 151.166 36.2178 151.024 36.2906C150.882 36.3634 150.761 36.46 150.664 36.5804C150.568 36.7008 150.493 36.8422 150.44 37.0018C150.387 37.1614 150.358 37.3294 150.351 37.503H152.629ZM153.399 37.7354C153.399 37.8586 153.369 37.9468 153.308 37.9986C153.248 38.0504 153.179 38.077 153.101 38.077H150.354C150.354 38.315 150.377 38.5292 150.424 38.7196C150.47 38.9086 150.547 39.0724 150.657 39.2082C150.765 39.344 150.906 39.449 151.08 39.5218C151.255 39.5946 151.468 39.6324 151.719 39.6324C151.919 39.6324 152.095 39.6156 152.25 39.582C152.406 39.5484 152.54 39.512 152.653 39.47C152.766 39.4294 152.861 39.3916 152.933 39.358C153.007 39.3244 153.061 39.309 153.098 39.309C153.12 39.309 153.139 39.3146 153.156 39.3244C153.173 39.3356 153.186 39.351 153.195 39.3734C153.205 39.3958 153.212 39.4266 153.216 39.4658C153.221 39.505 153.222 39.554 153.222 39.61C153.222 39.652 153.221 39.687 153.217 39.7178C153.214 39.7472 153.212 39.7752 153.206 39.7976C153.201 39.8214 153.192 39.8424 153.183 39.862C153.172 39.8802 153.157 39.8998 153.141 39.9166C153.124 39.9334 153.072 39.9628 152.989 40.002C152.906 40.0412 152.798 40.0804 152.664 40.1182C152.532 40.156 152.377 40.1896 152.204 40.2204C152.029 40.2498 151.844 40.2652 151.644 40.2652C151.302 40.2652 151.001 40.2162 150.742 40.1182C150.485 40.0202 150.267 39.8746 150.091 39.6814C149.915 39.4882 149.782 39.246 149.692 38.9548C149.603 38.6622 149.558 38.3234 149.558 37.937C149.558 37.5688 149.605 37.2384 149.697 36.9458C149.789 36.6518 149.923 36.404 150.099 36.1996C150.272 35.9952 150.484 35.8384 150.732 35.7292C150.978 35.62 151.257 35.564 151.562 35.564C151.89 35.564 152.169 35.6186 152.399 35.7264C152.629 35.8342 152.818 35.9784 152.967 36.1604C153.116 36.3424 153.224 36.5566 153.295 36.803C153.363 37.048 153.399 37.3112 153.399 37.5898V37.7354Z" fill="white"/>
<path d="M157 36.0624C157 36.1324 156.999 36.1912 156.995 36.2388C156.992 36.2864 156.985 36.3242 156.977 36.3508C156.967 36.3774 156.956 36.3984 156.941 36.4124C156.926 36.4278 156.907 36.4334 156.884 36.4334C156.859 36.4334 156.829 36.4278 156.794 36.4124C156.758 36.3984 156.717 36.3844 156.674 36.3704C156.629 36.355 156.58 36.3424 156.524 36.3298C156.468 36.3172 156.408 36.3116 156.342 36.3116C156.264 36.3116 156.189 36.327 156.115 36.3592C156.04 36.3914 155.964 36.4432 155.881 36.516C155.799 36.5888 155.713 36.6854 155.624 36.8058C155.535 36.9262 155.435 37.0732 155.326 37.2482V40.0622C155.326 40.0888 155.321 40.1098 155.308 40.1266C155.296 40.1434 155.276 40.1588 155.248 40.1728C155.221 40.1854 155.182 40.1952 155.132 40.2008C155.083 40.2064 155.019 40.2092 154.943 40.2092C154.868 40.2092 154.806 40.2064 154.757 40.2008C154.708 40.1952 154.668 40.1854 154.638 40.1728C154.61 40.1588 154.589 40.1448 154.578 40.1266C154.567 40.1098 154.563 40.0888 154.563 40.0622V35.7852C154.563 35.7586 154.569 35.7376 154.577 35.7208C154.586 35.704 154.604 35.6872 154.633 35.6732C154.66 35.6592 154.697 35.6494 154.741 35.6452C154.783 35.6396 154.84 35.6382 154.913 35.6382C154.981 35.6382 155.037 35.641 155.082 35.6452C155.127 35.6494 155.161 35.6606 155.186 35.6732C155.212 35.6886 155.228 35.704 155.239 35.7208C155.25 35.7376 155.255 35.7586 155.255 35.7852V36.4068C155.369 36.236 155.476 36.0974 155.577 35.9896C155.677 35.8818 155.771 35.7964 155.863 35.7348C155.952 35.6732 156.04 35.6312 156.129 35.6074C156.218 35.5822 156.306 35.571 156.395 35.571C156.435 35.571 156.481 35.5738 156.532 35.578C156.584 35.5822 156.637 35.5906 156.693 35.6046C156.749 35.6172 156.798 35.6312 156.844 35.6466C156.889 35.662 156.921 35.6788 156.939 35.6942C156.958 35.7096 156.97 35.7236 156.975 35.739C156.981 35.7544 156.988 35.7712 156.99 35.7936C156.996 35.816 156.999 35.8482 157 35.8916C156.999 35.9308 157 35.9896 157 36.0624Z" fill="white"/>
</g>
<defs>
<clipPath id="clip0_375_8290">
<rect width="157" height="42" fill="white"/>
</clipPath>
</defs>
</svg>
