<svg width="80" height="69" viewBox="0 0 80 69" fill="none" xmlns="http://www.w3.org/2000/svg">
<g clip-path="url(#clip0_3301_229161)">
<path d="M46.7773 35.7703C46.7773 35.7703 47.3796 31.6879 48.629 28.9791C50.0436 25.9121 51.1759 25.2236 52.2876 28.2836C53.3993 31.3437 53.0035 33.4648 53.0035 33.4648C53.0035 33.4648 53.0998 30.7838 51.9709 28.7218C51.0692 27.0701 50.4807 27.0701 49.1728 29.4729C48.1299 31.4097 46.7773 35.7703 46.7773 35.7703Z" fill="#FAFAFA"/>
<path d="M61.8164 33.9002C61.8164 33.9002 61.8164 31.3861 62.2294 29.9117C62.2858 29.6916 62.3654 29.4783 62.4669 29.2754C63.1002 28.0722 63.5579 28.7677 63.6164 29.0146C63.7314 29.7802 63.7946 30.5527 63.8057 31.327C63.8057 31.327 63.5958 29.7761 63.1965 29.5883C62.4738 29.2615 61.8164 33.9002 61.8164 33.9002Z" fill="#FAFAFA"/>
<path d="M31.0515 26.3337C28.0847 26.445 17.2638 26.7266 15.6118 26.7545C7.96765 26.8831 3.44175 25.7321 3.44175 25.7321C4.72862 24.7801 6.13627 24.007 7.62691 23.4336C10.2805 22.3731 18.9847 20.4258 18.9847 20.4258C18.9847 20.4258 11.3578 20.8083 6.09189 23.298C0.82602 25.7878 1.63483 26.0277 1.19773 27.3352C0.68835 28.9 0 31.6157 0 31.6157C0 31.6157 0.967131 29.7171 1.65892 29.7449C2.35071 29.7728 28.7971 29.9988 32.5108 30.0127C36.2244 30.0266 38.9675 29.8806 41.2941 29.1781C43.6207 28.4757 45.7684 25.4679 45.7684 25.4679C45.7684 25.4679 38.1415 26.0799 31.0515 26.3337ZM39.6937 28.9591C38.1724 29.199 29.3203 29.4737 29.3203 29.4737C29.6151 28.9497 29.8716 28.4047 30.0878 27.8429C30.2347 27.4913 30.3499 27.127 30.4319 26.7545V28.3784C30.4319 28.3784 37.7594 28.7261 39.3013 28.5835C40.8432 28.4409 42.571 28.1141 42.571 28.1141C41.6468 28.5054 40.6815 28.7889 39.6937 28.9591Z" fill="#FAFAFA"/>
<path d="M42.3857 13.4677C45.504 13.4851 50.8937 14.5317 50.8937 14.5317C50.4664 15.2484 50.1408 16.0221 49.9266 16.8302C49.659 18.0237 49.4727 19.2343 49.369 20.4536L42.7884 19.5147L38.1524 21.6985L41.3016 19.473L36.0805 19.5008C34.0636 19.5008 21.5391 20.231 21.5391 20.231C21.5391 20.231 25.676 16.9763 27.5346 15.8879C29.3613 15.1261 31.2592 14.5518 33.1997 14.1736C36.1803 13.6242 38.4484 13.3008 38.4484 13.3008C38.4484 13.3008 34.9756 14.1353 33.4062 14.7369C31.8368 15.3385 29.3174 16.0687 29.3174 16.0687C29.3174 16.0687 38.4484 13.4503 42.3857 13.4677Z" fill="#FAFAFA"/>
<path d="M50.6797 20.9676C50.6797 20.9676 51.1065 17.0557 51.4162 15.9638C51.726 14.8719 52.5933 15.47 53.2679 15.7865C53.9425 16.1029 56.5961 18.2936 57.9521 19.9314C59.26 21.5136 60.7812 23.4261 60.7812 23.4261L53.5157 21.451C53.5157 21.451 54.4484 21.1415 55.006 21.0302C55.7322 20.8842 55.4052 19.0342 55.006 19.1003C54.4381 19.1977 52.2801 19.5106 51.8086 20.0635C51.6709 20.2196 51.5732 20.4074 51.524 20.6105C51.4748 20.8136 51.4756 21.0257 51.5264 21.2284L50.6797 20.9676Z" fill="#FAFAFA"/>
<path d="M40.9355 13.088C40.9355 13.088 49.2956 11.9961 53.3052 13.3835C54.6819 13.8599 60.316 20.2755 61.8166 22.0768C62.9352 23.4225 63.6717 23.4294 63.6717 23.4294V24.7369C63.6717 24.7369 64.7834 25.568 65.1827 25.8775C65.5819 26.1869 66.5594 27.0667 66.5594 27.0667V30.3423L66.2393 27.4109C65.7811 27.0122 65.2995 26.6418 64.7972 26.3017C63.627 25.488 63.0488 24.9907 63.0488 24.9907L60.6396 25.109L63.0488 24.4587L62.9799 23.9024C62.9799 23.9024 55.1293 15.2647 53.3431 14.0964C51.5568 12.928 40.9355 13.088 40.9355 13.088Z" fill="#FAFAFA"/>
<path d="M21.7891 12.6712C21.7891 12.6712 26.401 9.36433 29.6259 7.77868C32.0701 6.63724 34.5763 5.6365 37.1324 4.78125V7.69175C37.1324 7.69175 33.9625 8.47762 31.185 9.49646C28.4075 10.5153 23.1279 12.6712 23.1279 12.6712H21.7891Z" fill="#FAFAFA"/>
<path d="M37.7148 4.52174V11.6502L39.3566 6.90021C39.3566 6.90021 43.9754 5.88136 47.7062 5.89875C50.0457 5.92798 52.3807 6.11151 54.6964 6.44816L57.6976 2.82482C54.7317 2.25628 51.7067 2.06702 48.694 2.26149C41.3562 2.78309 37.7148 4.52174 37.7148 4.52174Z" fill="#FAFAFA"/>
<path d="M59.1439 3.05273L51.252 12.6709L57.6983 7.45499C59.8834 8.11071 61.9226 9.18632 63.7042 10.6228C65.731 12.3234 67.365 14.4514 68.4917 16.8576L73.94 14.1418C72.7414 11.2282 70.7286 8.73055 68.1475 6.95426C64.131 4.15156 59.1439 3.05273 59.1439 3.05273Z" fill="#FAFAFA"/>
<path d="M74.2662 15.125L62.5918 20.2505L69.4753 19.2838C69.4753 19.2838 70.1086 21.3702 69.7541 25.3135C69.492 28.2597 68.6432 31.122 67.2588 33.7285H72.7071C74.0085 30.8078 74.8337 27.6937 75.1507 24.5067C75.5014 21.3513 75.2002 18.1568 74.2662 15.125Z" fill="#FAFAFA"/>
<path d="M54.5859 0C54.5859 0 65.3517 0.34773 71.7018 5.09076C80.3509 11.5411 80.3371 21.0863 79.8105 26.3023C78.9191 35.1555 72.2765 44.6102 72.2765 44.6102L73.9182 36.303C75.8461 32.6351 77.0313 28.6159 77.4047 24.4802C78.0552 16.0477 75.7389 11.416 72.3626 7.90737C67.1139 2.43411 54.5859 0 54.5859 0Z" fill="#FAFAFA"/>
<path d="M66.9291 52.2383H63.5355C63.5355 52.2383 60.0594 57.2525 49.7685 62.1973C39.4777 67.142 28.4297 68.9849 28.4297 68.9849C28.4297 68.9849 38.3213 69.5483 51.1039 63.3274C63.8866 57.1065 66.9291 52.2383 66.9291 52.2383Z" fill="#FAFAFA"/>
<path d="M61.005 52.2402H56.1693C56.1693 52.2402 54.6687 53.5442 52.0014 55.4081C50.5326 56.4583 48.9769 57.3786 47.3516 58.1586L49.8331 60.245C52.0374 59.0661 54.155 57.7286 56.1693 56.2426C57.8616 55.0108 59.4766 53.6741 61.005 52.2402Z" fill="#FAFAFA"/>
<path d="M48.498 60.8539L43.4489 56.25L45.2077 59.2266C43.6291 60.1673 42.001 61.0205 40.3307 61.7824C38.0361 62.8129 35.6671 63.665 33.2441 64.3312L33.4644 66.3759C36.3087 65.6863 39.1039 64.8045 41.8313 63.7366C45.7755 62.2101 48.498 60.8539 48.498 60.8539Z" fill="#FAFAFA"/>
<path d="M32.0078 60.2441L32.321 66.6389C32.321 66.6389 29.9118 67.2544 23.8646 67.1431C17.8175 67.0318 14.627 66.2425 14.627 66.2425L15.5666 64.5734C15.5666 64.5734 18.5265 65.3453 23.696 65.4288C28.8655 65.5122 31.0957 64.9628 31.0957 64.9628L32.0078 60.2441Z" fill="#FAFAFA"/>
<path d="M16.8172 60.4568L13.4856 65.93C13.4856 65.93 9.69971 64.5391 7.45913 62.7622C5.32869 61.0479 3.48047 57.9531 3.48047 57.9531H5.48012C6.26634 59.4217 7.37405 60.6895 8.71881 61.6599C9.98586 62.609 11.4002 63.3387 12.904 63.8193L16.8172 60.4568Z" fill="#FAFAFA"/>
<path d="M18.5859 50.7687L21.6112 36.3066H31.2653C33.444 36.3066 35.1717 36.9047 36.0012 37.9479C36.2547 38.2679 36.4314 38.643 36.5174 39.0436C36.6034 39.4442 36.5963 39.8595 36.4968 40.2568C36.2365 41.3025 35.6044 42.2148 34.7209 42.8196C34.7035 42.8305 34.6895 42.846 34.6804 42.8644C34.6713 42.8828 34.6674 42.9034 34.6692 42.9239C34.6695 42.944 34.6746 42.9638 34.6842 42.9814C34.6938 42.999 34.7076 43.0139 34.7243 43.0248C35.8463 43.7898 36.3144 45.0833 36.0115 46.5855C35.4505 49.2005 32.8038 50.7687 28.9112 50.7687H18.5859ZM25.3318 44.2696C25.3033 44.2699 25.2757 44.2801 25.2538 44.2984C25.2318 44.3168 25.2168 44.3423 25.2113 44.3705L24.4782 47.8687C24.4738 47.8867 24.4737 47.9056 24.4779 47.9237C24.4821 47.9419 24.4904 47.9587 24.5023 47.973C24.5142 47.9871 24.529 47.9984 24.5456 48.0062C24.5622 48.014 24.5803 48.0181 24.5987 48.0182H28.3846C28.913 48.0296 29.4283 47.8519 29.8396 47.5166C30.2508 47.1812 30.5315 46.7098 30.6321 46.1856C30.6972 45.9497 30.7084 45.7019 30.6649 45.461C30.6214 45.22 30.5242 44.9922 30.3808 44.7947C30.2205 44.6118 30.0207 44.4684 29.797 44.3756C29.5733 44.2827 29.3315 44.2429 29.0902 44.2592L25.3318 44.2696ZM26.4262 39.0537C26.3979 39.0542 26.3706 39.064 26.3482 39.0815C26.3259 39.0991 26.3098 39.1235 26.3023 39.1511L25.6587 42.2146C25.6552 42.2328 25.6557 42.2516 25.6601 42.2696C25.6645 42.2877 25.6727 42.3045 25.6841 42.3191C25.6955 42.3336 25.71 42.3455 25.7264 42.3539C25.7428 42.3622 25.7608 42.3669 25.7792 42.3676H29.4309C29.8949 42.355 30.3412 42.1848 30.6978 41.8845C31.0543 41.5842 31.3004 41.1713 31.3961 40.7124C31.4615 40.5113 31.4761 40.297 31.4385 40.0888C31.401 39.8806 31.3125 39.6852 31.1812 39.5204C31.0498 39.3556 30.8798 39.2265 30.6865 39.145C30.4932 39.0635 30.2828 39.0321 30.0745 39.0537H26.4262Z" fill="#FAFAFA"/>
<path d="M38.2793 50.7672L38.7818 48.3888L39.7076 47.8776C42.967 46.0798 45.5414 44.6611 46.9353 43.3571C47.8301 42.5017 48.312 41.7228 48.5013 40.9056C48.5803 40.65 48.6022 40.3798 48.5653 40.1146C48.5284 39.8494 48.4336 39.5958 48.2879 39.3721C48.1586 39.2211 47.9967 39.1022 47.8147 39.0244C47.6327 38.9466 47.4355 38.9121 47.2382 38.9235C46.3295 38.9235 45.2041 39.6538 44.8289 41.2464H39.9589C40.7023 38.242 44.089 35.9922 47.8749 35.9922C50.1189 35.9922 51.8639 36.6355 52.7931 37.8039C53.0974 38.1828 53.3117 38.627 53.4197 39.1026C53.5277 39.5782 53.5265 40.0724 53.4161 40.5474C53.1924 41.6532 52.5625 42.679 51.4956 43.677C50.1189 44.9532 48.7422 45.9894 45.7651 47.502C45.7401 47.5152 45.7202 47.5363 45.7084 47.5621C45.6965 47.5879 45.6935 47.6169 45.6997 47.6446C45.7059 47.6722 45.7212 47.6969 45.7431 47.7145C45.765 47.7322 45.7922 47.7419 45.8202 47.742H51.7744L51.1514 50.7672H38.2793Z" fill="#FAFAFA"/>
<path d="M61.9964 50.7687L62.5781 47.9486C62.5828 47.9306 62.583 47.9116 62.5788 47.8935C62.5746 47.8753 62.5661 47.8584 62.554 47.8443C62.5421 47.8302 62.5273 47.8189 62.5107 47.8111C62.4941 47.8033 62.476 47.7992 62.4576 47.7991H55.0234L55.4743 45.6571L63.4488 36.3066H70.1396L68.2948 45.139C68.2918 45.1571 68.2924 45.1757 68.2965 45.1936C68.3007 45.2115 68.3083 45.2284 68.3189 45.2433C68.3303 45.258 68.345 45.2697 68.3617 45.2776C68.3785 45.2854 68.3968 45.2892 68.4153 45.2885H70.1362L69.613 47.7991H67.8267C67.7987 47.7992 67.7716 47.8089 67.7497 47.8265C67.7278 47.8442 67.7125 47.8689 67.7063 47.8965L67.1143 50.7687H61.9964ZM64.0615 40.1491C64.0439 40.149 64.0266 40.1526 64.0106 40.1598C63.9946 40.167 63.9802 40.1776 63.9685 40.1908L59.7834 45.0799C59.7708 45.0995 59.7641 45.1225 59.7641 45.1459C59.7641 45.1694 59.7708 45.1923 59.7834 45.212C59.7924 45.2339 59.8077 45.2526 59.8273 45.2657C59.847 45.2787 59.87 45.2854 59.8935 45.285H63.053C63.0812 45.2856 63.1087 45.2762 63.1307 45.2584C63.1527 45.2406 63.1679 45.2156 63.1735 45.1877L64.206 40.2951C64.2112 40.2684 64.2076 40.2407 64.1958 40.2162C64.184 40.1918 64.1646 40.1718 64.1406 40.1595C64.116 40.144 64.0863 40.139 64.058 40.1456L64.0615 40.1491Z" fill="#FAFAFA"/>
<path d="M10.0673 50.7683L9.14832 46.5955C9.02786 46.0113 8.60453 45.7123 7.88865 45.7123H6.10926C6.08178 45.7135 6.05552 45.7241 6.03486 45.7425C6.0142 45.7608 6.00037 45.7858 5.99568 45.8131L5.0492 50.7683H0.189453L2.97039 36.3027H11.2306C13.6398 36.3027 15.3882 36.9113 16.2314 38.0657C16.7924 38.8342 16.9645 39.8044 16.7408 40.9797C16.3966 42.8818 15.1094 44.2936 13.0719 45.062C13.0481 45.0716 13.028 45.0885 13.0144 45.1104C13.0008 45.1323 12.9944 45.158 12.9962 45.1838C12.9959 45.2093 13.0033 45.2343 13.0175 45.2554C13.0316 45.2765 13.0518 45.2928 13.0754 45.302C13.4372 45.397 13.7659 45.5917 14.0247 45.8643C14.2836 46.1369 14.4625 46.4767 14.5415 46.8459L15.5121 50.7683H10.0673ZM7.38615 39.0568C7.35938 39.0573 7.33364 39.0673 7.31349 39.0851C7.29334 39.1029 7.28007 39.1274 7.27601 39.1541L6.48097 43.2991C6.47684 43.3171 6.47687 43.336 6.48105 43.354C6.48522 43.3721 6.49344 43.389 6.50506 43.4034C6.51425 43.4181 6.52693 43.4303 6.54196 43.4388C6.55699 43.4473 6.57388 43.4518 6.59111 43.4521H9.53036C10.8589 43.4521 11.5507 42.3289 11.7572 41.2787C11.8355 40.9977 11.8551 40.7033 11.8148 40.4141C11.7745 40.125 11.6752 39.8475 11.5231 39.5992C11.3821 39.4171 11.1994 39.2723 10.9908 39.1772C10.7822 39.0821 10.5539 39.0396 10.3254 39.0533L7.38615 39.0568Z" fill="#FAFAFA"/>
<path d="M2.6423 55.5851H2.10883L1.89544 55.0357H0.92831L0.728688 55.5851H0.208984L1.15202 53.1719H1.67173L2.6423 55.5851ZM1.74056 54.6289L1.39639 53.7352L1.05221 54.6289H1.74056Z" fill="#FAFAFA"/>
<path d="M3.31731 53.1719H3.80604V54.4793C3.80162 54.6141 3.80853 54.7491 3.82669 54.8827C3.8447 54.9776 3.89757 55.062 3.97469 55.1192C4.06998 55.1839 4.18352 55.2156 4.29821 55.2096C4.41052 55.2183 4.52237 55.1876 4.61485 55.1226C4.68096 55.071 4.72622 54.9969 4.7422 54.914C4.75916 54.7791 4.76607 54.6431 4.76285 54.5072V53.1719H5.25157V54.4376C5.25702 54.6435 5.24435 54.8495 5.21371 55.0531C5.18971 55.1647 5.13889 55.2686 5.06572 55.3556C4.9865 55.4418 4.88877 55.5084 4.78005 55.5503C4.63105 55.6038 4.47345 55.6285 4.31542 55.6234C4.1352 55.6334 3.95485 55.6061 3.78539 55.5434C3.67696 55.4978 3.58039 55.4276 3.50317 55.3382C3.43844 55.2602 3.39144 55.1688 3.3655 55.0705C3.3284 54.8687 3.31225 54.6636 3.31731 54.4585V53.1719Z" fill="#FAFAFA"/>
<path d="M6.73495 55.5851V53.5787H6.01562V53.1719H7.943V53.5787H7.22712V55.5851H6.73495Z" fill="#FAFAFA"/>
<path d="M8.51855 54.3916C8.51099 54.1797 8.54855 53.9686 8.62868 53.7727C8.68424 53.6497 8.76118 53.5378 8.85584 53.4423C8.94453 53.3487 9.05107 53.2741 9.16904 53.2232C9.33573 53.1579 9.51342 53.126 9.69218 53.1294C9.85098 53.1249 10.009 53.1535 10.1564 53.2133C10.3038 53.2731 10.4375 53.3629 10.5492 53.4771C10.7565 53.7372 10.8695 54.0611 10.8695 54.3951C10.8695 54.729 10.7565 55.053 10.5492 55.3131C10.4371 55.4244 10.3034 55.511 10.1564 55.5673C10.0095 55.6235 9.85256 55.6483 9.69562 55.64C9.53819 55.6482 9.38077 55.6233 9.23329 55.5671C9.0858 55.5108 8.95143 55.4244 8.83863 55.3131C8.72605 55.1896 8.6396 55.0441 8.58456 54.8857C8.52952 54.7273 8.50706 54.5591 8.51855 54.3916ZM9.02104 54.3916C9.00573 54.6162 9.07452 54.8383 9.21378 55.0141C9.27394 55.0827 9.34824 55.1373 9.43148 55.174C9.51471 55.2106 9.60486 55.2284 9.69562 55.2262C9.78645 55.2289 9.87675 55.2113 9.96006 55.1746C10.0434 55.138 10.1176 55.0831 10.1775 55.0141C10.2976 54.8285 10.3615 54.6116 10.3615 54.3899C10.3615 54.1682 10.2976 53.9513 10.1775 53.7657C10.1161 53.6982 10.0409 53.6452 9.957 53.6104C9.87315 53.5755 9.78275 53.5597 9.69218 53.564C9.60089 53.5606 9.50995 53.5771 9.42559 53.6125C9.34123 53.648 9.26545 53.7014 9.20345 53.7692C9.07225 53.9419 9.00744 54.1569 9.02104 54.3742V54.3916Z" fill="#FAFAFA"/>
<path d="M13.0332 55.5834V53.1702H14.0657C14.2562 53.1605 14.4469 53.1828 14.6302 53.2363C14.7472 53.2784 14.8466 53.3593 14.9124 53.4658C14.9834 53.5791 15.0204 53.7107 15.0191 53.8448C15.0245 54.0098 14.9665 54.1705 14.8573 54.2934C14.7292 54.4227 14.5595 54.5016 14.3789 54.5159C14.4755 54.5711 14.5636 54.6402 14.6405 54.7211C14.7448 54.8422 14.8381 54.9725 14.9193 55.1105L15.2153 55.5834H14.6302L14.286 55.0584C14.2063 54.9377 14.1202 54.8217 14.0279 54.7106C13.9869 54.6659 13.9363 54.6314 13.8799 54.6098C13.7991 54.5882 13.7156 54.5788 13.6321 54.582H13.5254V55.5904L13.0332 55.5834ZM13.5254 54.1925H13.8868C14.0342 54.1988 14.1818 54.1895 14.3273 54.1647C14.3829 54.1455 14.4311 54.1089 14.465 54.0604C14.4987 54.0064 14.5155 53.9434 14.5132 53.8796C14.5171 53.8085 14.4937 53.7387 14.4478 53.6848C14.3997 53.6311 14.3333 53.5976 14.2619 53.5909C14.1473 53.5848 14.0324 53.5848 13.9177 53.5909H13.5254V54.1925Z" fill="#FAFAFA"/>
<path d="M15.9004 55.5851V53.1719H17.697V53.5787H16.3891V54.1142H17.6075V54.5211H16.3891V55.1783H17.7452V55.5851H15.9004Z" fill="#FAFAFA"/>
<path d="M18.3691 55.5851V55.1435L19.6426 53.5787H18.5137V53.1719H20.3068V53.5509L18.9783 55.1783H20.355V55.5851H18.3691Z" fill="#FAFAFA"/>
<path d="M21.0703 55.5851V53.1719H22.8669V53.5787H21.559V54.1142H22.7774V54.5211H21.559V55.1783H22.9116V55.5851H21.0703Z" fill="#FAFAFA"/>
<path d="M23.748 55.5854V53.1721H24.7806C24.971 53.1624 25.1618 53.1847 25.345 53.2382C25.4626 53.2794 25.5623 53.3605 25.6272 53.4677C25.6995 53.5804 25.7367 53.7125 25.7339 53.8467C25.7393 54.0117 25.6814 54.1725 25.5722 54.2953C25.4444 54.4252 25.2745 54.5042 25.0938 54.5179C25.1909 54.5722 25.2791 54.6414 25.3553 54.723C25.4596 54.8441 25.5529 54.9745 25.6341 55.1125L25.9301 55.5854H25.345L25.0008 55.0603C24.9236 54.938 24.8373 54.8218 24.7427 54.7126C24.7024 54.6671 24.6516 54.6325 24.5947 54.6117C24.5151 54.5903 24.4327 54.5809 24.3504 54.5839H24.2505V55.5923L23.748 55.5854ZM24.2368 54.1945H24.5809C24.7284 54.2008 24.876 54.1914 25.0215 54.1666C25.0771 54.1474 25.1253 54.1109 25.1592 54.0623C25.1929 54.0083 25.2097 53.9453 25.2073 53.8815C25.2113 53.8105 25.1879 53.7407 25.142 53.6868C25.0958 53.6324 25.0302 53.5986 24.9595 53.5929C24.8449 53.5869 24.73 53.5869 24.6154 53.5929H24.2402L24.2368 54.1945Z" fill="#FAFAFA"/>
<path d="M27.1896 55.5854L26.3223 53.1721H26.8454L27.4512 54.9421L28.0431 53.1582H28.5663L27.699 55.5714L27.1896 55.5854Z" fill="#FAFAFA"/>
<path d="M29.2344 55.5851V53.1719H31.031V53.5787H29.7231V54.1142H30.9415V54.5211H29.7231V55.1783H31.0792V55.5851H29.2344Z" fill="#FAFAFA"/>
<path d="M31.7871 54.7991L32.2655 54.7539C32.2808 54.8866 32.3417 55.0097 32.4376 55.1016C32.5354 55.1795 32.6573 55.2202 32.7818 55.2164C32.9044 55.2225 33.0256 55.187 33.1259 55.1155C33.1625 55.0887 33.1923 55.0537 33.2132 55.0133C33.2341 54.9729 33.2455 54.9281 33.2464 54.8826C33.2471 54.8292 33.2288 54.7774 33.1948 54.7365C33.1449 54.6887 33.0849 54.653 33.0193 54.6322C32.9596 54.6113 32.8288 54.5765 32.6269 54.5279C32.4278 54.4909 32.2395 54.4088 32.0762 54.2879C32.0054 54.2295 31.9485 54.1557 31.9098 54.072C31.8711 53.9884 31.8515 53.8969 31.8525 53.8046C31.8522 53.6809 31.8881 53.5599 31.9558 53.4569C32.0316 53.3481 32.1367 53.2637 32.2586 53.2134C32.4112 53.1544 32.5737 53.126 32.737 53.13C32.9825 53.111 33.2267 53.1813 33.4254 53.3282C33.5014 53.3939 33.5623 53.4755 33.6039 53.5674C33.6455 53.6592 33.6668 53.7592 33.6663 53.8602L33.1776 53.8811C33.1669 53.7782 33.1191 53.6829 33.0433 53.6133C32.9501 53.5535 32.8403 53.5255 32.7301 53.5334C32.6092 53.5242 32.4885 53.5547 32.386 53.6203C32.3619 53.6367 32.3423 53.6591 32.3291 53.6852C32.3158 53.7114 32.3093 53.7405 32.3103 53.7698C32.3104 53.7981 32.317 53.826 32.3295 53.8514C32.342 53.8767 32.3602 53.8988 32.3825 53.9159C32.5218 53.9975 32.6746 54.0529 32.8334 54.0793C33.0233 54.1106 33.2084 54.1667 33.3841 54.2462C33.4934 54.3018 33.5861 54.3858 33.6525 54.4896C33.7213 54.6064 33.7576 54.7397 33.7576 54.8756C33.7576 55.0115 33.7213 55.1448 33.6525 55.2616C33.5689 55.3863 33.4485 55.4812 33.3084 55.5328C33.1397 55.5944 32.9611 55.6239 32.7818 55.6197C32.5348 55.6329 32.2911 55.5578 32.0934 55.4076C31.918 55.2519 31.8083 55.0341 31.7871 54.7991Z" fill="#FAFAFA"/>
<path d="M35.9531 53.1711H36.848C37.003 53.1654 37.1581 53.1806 37.3092 53.2163C37.4485 53.2557 37.5746 53.3326 37.674 53.4388C37.7787 53.5502 37.8585 53.683 37.908 53.8283C37.9645 54.0128 37.9913 54.2054 37.9872 54.3985C37.9898 54.5731 37.9642 54.7469 37.9115 54.9132C37.8579 55.0733 37.7697 55.2194 37.6533 55.3409C37.5542 55.4298 37.4366 55.4952 37.3092 55.5321C37.1679 55.5709 37.0218 55.5885 36.8755 55.5843H35.9531V53.1711ZM36.4419 53.5779V55.1775H36.8067C36.906 55.1817 37.0054 55.1735 37.1027 55.1531C37.1767 55.1375 37.2455 55.1028 37.3023 55.0523C37.3653 54.9881 37.4094 54.9074 37.4296 54.8193C37.4687 54.6755 37.4861 54.5267 37.4813 54.3777C37.4867 54.2332 37.4693 54.0889 37.4296 53.95C37.4037 53.8609 37.3564 53.7797 37.292 53.7135C37.2273 53.6568 37.1489 53.6184 37.0648 53.6022C36.9317 53.5809 36.7968 53.5727 36.6621 53.5779H36.4419Z" fill="#FAFAFA"/>
<path d="M41.0075 55.5851H40.4741L40.2607 55.0357H39.2935L39.0939 55.5851H38.5742L39.5173 53.1719H40.037L41.0075 55.5851ZM40.1058 54.6289L39.7616 53.7352L39.4174 54.6289H40.1058Z" fill="#FAFAFA"/>
<path d="M41.7012 55.5851V53.2031H42.1899V55.1921H43.4083V55.599L41.7012 55.5851ZM42.3517 55.7694H42.8473V55.9189C42.8509 56.0177 42.8381 56.1164 42.8094 56.211C42.7838 56.2826 42.7384 56.3453 42.6786 56.3918C42.5989 56.4514 42.5073 56.493 42.4102 56.5135L42.3482 56.2979C42.4962 56.2562 42.5719 56.1797 42.5719 56.0719H42.3517V55.7694Z" fill="#FAFAFA"/>
<path d="M46.363 55.5851H45.8295L45.6196 55.0357H44.649L44.4494 55.5851H43.9297L44.8727 53.1719H45.3924L46.363 55.5851ZM45.4613 54.6289L45.1171 53.7352L44.7729 54.6289H45.4613Z" fill="#FAFAFA"/>
<path d="M46.918 54.7991L47.3964 54.7539C47.4117 54.8866 47.4726 55.0097 47.5685 55.1016C47.6663 55.1795 47.7881 55.2202 47.9126 55.2164C48.0353 55.2225 48.1564 55.187 48.2568 55.1155C48.2933 55.0887 48.3232 55.0537 48.3441 55.0133C48.365 54.9729 48.3763 54.9281 48.3773 54.8826C48.3779 54.8292 48.3596 54.7774 48.3256 54.7365C48.2763 54.6879 48.2161 54.6521 48.1501 54.6322C48.0927 54.6113 47.962 54.5765 47.7578 54.5279C47.5586 54.4909 47.3704 54.4088 47.2071 54.2879C47.1363 54.2295 47.0794 54.1557 47.0407 54.072C47.002 53.9884 46.9824 53.8969 46.9834 53.8046C46.983 53.6809 47.0189 53.5599 47.0866 53.4569C47.1625 53.3481 47.2676 53.2637 47.3895 53.2134C47.542 53.1544 47.7046 53.126 47.8679 53.13C48.1134 53.111 48.3575 53.1813 48.5562 53.3282C48.6322 53.3939 48.6932 53.4755 48.7348 53.5674C48.7764 53.6592 48.7977 53.7592 48.7972 53.8602L48.3084 53.8811C48.2978 53.7782 48.25 53.6829 48.1742 53.6133C48.081 53.5535 47.9712 53.5255 47.861 53.5334C47.74 53.5242 47.6193 53.5547 47.5168 53.6203C47.4927 53.6367 47.4732 53.6591 47.4599 53.6852C47.4467 53.7114 47.4402 53.7405 47.4411 53.7698C47.4412 53.7981 47.4478 53.826 47.4604 53.8514C47.4729 53.8767 47.491 53.8988 47.5134 53.9159C47.6526 53.9975 47.8054 54.0529 47.9643 54.0793C48.1463 54.1148 48.3232 54.1733 48.4908 54.2532C48.6002 54.3087 48.6928 54.3928 48.7593 54.4966C48.8255 54.6149 48.8589 54.7491 48.8558 54.8849C48.8528 55.0208 48.8135 55.1534 48.7421 55.2685C48.6585 55.3933 48.538 55.4882 48.3979 55.5398C48.2292 55.6013 48.0507 55.6308 47.8713 55.6267C47.6243 55.6398 47.3807 55.5647 47.183 55.4146C47.0212 55.2504 46.9266 55.0306 46.918 54.7991Z" fill="#FAFAFA"/>
</g>
<defs>
<clipPath id="clip0_3301_229161">
<rect width="80" height="69" fill="white"/>
</clipPath>
</defs>
</svg>
