<svg width="80" height="69" viewBox="0 0 80 69" fill="none" xmlns="http://www.w3.org/2000/svg">
<g clip-path="url(#clip0_340_5063)">
<path d="M46.7768 35.7709C46.7768 35.7709 47.3791 31.6886 48.6285 28.9798C50.043 25.9128 51.1753 25.2243 52.287 28.2843C53.3987 31.3443 53.0029 33.4655 53.0029 33.4655C53.0029 33.4655 53.0993 30.7845 51.9704 28.7225C51.0687 27.0707 50.4801 27.0707 49.1722 29.4736C48.1294 31.4104 46.7768 35.7709 46.7768 35.7709Z" fill="#0D2441"/>
<path d="M61.8173 33.9002C61.8173 33.9002 61.8173 31.3861 62.2303 29.9117C62.2866 29.6916 62.3662 29.4783 62.4678 29.2754C63.101 28.0722 63.5588 28.7677 63.6173 29.0146C63.7322 29.7802 63.7955 30.5527 63.8066 31.327C63.8066 31.327 63.5966 29.7761 63.1974 29.5883C62.4746 29.2615 61.8173 33.9002 61.8173 33.9002Z" fill="#0D2441"/>
<path d="M31.0515 26.3336C28.0847 26.4449 17.2638 26.7265 15.6118 26.7543C7.96765 26.883 3.44175 25.732 3.44175 25.732C4.72862 24.7799 6.13627 24.0069 7.62691 23.4335C10.2805 22.3729 18.9847 20.4257 18.9847 20.4257C18.9847 20.4257 11.3578 20.8082 6.09189 23.2979C0.82602 25.7877 1.63483 26.0276 1.19773 27.335C0.68835 28.8998 0 31.6156 0 31.6156C0 31.6156 0.967131 29.717 1.65892 29.7448C2.35071 29.7726 28.7971 29.9987 32.5108 30.0126C36.2244 30.0265 38.9675 29.8804 41.2941 29.178C43.6207 28.4756 45.7684 25.4677 45.7684 25.4677C45.7684 25.4677 38.1415 26.0797 31.0515 26.3336ZM39.6937 28.9589C38.1724 29.1989 29.3203 29.4736 29.3203 29.4736C29.6151 28.9496 29.8716 28.4045 30.0878 27.8427C30.2347 27.4911 30.3499 27.1269 30.4319 26.7543V28.3782C30.4319 28.3782 37.7594 28.726 39.3013 28.5834C40.8432 28.4408 42.571 28.114 42.571 28.114C41.6468 28.5053 40.6815 28.7887 39.6937 28.9589Z" fill="#0D2441"/>
<path d="M42.3851 13.4676C45.5033 13.485 50.8931 14.5316 50.8931 14.5316C50.4658 15.2482 50.1402 16.022 49.926 16.8301C49.6584 18.0236 49.4721 19.2342 49.3684 20.4535L42.7878 19.5146L38.1518 21.6983L41.301 19.4729L36.0798 19.5007C34.063 19.5007 21.5385 20.2309 21.5385 20.2309C21.5385 20.2309 25.6754 16.9762 27.534 15.8878C29.3607 15.126 31.2586 14.5517 33.1991 14.1735C36.1796 13.624 38.4478 13.3007 38.4478 13.3007C38.4478 13.3007 34.975 14.1352 33.4056 14.7368C31.8362 15.3384 29.3168 16.0686 29.3168 16.0686C29.3168 16.0686 38.4478 13.4502 42.3851 13.4676Z" fill="#0D2441"/>
<path d="M50.6797 20.9681C50.6797 20.9681 51.1065 17.0562 51.4163 15.9643C51.726 14.8724 52.5934 15.4705 53.2679 15.7869C53.9425 16.1034 56.5961 18.2941 57.9522 19.9319C59.26 21.514 60.7813 23.4266 60.7813 23.4266L53.5158 21.4515C53.5158 21.4515 54.4485 21.142 55.006 21.0307C55.7322 20.8847 55.4053 19.0347 55.006 19.1008C54.4381 19.1982 52.2802 19.5111 51.8086 20.064C51.671 20.2201 51.5733 20.4079 51.5241 20.611C51.4749 20.8141 51.4757 21.0262 51.5264 21.2289L50.6797 20.9681Z" fill="#0D2441"/>
<path d="M40.9362 13.0885C40.9362 13.0885 49.2962 11.9967 53.3058 13.3841C54.6825 13.8605 60.3166 20.2761 61.8172 22.0774C62.9358 23.4231 63.6723 23.43 63.6723 23.43V24.7375C63.6723 24.7375 64.784 25.5686 65.1833 25.878C65.5825 26.1875 66.56 27.0673 66.56 27.0673V30.3429L66.2399 27.4115C65.7817 27.0128 65.3001 26.6424 64.7978 26.3023C63.6276 25.4886 63.0494 24.9913 63.0494 24.9913L60.6402 25.1096L63.0494 24.4593L62.9806 23.9029C62.9806 23.9029 55.1299 15.2653 53.3437 14.097C51.5574 12.9286 40.9362 13.0885 40.9362 13.0885Z" fill="#0D2441"/>
<path d="M21.7897 12.6713C21.7897 12.6713 26.4017 9.36436 29.6266 7.77871C32.0708 6.63727 34.5769 5.63653 37.133 4.78128V7.69178C37.133 7.69178 33.9632 8.47765 31.1857 9.49649C28.4082 10.5153 23.1286 12.6713 23.1286 12.6713H21.7897Z" fill="#90181B"/>
<path d="M37.7147 4.52049V11.6489L39.3564 6.89896C39.3564 6.89896 43.9752 5.88011 47.7061 5.89749C50.0455 5.92673 52.3805 6.11026 54.6962 6.44691L57.6975 2.82356C54.7315 2.25502 51.7065 2.06576 48.6938 2.26024C41.356 2.78184 37.7147 4.52049 37.7147 4.52049Z" fill="#90181B"/>
<path d="M59.143 3.05307L51.2511 12.6713L57.6975 7.45533C59.8825 8.11105 61.9218 9.18666 63.7033 10.6231C65.7301 12.3238 67.3642 14.4518 68.4908 16.8579L73.9391 14.1422C72.7406 11.2285 70.7277 8.73088 68.1466 6.9546C64.1301 4.1519 59.143 3.05307 59.143 3.05307Z" fill="#0D2441"/>
<path d="M74.266 15.1263L62.5916 20.2518L69.4751 19.2851C69.4751 19.2851 70.1084 21.3715 69.7539 25.3147C69.4918 28.261 68.6431 31.1233 67.2586 33.7298H72.7069C74.0083 30.8091 74.8335 27.6949 75.1506 24.508C75.5013 21.3526 75.2001 18.158 74.266 15.1263Z" fill="#90181B"/>
<path d="M54.5861 0C54.5861 0 65.3519 0.34773 71.7019 5.09076C80.351 11.5411 80.3373 21.0863 79.8107 26.3023C78.9193 35.1555 72.2767 44.6102 72.2767 44.6102L73.9184 36.303C75.8463 32.6351 77.0315 28.6159 77.4049 24.4802C78.0554 16.0477 75.7391 11.416 72.3628 7.90737C67.1141 2.43411 54.5861 0 54.5861 0Z" fill="#0D2441"/>
<path d="M66.9282 52.2394H63.5347C63.5347 52.2394 60.0585 57.2537 49.7677 62.1984C39.4768 67.1431 28.4288 68.9861 28.4288 68.9861C28.4288 68.9861 38.3204 69.5494 51.1031 63.3285C63.8857 57.1077 66.9282 52.2394 66.9282 52.2394Z" fill="#0D2441"/>
<path d="M61.005 52.2394H56.1693C56.1693 52.2394 54.6687 53.5434 52.0014 55.4073C50.5326 56.4576 48.9769 57.3778 47.3516 58.1578L49.8331 60.2442C52.0374 59.0653 54.155 57.7278 56.1693 56.2418C57.8616 55.01 59.4766 53.6733 61.005 52.2394Z" fill="#90181B"/>
<path d="M48.4977 60.8527L43.4486 56.2487L45.2074 59.2253C43.6288 60.166 42.0007 61.0192 40.3304 61.7811C38.0358 62.8116 35.6668 63.6637 33.2438 64.33L33.4641 66.3746C36.3084 65.685 39.1036 64.8033 41.831 63.7354C45.7752 62.2088 48.4977 60.8527 48.4977 60.8527Z" fill="#90181B"/>
<path d="M32.0083 60.2442L32.3215 66.6389C32.3215 66.6389 29.9122 67.2544 23.8651 67.1431C17.8179 67.0319 14.6274 66.2425 14.6274 66.2425L15.567 64.5734C15.567 64.5734 18.5269 65.3454 23.6964 65.4288C28.866 65.5123 31.0962 64.9629 31.0962 64.9629L32.0083 60.2442Z" fill="#90181B"/>
<path d="M16.8164 60.4563L13.4848 65.9296C13.4848 65.9296 9.69885 64.5386 7.45828 62.7617C5.32783 61.0474 3.47961 57.9526 3.47961 57.9526H5.47927C6.26549 59.4212 7.3732 60.689 8.71796 61.6594C9.985 62.6085 11.3993 63.3382 12.9031 63.8188L16.8164 60.4563Z" fill="#90181B"/>
<path d="M18.5854 50.7685L21.6107 36.3065H31.2648C33.4435 36.3065 35.1712 36.9046 36.0007 37.9477C36.2542 38.2678 36.4309 38.6428 36.5169 39.0434C36.6029 39.444 36.5959 39.8593 36.4963 40.2567C36.2361 41.3023 35.6039 42.2146 34.7204 42.8194C34.703 42.8303 34.6891 42.8458 34.6799 42.8642C34.6708 42.8826 34.667 42.9032 34.6687 42.9238C34.669 42.9438 34.6741 42.9636 34.6837 42.9812C34.6933 42.9988 34.7071 43.0137 34.7238 43.0246C35.8458 43.7896 36.3139 45.0832 36.011 46.5853C35.45 49.2003 32.8033 50.7685 28.9107 50.7685H18.5854ZM25.3313 44.2695C25.3028 44.2697 25.2752 44.2799 25.2533 44.2983C25.2314 44.3166 25.2164 44.3421 25.2108 44.3703L24.4777 47.8685C24.4733 47.8865 24.4732 47.9054 24.4774 47.9235C24.4816 47.9417 24.49 47.9585 24.5018 47.9728C24.5137 47.9869 24.5285 47.9982 24.5451 48.006C24.5617 48.0138 24.5798 48.0179 24.5982 48.018H28.3841C28.9125 48.0294 29.4278 47.8517 29.8391 47.5164C30.2503 47.1811 30.531 46.7096 30.6316 46.1855C30.6967 45.9495 30.7079 45.7017 30.6644 45.4608C30.6209 45.2198 30.5237 44.992 30.3803 44.7945C30.22 44.6116 30.0203 44.4682 29.7965 44.3754C29.5728 44.2826 29.331 44.2428 29.0897 44.259L25.3313 44.2695ZM26.4258 39.0535C26.3975 39.054 26.3701 39.0638 26.3477 39.0813C26.3254 39.0989 26.3093 39.1233 26.3018 39.1509L25.6582 42.2144C25.6548 42.2326 25.6552 42.2514 25.6596 42.2695C25.664 42.2875 25.6722 42.3044 25.6836 42.3189C25.6951 42.3334 25.7095 42.3453 25.7259 42.3537C25.7423 42.362 25.7603 42.3667 25.7787 42.3674H29.4304C29.8944 42.3548 30.3407 42.1846 30.6973 41.8843C31.0539 41.584 31.2999 41.1711 31.3956 40.7122C31.461 40.5112 31.4756 40.2968 31.438 40.0886C31.4005 39.8804 31.312 39.685 31.1807 39.5202C31.0493 39.3554 30.8793 39.2263 30.686 39.1448C30.4927 39.0633 30.2824 39.0319 30.074 39.0535H26.4258Z" fill="#90181B"/>
<path d="M38.2791 50.7685L38.7816 48.3901L39.7074 47.8789C42.9668 46.0811 45.5412 44.6624 46.9351 43.3584C47.83 42.503 48.3118 41.7241 48.5011 40.9069C48.5802 40.6513 48.602 40.3811 48.5651 40.1159C48.5282 39.8507 48.4335 39.5971 48.2877 39.3734C48.1584 39.2225 47.9965 39.1035 47.8145 39.0257C47.6325 38.948 47.4353 38.9135 47.238 38.9249C46.3294 38.9249 45.2039 39.6551 44.8288 41.2477H39.9587C40.7021 38.2433 44.0888 35.9935 47.8747 35.9935C50.1187 35.9935 51.8637 36.6368 52.793 37.8052C53.0972 38.1841 53.3116 38.6284 53.4195 39.1039C53.5275 39.5795 53.5263 40.0737 53.4159 40.5488C53.1922 41.6545 52.5624 42.6803 51.4954 43.6783C50.1187 44.9545 48.742 45.9907 45.7649 47.5034C45.74 47.5165 45.72 47.5376 45.7082 47.5634C45.6963 47.5892 45.6933 47.6182 45.6995 47.6459C45.7057 47.6735 45.721 47.6982 45.7429 47.7159C45.7648 47.7335 45.792 47.7432 45.82 47.7433H51.7742L51.1512 50.7685H38.2791Z" fill="#0D2441"/>
<path d="M61.9962 50.7685L62.5779 47.9484C62.5826 47.9304 62.5828 47.9114 62.5786 47.8933C62.5744 47.8751 62.5659 47.8582 62.5538 47.8441C62.5419 47.83 62.5271 47.8187 62.5105 47.8109C62.4939 47.8031 62.4758 47.799 62.4574 47.7989H55.0233L55.4741 45.6569L63.4487 36.3065H70.1394L68.2946 45.1388C68.2916 45.1569 68.2922 45.1755 68.2963 45.1934C68.3005 45.2113 68.3081 45.2282 68.3187 45.2431C68.3301 45.2578 68.3448 45.2695 68.3615 45.2774C68.3783 45.2853 68.3966 45.289 68.4151 45.2883H70.136L69.6128 47.7989H67.8266C67.7985 47.799 67.7714 47.8087 67.7495 47.8264C67.7276 47.844 67.7123 47.8687 67.7061 47.8963L67.1141 50.7685H61.9962ZM64.0613 40.1489C64.0438 40.1488 64.0264 40.1525 64.0104 40.1597C63.9944 40.1668 63.98 40.1774 63.9684 40.1906L59.7832 45.0797C59.7706 45.0994 59.7639 45.1223 59.7639 45.1457C59.7639 45.1692 59.7706 45.1921 59.7832 45.2118C59.7922 45.2338 59.8075 45.2524 59.8271 45.2655C59.8468 45.2785 59.8698 45.2852 59.8933 45.2848H63.0529C63.081 45.2854 63.1085 45.276 63.1305 45.2582C63.1525 45.2404 63.1677 45.2154 63.1733 45.1875L64.2058 40.2949C64.211 40.2682 64.2074 40.2405 64.1956 40.216C64.1838 40.1916 64.1645 40.1716 64.1404 40.1593C64.1158 40.1439 64.0861 40.1389 64.0578 40.1454L64.0613 40.1489Z" fill="#0D2441"/>
<path d="M10.0671 50.7685L9.14814 46.5958C9.02768 46.0116 8.60435 45.7125 7.88846 45.7125H6.10908C6.0816 45.7137 6.05534 45.7244 6.03468 45.7427C6.01402 45.7611 6.00019 45.786 5.9955 45.8134L5.04902 50.7685H0.18927L2.9702 36.303H11.2304C13.6396 36.303 15.388 36.9115 16.2313 38.066C16.7923 38.8345 16.9644 39.8046 16.7406 40.9799C16.3965 42.882 15.1093 44.2938 13.0717 45.0623C13.048 45.0718 13.0278 45.0888 13.0142 45.1106C13.0006 45.1325 12.9942 45.1582 12.996 45.184C12.9957 45.2095 13.0031 45.2345 13.0173 45.2556C13.0314 45.2768 13.0516 45.293 13.0752 45.3022C13.437 45.3973 13.7657 45.592 14.0245 45.8645C14.2834 46.1371 14.4623 46.4769 14.5414 46.8461L15.5119 50.7685H10.0671ZM7.38597 39.057C7.35919 39.0575 7.33346 39.0676 7.31331 39.0854C7.29316 39.1032 7.27988 39.1276 7.27583 39.1544L6.48079 43.2993C6.47666 43.3174 6.47669 43.3362 6.48086 43.3543C6.48504 43.3724 6.49325 43.3892 6.50488 43.4036C6.51406 43.4183 6.52675 43.4305 6.54178 43.439C6.55681 43.4475 6.5737 43.4521 6.59092 43.4523H9.53018C10.8587 43.4523 11.5505 42.3291 11.757 41.279C11.8353 40.9979 11.8549 40.7035 11.8146 40.4144C11.7743 40.1253 11.675 39.8477 11.5229 39.5995C11.3819 39.4174 11.1992 39.2725 10.9906 39.1775C10.782 39.0824 10.5537 39.0398 10.3252 39.0535L7.38597 39.057Z" fill="#90181B"/>
<path d="M2.64328 55.5846H2.10981L1.89642 55.0352H0.929286L0.729665 55.5846H0.209961L1.153 53.1714H1.6727L2.64328 55.5846ZM1.74154 54.6283L1.39736 53.7347L1.05319 54.6283H1.74154Z" fill="#0D2441"/>
<path d="M3.31786 53.1714H3.80659V54.4788C3.80217 54.6136 3.80908 54.7486 3.82724 54.8822C3.84525 54.9771 3.89812 55.0615 3.97524 55.1186C4.07053 55.1834 4.18407 55.2151 4.29876 55.2091C4.41107 55.2178 4.52292 55.1871 4.6154 55.1221C4.68151 55.0705 4.72677 54.9963 4.74274 54.9135C4.75971 54.7786 4.76662 54.6426 4.7634 54.5066V53.1714H5.25212V54.4371C5.25757 54.643 5.2449 54.849 5.21426 55.0526C5.19026 55.1642 5.13944 55.2681 5.06627 55.3551C4.98705 55.4412 4.88932 55.5079 4.7806 55.5498C4.63159 55.6033 4.474 55.628 4.31597 55.6229C4.13575 55.6328 3.9554 55.6056 3.78594 55.5429C3.67751 55.4973 3.58093 55.4271 3.50372 55.3377C3.43898 55.2597 3.39199 55.1683 3.36605 55.07C3.32895 54.8682 3.3128 54.6631 3.31786 54.458V53.1714Z" fill="#0D2441"/>
<path d="M6.7355 55.5846V53.5782H6.01617V53.1714H7.94355V53.5782H7.22767V55.5846H6.7355Z" fill="#0D2441"/>
<path d="M8.5183 54.3919C8.51074 54.18 8.5483 53.9689 8.62844 53.7729C8.68399 53.65 8.76093 53.5381 8.85559 53.4426C8.94428 53.3489 9.05082 53.2744 9.16879 53.2235C9.33549 53.1582 9.51318 53.1263 9.69194 53.1296C9.85074 53.1252 10.0087 53.1538 10.1562 53.2136C10.3036 53.2734 10.4373 53.3632 10.5489 53.4774C10.7562 53.7375 10.8692 54.0614 10.8692 54.3954C10.8692 54.7293 10.7562 55.0532 10.5489 55.3134C10.4369 55.4247 10.3032 55.5113 10.1562 55.5675C10.0093 55.6238 9.85231 55.6486 9.69538 55.6402C9.53794 55.6484 9.38053 55.6236 9.23304 55.5674C9.08556 55.5111 8.95119 55.4246 8.83838 55.3134C8.7258 55.1898 8.63935 55.0444 8.58432 54.886C8.52928 54.7275 8.50682 54.5594 8.5183 54.3919ZM9.0208 54.3919C9.00548 54.6164 9.07428 54.8386 9.21354 55.0143C9.2737 55.083 9.348 55.1376 9.43123 55.1742C9.51446 55.2109 9.60462 55.2287 9.69538 55.2264C9.78621 55.2292 9.87651 55.2116 9.95981 55.1749C10.0431 55.1382 10.1174 55.0834 10.1772 55.0143C10.2973 54.8288 10.3613 54.6119 10.3613 54.3901C10.3613 54.1684 10.2973 53.9515 10.1772 53.766C10.1159 53.6985 10.0406 53.6455 9.95676 53.6107C9.87291 53.5758 9.78251 53.56 9.69194 53.5643C9.60065 53.5608 9.5097 53.5774 9.42534 53.6128C9.34098 53.6482 9.26521 53.7017 9.20321 53.7695C9.072 53.9422 9.0072 54.1572 9.0208 54.3745V54.3919Z" fill="#0D2441"/>
<path d="M13.0339 55.5846V53.1713H14.0664C14.2569 53.1616 14.4476 53.1839 14.6308 53.2374C14.7478 53.2796 14.8473 53.3604 14.9131 53.4669C14.9841 53.5802 15.0211 53.7119 15.0198 53.8459C15.0251 54.011 14.9672 54.1717 14.858 54.2945C14.7299 54.4239 14.5602 54.5028 14.3796 54.5171C14.4762 54.5723 14.5643 54.6414 14.6412 54.7222C14.7455 54.8433 14.8388 54.9737 14.92 55.1117L15.2159 55.5846H14.6308L14.2867 55.0595C14.207 54.9389 14.1208 54.8228 14.0285 54.7118C13.9876 54.667 13.9369 54.6325 13.8805 54.6109C13.7998 54.5893 13.7162 54.5799 13.6327 54.5831H13.526V55.5915L13.0339 55.5846ZM13.526 54.1937H13.8874C14.0348 54.2 14.1825 54.1906 14.328 54.1659C14.3836 54.1466 14.4318 54.1101 14.4656 54.0615C14.4994 54.0076 14.5162 53.9445 14.5138 53.8807C14.5178 53.8097 14.4944 53.7399 14.4484 53.686C14.4003 53.6322 14.334 53.5987 14.2626 53.5921C14.1479 53.5859 14.033 53.5859 13.9184 53.5921H13.526V54.1937Z" fill="#0D2441"/>
<path d="M15.9009 55.5846V53.1714H17.6975V53.5782H16.3896V54.1137H17.608V54.5205H16.3896V55.1778H17.7457V55.5846H15.9009Z" fill="#0D2441"/>
<path d="M18.3686 55.5846V55.143L19.642 53.5782H18.5131V53.1714H20.3063V53.5504L18.9778 55.1778H20.3545V55.5846H18.3686Z" fill="#0D2441"/>
<path d="M21.0704 55.5846V53.1714H22.867V53.5782H21.5591V54.1137H22.7775V54.5205H21.5591V55.1778H22.9117V55.5846H21.0704Z" fill="#0D2441"/>
<path d="M23.748 55.5846V53.1713H24.7806C24.971 53.1616 25.1618 53.1839 25.345 53.2374C25.4626 53.2786 25.5623 53.3597 25.6272 53.4669C25.6995 53.5796 25.7367 53.7117 25.7339 53.8459C25.7393 54.011 25.6814 54.1717 25.5722 54.2945C25.4444 54.4244 25.2745 54.5034 25.0938 54.5171C25.1909 54.5714 25.2791 54.6406 25.3553 54.7222C25.4596 54.8433 25.5529 54.9737 25.6341 55.1117L25.9301 55.5846H25.345L25.0008 55.0595C24.9236 54.9372 24.8373 54.821 24.7427 54.7118C24.7024 54.6663 24.6516 54.6317 24.5947 54.6109C24.5151 54.5895 24.4327 54.5801 24.3504 54.5831H24.2505V55.5915L23.748 55.5846ZM24.2368 54.1937H24.5809C24.7284 54.2 24.876 54.1906 25.0215 54.1659C25.0771 54.1466 25.1253 54.1101 25.1592 54.0615C25.1929 54.0076 25.2097 53.9445 25.2073 53.8807C25.2113 53.8097 25.1879 53.7399 25.142 53.686C25.0958 53.6316 25.0302 53.5978 24.9595 53.5921C24.8449 53.5861 24.73 53.5861 24.6154 53.5921H24.2402L24.2368 54.1937Z" fill="#0D2441"/>
<path d="M27.1898 55.5846L26.3225 53.1714H26.8457L27.4514 54.9413L28.0434 53.1574H28.5665L27.6992 55.5707L27.1898 55.5846Z" fill="#0D2441"/>
<path d="M29.2342 55.5846V53.1714H31.0308V53.5782H29.7229V54.1137H30.9413V54.5205H29.7229V55.1778H31.079V55.5846H29.2342Z" fill="#0D2441"/>
<path d="M31.788 54.7987L32.2664 54.7535C32.2816 54.8862 32.3425 55.0093 32.4385 55.1013C32.5363 55.1792 32.6581 55.2198 32.7826 55.216C32.9053 55.2221 33.0264 55.1866 33.1268 55.1152C33.1633 55.0883 33.1932 55.0534 33.2141 55.0129C33.235 54.9725 33.2463 54.9278 33.2473 54.8822C33.2479 54.8288 33.2296 54.777 33.1956 54.7361C33.1458 54.6883 33.0857 54.6526 33.0201 54.6318C32.9605 54.611 32.8297 54.5762 32.6278 54.5275C32.4286 54.4905 32.2404 54.4085 32.0771 54.2876C32.0063 54.2291 31.9494 54.1553 31.9107 54.0717C31.8719 53.988 31.8524 53.8966 31.8534 53.8042C31.853 53.6806 31.8889 53.5595 31.9566 53.4565C32.0324 53.3478 32.1376 53.2633 32.2595 53.2131C32.412 53.154 32.5746 53.1257 32.7379 53.1296C32.9834 53.1107 33.2275 53.181 33.4262 53.3278C33.5022 53.3935 33.5632 53.4751 33.6048 53.567C33.6464 53.6589 33.6677 53.7588 33.6672 53.8599L33.1784 53.8807C33.1678 53.7778 33.12 53.6825 33.0442 53.613C32.951 53.5531 32.8412 53.5251 32.731 53.533C32.61 53.5238 32.4893 53.5543 32.3868 53.6199C32.3627 53.6364 32.3432 53.6587 32.3299 53.6848C32.3167 53.711 32.3102 53.7401 32.3111 53.7695C32.3112 53.7978 32.3178 53.8257 32.3304 53.851C32.3429 53.8763 32.361 53.8984 32.3834 53.9155C32.5226 53.9971 32.6754 54.0525 32.8343 54.0789C33.0242 54.1103 33.2093 54.1664 33.3849 54.2458C33.4942 54.3014 33.5869 54.3854 33.6534 54.4892C33.7222 54.606 33.7585 54.7394 33.7585 54.8752C33.7585 55.0111 33.7222 55.1445 33.6534 55.2612C33.5698 55.3859 33.4493 55.4808 33.3092 55.5324C33.1405 55.594 32.962 55.6235 32.7826 55.6194C32.5356 55.6325 32.292 55.5574 32.0943 55.4073C31.9188 55.2515 31.8092 55.0337 31.788 54.7987Z" fill="#0D2441"/>
<path d="M35.9525 53.1713H36.8474C37.0024 53.1657 37.1575 53.1809 37.3086 53.2165C37.4479 53.256 37.574 53.3329 37.6734 53.4391C37.7781 53.5505 37.8579 53.6833 37.9074 53.8285C37.9639 54.0131 37.9906 54.2057 37.9866 54.3988C37.9892 54.5734 37.9636 54.7472 37.9109 54.9135C37.8573 55.0736 37.7691 55.2197 37.6527 55.3412C37.5536 55.4301 37.436 55.4954 37.3086 55.5324C37.1673 55.5712 37.0212 55.5888 36.8749 55.5846H35.9525V53.1713ZM36.4412 53.5782V55.1777H36.8061C36.9053 55.182 37.0048 55.1738 37.1021 55.1534C37.1761 55.1378 37.2449 55.1031 37.3017 55.0526C37.3647 54.9884 37.4088 54.9077 37.429 54.8196C37.4681 54.6758 37.4855 54.527 37.4807 54.378C37.4861 54.2335 37.4687 54.0891 37.429 53.9502C37.4031 53.8612 37.3558 53.7799 37.2914 53.7138C37.2267 53.6571 37.1483 53.6187 37.0642 53.6025C36.9311 53.5811 36.7962 53.573 36.6615 53.5782H36.4412Z" fill="#0D2441"/>
<path d="M41.0085 55.5846H40.475L40.2616 55.0352H39.2945L39.0948 55.5846H38.5751L39.5182 53.1714H40.0379L41.0085 55.5846ZM40.1067 54.6283L39.7625 53.7347L39.4184 54.6283H40.1067Z" fill="#0D2441"/>
<path d="M41.7002 55.5846V53.2026H42.1889V55.1917H43.4073V55.5985L41.7002 55.5846ZM42.3507 55.7689H42.8463V55.9184C42.8499 56.0172 42.8372 56.116 42.8084 56.2105C42.7828 56.2821 42.7374 56.3449 42.6777 56.3913C42.5979 56.451 42.5063 56.4925 42.4092 56.513L42.3472 56.2974C42.4952 56.2557 42.571 56.1792 42.571 56.0714H42.3507V55.7689Z" fill="#0D2441"/>
<path d="M46.3638 55.5846H45.8303L45.6204 55.0352H44.6498L44.4502 55.5846H43.9305L44.8735 53.1714H45.3932L46.3638 55.5846ZM45.4621 54.6283L45.1179 53.7347L44.7737 54.6283H45.4621Z" fill="#0D2441"/>
<path d="M46.9179 54.7987L47.3963 54.7535C47.4116 54.8862 47.4725 55.0093 47.5684 55.1013C47.6662 55.1792 47.7881 55.2198 47.9126 55.216C48.0352 55.2221 48.1564 55.1866 48.2567 55.1152C48.2933 55.0883 48.3231 55.0534 48.344 55.0129C48.3649 54.9725 48.3763 54.9278 48.3772 54.8822C48.3779 54.8288 48.3596 54.777 48.3256 54.7361C48.2763 54.6876 48.216 54.6518 48.15 54.6318C48.0927 54.611 47.9619 54.5762 47.7577 54.5275C47.5586 54.4905 47.3703 54.4085 47.207 54.2876C47.1362 54.2291 47.0793 54.1553 47.0406 54.0717C47.0019 53.988 46.9823 53.8966 46.9833 53.8042C46.983 53.6806 47.0189 53.5595 47.0866 53.4565C47.1624 53.3478 47.2675 53.2633 47.3894 53.2131C47.542 53.154 47.7045 53.1257 47.8678 53.1296C48.1133 53.1107 48.3575 53.181 48.5562 53.3278C48.6322 53.3935 48.6931 53.4751 48.7347 53.567C48.7763 53.6589 48.7976 53.7588 48.7971 53.8599L48.3084 53.8807C48.2977 53.7778 48.2499 53.6825 48.1741 53.613C48.0809 53.5531 47.9711 53.5251 47.8609 53.533C47.74 53.5238 47.6193 53.5543 47.5168 53.6199C47.4927 53.6364 47.4731 53.6587 47.4599 53.6848C47.4466 53.711 47.4401 53.7401 47.441 53.7695C47.4412 53.7978 47.4478 53.8257 47.4603 53.851C47.4728 53.8763 47.491 53.8984 47.5133 53.9155C47.6526 53.9971 47.8053 54.0525 47.9642 54.0789C48.1462 54.1145 48.3231 54.1729 48.4908 54.2528C48.6001 54.3084 48.6928 54.3924 48.7592 54.4962C48.8254 54.6145 48.8588 54.7487 48.8558 54.8846C48.8527 55.0205 48.8134 55.153 48.742 55.2682C48.6584 55.3929 48.538 55.4878 48.3979 55.5394C48.2291 55.601 48.0506 55.6305 47.8713 55.6263C47.6243 55.6395 47.3806 55.5644 47.1829 55.4142C47.0211 55.25 46.9265 55.0303 46.9179 54.7987Z" fill="#0D2441"/>
</g>
<defs>
<clipPath id="clip0_340_5063">
<rect width="80" height="69" fill="white"/>
</clipPath>
</defs>
</svg>
