<svg width="32" height="32" viewBox="0 0 32 32" fill="none" xmlns="http://www.w3.org/2000/svg">
<path d="M2.6665 21.333C2.6665 17.5618 2.6665 15.6762 3.83808 14.5046C5.00965 13.333 6.89527 13.333 10.6665 13.333H21.3332C25.1044 13.333 26.99 13.333 28.1616 14.5046C29.3332 15.6762 29.3332 17.5618 29.3332 21.333C29.3332 25.1042 29.3332 26.9899 28.1616 28.1614C26.99 29.333 25.1044 29.333 21.3332 29.333H10.6665C6.89527 29.333 5.00965 29.333 3.83808 28.1614C2.6665 26.9899 2.6665 25.1042 2.6665 21.333Z" stroke="#0D2441" stroke-width="1.5"/>
<path d="M16 18.667V24.0003" stroke="#E72E2C" stroke-width="1.5" stroke-linecap="round"/>
<path d="M8 13.3337V10.667C8 6.24871 11.5817 2.66699 16 2.66699C20.4183 2.66699 24 6.24871 24 10.667V13.3337" stroke="#0D2441" stroke-width="1.5" stroke-linecap="round"/>
</svg>
