<svg width="32" height="32" viewBox="0 0 32 32" fill="none" xmlns="http://www.w3.org/2000/svg">
<g clip-path="url(#clip0_720_46066)">
<path d="M5.38284 22.7147V22.7726L5.32556 22.7641C5.11072 22.7325 4.89049 22.7167 4.66618 22.7167C2.12048 22.7167 0.049511 24.7889 0.049511 27.3347C0.049511 29.8804 2.12046 31.9513 4.66618 31.9513C7.2119 31.9513 9.28284 29.8804 9.28284 27.3347C9.28284 26.4363 9.02564 25.5975 8.57984 24.8879L8.50742 24.7727L8.63723 24.8137L31.1479 31.9217L31.1484 31.9218C31.2081 31.9413 31.2708 31.95 31.3328 31.95C31.5956 31.95 31.8385 31.7809 31.9211 31.5183L31.9212 31.5183C32.0236 31.1938 31.8447 30.8474 31.5192 30.745L31.5191 30.745L27.1018 29.3503L27.0066 29.3203L27.0877 29.2621C27.6102 28.8866 28.0289 28.3551 28.26 27.7083L30.4756 20.4616C30.4757 20.4615 30.4757 20.4614 30.4757 20.4614C30.9917 18.7516 30.0276 16.9207 28.327 16.3797L19.3991 13.5397C17.6693 12.9933 15.8228 13.9495 15.2738 15.6725L13.1006 22.6469L13.1006 22.6469L13.1002 22.6481C12.8467 23.394 12.8795 24.1714 13.1396 24.8569L13.1762 24.9534L13.0778 24.9223L6.65112 22.893L6.61618 22.882V22.8453V6C6.61618 2.71961 3.94656 0.05 0.666178 0.05C0.325792 0.05 0.049511 0.326281 0.049511 0.666667C0.049511 1.00705 0.325792 1.28333 0.666178 1.28333C3.26713 1.28333 5.38284 3.39905 5.38284 6V22.7147ZM27.0887 27.3199L27.0878 27.3198C26.755 28.2545 25.7504 28.8015 24.7754 28.6131L24.7753 28.6134L24.7698 28.6117L22.9298 28.0303L22.9294 28.0302L15.5401 25.6329L15.5394 25.6327C14.4784 25.2717 13.9046 24.1045 14.2709 23.0345L14.2758 23.0198L14.2761 23.0189L16.4504 16.0411L16.4505 16.0408C16.7267 15.1727 17.5359 14.6167 18.4048 14.6167C18.61 14.6167 18.8191 14.6481 19.0253 14.7137L19.0253 14.7137L27.9533 17.5537C29.0154 17.8913 29.6166 19.035 29.294 20.1025L29.294 20.1026L27.0887 27.3199ZM8.04951 27.3333C8.04951 29.1983 6.53247 30.7167 4.66618 30.7167C2.79988 30.7167 1.28284 29.1983 1.28284 27.3333C1.28284 25.4684 2.79988 23.95 4.66618 23.95C6.53247 23.95 8.04951 25.4684 8.04951 27.3333Z" fill="#0D2441" stroke="#0D2441" stroke-width="0.1"/>
<path d="M23.7529 21.0334L23.7876 21.0446C23.8597 21.0676 23.9343 21.0776 24.0042 21.0776C24.308 21.0776 24.5904 20.8828 24.6878 20.5775C24.8083 20.2003 24.5989 19.7977 24.2221 19.6773L24.222 19.6773L20.9354 18.632L20.9353 18.6319C20.5599 18.513 20.1544 18.7205 20.0352 19.0977L23.7529 21.0334ZM23.7529 21.0334V21.0322M23.7529 21.0334V21.0322M23.7529 21.0322L20.5011 19.9979L20.501 19.9979C20.1242 19.8776 19.9148 19.4749 20.0352 19.0978L23.7529 21.0322Z" fill="#E72E2C" stroke="#E72E2C" stroke-width="0.1"/>
</g>
<defs>
<clipPath id="clip0_720_46066">
<rect width="32" height="32" fill="white" transform="matrix(-1 0 0 1 32 0)"/>
</clipPath>
</defs>
</svg>
