<svg width="36" height="36" viewBox="0 0 36 36" fill="none" xmlns="http://www.w3.org/2000/svg">
<path d="M27.9997 17.9987C27.9997 23.5215 23.5225 27.9987 17.9997 27.9987C12.4768 27.9987 7.99967 23.5215 7.99967 17.9987M27.9997 17.9987C27.9997 12.4758 23.5225 7.9987 17.9997 7.9987C12.4768 7.9987 7.99967 12.4758 7.99967 17.9987M27.9997 17.9987H21.333M7.99967 17.9987H14.6663M21.333 17.9987C21.333 19.8396 19.8406 21.332 17.9997 21.332C16.1587 21.332 14.6663 19.8396 14.6663 17.9987M21.333 17.9987C21.333 16.1577 19.8406 14.6654 17.9997 14.6654C16.1587 14.6654 14.6663 16.1577 14.6663 17.9987M12.9996 26.659L16.333 20.8855M19.6662 15.1123L22.9995 9.33875M22.9997 26.6592L19.6663 20.8857M16.333 15.1121L12.9997 9.33864M34.6663 17.9987C34.6663 27.2034 27.2044 34.6654 17.9997 34.6654C8.79493 34.6654 1.33301 27.2034 1.33301 17.9987C1.33301 8.79395 8.79493 1.33203 17.9997 1.33203C27.2044 1.33203 34.6663 8.79395 34.6663 17.9987Z" stroke="#0D1C41" stroke-width="1.5" stroke-linecap="round"/>
</svg>
