<svg width="32" height="32" viewBox="0 0 32 32" fill="none" xmlns="http://www.w3.org/2000/svg">
<path d="M2.66667 21.3333C2.66667 17.5621 2.66667 15.6765 3.83824 14.5049C5.00982 13.3333 6.89544 13.3333 10.6667 13.3333H21.3333C25.1046 13.3333 26.9902 13.3333 28.1618 14.5049C29.3333 15.6765 29.3333 17.5621 29.3333 21.3333C29.3333 25.1046 29.3333 26.9902 28.1618 28.1618C26.9902 29.3333 25.1046 29.3333 21.3333 29.3333H10.6667C6.89544 29.3333 5.00982 29.3333 3.83824 28.1618C2.66667 26.9902 2.66667 25.1046 2.66667 21.3333Z" stroke="#0D2441" stroke-width="1.5"/>
<path d="M16 18.6667V24" stroke="#E72E2C" stroke-width="1.5" stroke-linecap="round"/>
<path d="M8 13.3333V10.6667C8 6.24838 11.5817 2.66666 16 2.66666C20.4183 2.66666 24 6.24838 24 10.6667V13.3333" stroke="#0D2441" stroke-width="1.5" stroke-linecap="round"/>
</svg>
