<svg width="32" height="32" viewBox="0 0 32 32" fill="none" xmlns="http://www.w3.org/2000/svg">
<path d="M13.0417 5.18765C13.7936 4.54694 14.1695 4.22659 14.5625 4.03873C15.4716 3.60424 16.5284 3.60424 17.4374 4.03873C17.8305 4.22659 18.2064 4.54694 18.9582 5.18765C19.2575 5.44265 19.4071 5.57015 19.5669 5.67725C19.9331 5.92275 20.3445 6.09314 20.7771 6.17855C20.9658 6.2158 21.1618 6.23144 21.5537 6.26271C22.5383 6.34129 23.0307 6.38058 23.4414 6.52566C24.3915 6.86123 25.1387 7.6085 25.4743 8.55854C25.6194 8.9693 25.6587 9.46163 25.7373 10.4463C25.7685 10.8382 25.7842 11.0342 25.8214 11.2229C25.9068 11.6555 26.0772 12.0668 26.3227 12.4331C26.4298 12.5929 26.5573 12.7425 26.8123 13.0417C27.453 13.7936 27.7734 14.1695 27.9612 14.5625C28.3957 15.4716 28.3957 16.5284 27.9612 17.4374C27.7734 17.8305 27.453 18.2064 26.8123 18.9582C26.5573 19.2575 26.4298 19.4071 26.3227 19.5669C26.0772 19.9331 25.9068 20.3445 25.8214 20.7771C25.7842 20.9658 25.7685 21.1618 25.7373 21.5537C25.6587 22.5383 25.6194 23.0307 25.4743 23.4414C25.1387 24.3915 24.3915 25.1387 23.4414 25.4743C23.0307 25.6194 22.5383 25.6587 21.5537 25.7373C21.1618 25.7685 20.9658 25.7842 20.7771 25.8214C20.3445 25.9068 19.9331 26.0772 19.5669 26.3227C19.4071 26.4298 19.2575 26.5573 18.9582 26.8123C18.2064 27.453 17.8305 27.7734 17.4374 27.9612C16.5284 28.3957 15.4716 28.3957 14.5625 27.9612C14.1695 27.7734 13.7936 27.453 13.0417 26.8123C12.7425 26.5573 12.5929 26.4298 12.4331 26.3227C12.0668 26.0772 11.6555 25.9068 11.2229 25.8214C11.0342 25.7842 10.8382 25.7685 10.4463 25.7373C9.46163 25.6587 8.9693 25.6194 8.55854 25.4743C7.6085 25.1387 6.86123 24.3915 6.52566 23.4414C6.38058 23.0307 6.34129 22.5383 6.26271 21.5537C6.23144 21.1618 6.2158 20.9658 6.17855 20.7771C6.09314 20.3445 5.92275 19.9331 5.67725 19.5669C5.57015 19.4071 5.44265 19.2575 5.18765 18.9582C4.54694 18.2064 4.22659 17.8305 4.03873 17.4374C3.60424 16.5284 3.60424 15.4716 4.03873 14.5625C4.22659 14.1695 4.54694 13.7936 5.18765 13.0417C5.44265 12.7425 5.57015 12.5929 5.67725 12.4331C5.92275 12.0668 6.09314 11.6555 6.17855 11.2229C6.2158 11.0342 6.23144 10.8382 6.26271 10.4463C6.34129 9.46163 6.38058 8.9693 6.52566 8.55854C6.86123 7.6085 7.6085 6.86123 8.55854 6.52566C8.9693 6.38058 9.46163 6.34129 10.4463 6.26271C10.8382 6.23144 11.0342 6.2158 11.2229 6.17855C11.6555 6.09314 12.0668 5.92275 12.4331 5.67725C12.5929 5.57015 12.7425 5.44265 13.0417 5.18765Z" stroke="#0D2441" stroke-width="1.5"/>
<path d="M12 20L20 12" stroke="#DA362C" stroke-width="1.5" stroke-linecap="round"/>
<path d="M20.1667 19.3333C20.1667 19.7936 19.7936 20.1667 19.3333 20.1667C18.8731 20.1667 18.5 19.7936 18.5 19.3333C18.5 18.8731 18.8731 18.5 19.3333 18.5C19.7936 18.5 20.1667 18.8731 20.1667 19.3333Z" fill="#E72E2C" stroke="#DA362C"/>
<path d="M13.5 12.6667C13.5 13.1269 13.1269 13.5 12.6667 13.5C12.2064 13.5 11.8333 13.1269 11.8333 12.6667C11.8333 12.2064 12.2064 11.8333 12.6667 11.8333C13.1269 11.8333 13.5 12.2064 13.5 12.6667Z" fill="#E72E2C" stroke="#DA362C"/>
</svg>
