<svg width="30" height="30" viewBox="0 0 30 30" fill="none" xmlns="http://www.w3.org/2000/svg">
<g clip-path="url(#clip0_322_7296)">
<path d="M5.05003 21.295V21.3529L4.99274 21.3445C4.79149 21.3148 4.58518 21.3 4.37503 21.3C1.99016 21.3 0.0500298 23.2413 0.0500298 25.6263C0.0500298 28.0111 1.99014 29.9513 4.37503 29.9513C6.75991 29.9513 8.70003 28.0111 8.70003 25.6263C8.70003 24.7847 8.45908 23.9989 8.04144 23.3341L7.96902 23.2188L8.09883 23.2598L29.2026 29.9236L29.2031 29.9237C29.2587 29.9419 29.3171 29.95 29.375 29.95C29.6201 29.95 29.8466 29.7923 29.9236 29.5475L29.9236 29.5475C30.0191 29.2449 29.8523 28.9219 29.5488 28.8265L29.5487 28.8264L25.4075 27.5189L25.3123 27.4889L25.3934 27.4306C25.8827 27.079 26.2748 26.5813 26.4913 25.9755L28.5684 19.1818C28.5684 19.1818 28.5685 19.1817 28.5685 19.1816C29.0517 17.5803 28.1488 15.8656 26.5561 15.3589L18.1862 12.6964C16.5662 12.1847 14.8368 13.0803 14.3227 14.6939L12.2853 21.2324L12.2853 21.2324L12.2849 21.2336C12.0475 21.9321 12.0782 22.6602 12.3218 23.3023L12.3584 23.3988L12.26 23.3677L6.23498 21.4652L6.20003 21.4541V21.4175V5.625C6.20003 2.55136 3.69867 0.05 0.625031 0.05C0.307644 0.05 0.0500298 0.307614 0.0500298 0.625C0.0500298 0.942386 0.307644 1.2 0.625031 1.2C3.06514 1.2 5.05003 3.18489 5.05003 5.625V21.295ZM25.3991 25.6134L25.3983 25.6132C25.0858 26.4912 24.1424 27.0048 23.2268 26.8278L23.2267 26.8282L23.2212 26.8264L21.4962 26.2814L21.4959 26.2813L14.5683 24.0338L14.5677 24.0336C13.5714 23.6946 13.0326 22.5986 13.3765 21.5938L13.381 21.5801L13.3813 21.5792L15.4198 15.0376L15.4199 15.0373C15.6792 14.2221 16.4391 13.7 17.255 13.7C17.4477 13.7 17.644 13.7295 17.8377 13.7911L17.8377 13.7911L26.2077 16.4536C27.205 16.7706 27.7695 17.8446 27.4666 18.847L27.4666 18.8471L25.3991 25.6134ZM7.55003 25.625C7.55003 27.3751 6.12641 28.8 4.37503 28.8C2.62365 28.8 1.20003 27.3751 1.20003 25.625C1.20003 23.8749 2.62365 22.45 4.37503 22.45C6.12641 22.45 7.55003 23.8749 7.55003 25.625Z" fill="#0D2441" stroke="#0D2441" stroke-width="0.1"/>
<path d="M22.265 19.7215L22.2997 19.7326C22.3677 19.7544 22.4378 19.7637 22.5037 19.7637C22.7899 19.7637 23.0558 19.5802 23.1476 19.2927C23.1476 19.2927 23.1476 19.2927 23.1476 19.2927L22.265 19.7215ZM22.265 19.7215V19.7203M22.265 19.7215V19.7203M22.265 19.7203L19.2185 18.7514L19.2185 18.7514C18.8636 18.638 18.6664 18.2587 18.7798 17.9035L22.265 19.7203Z" fill="#E72E2C" stroke="#E72E2C" stroke-width="0.1"/>
</g>
<defs>
<clipPath id="clip0_322_7296">
<rect width="30" height="30" fill="white" transform="matrix(-1 0 0 1 30 0)"/>
</clipPath>
</defs>
</svg>
