<svg width="404" height="150" viewBox="0 0 404 150" fill="none" xmlns="http://www.w3.org/2000/svg">
<path d="M104.139 150H69.1548V121.599H0V97.4053L66.1039 0H104.139V90.6732H120.411V121.599H104.139V150ZM59.5952 59.3268L38.0352 90.6732H69.765V71.7391C69.765 58.906 70.5786 46.9145 72.4092 36.3955H71.799C67.1209 47.1248 63.4597 53.2258 59.5952 59.3268Z" fill="#F6ABAB"/>
<path d="M201.972 150C166.377 150 144.411 121.448 144.411 75C144.411 28.3512 166.377 0 201.972 0C237.566 0 259.533 28.3512 259.533 75C259.533 121.448 237.566 150 201.972 150ZM201.972 117.627C215.396 117.627 222.718 102.949 222.718 74.7989C222.718 46.8499 215.396 32.3727 201.972 32.3727C188.548 32.3727 181.022 46.8499 181.022 74.7989C181.022 102.949 188.548 117.627 201.972 117.627Z" fill="#F6ABAB"/>
<path d="M387.672 150H352.688V121.599H283.533V97.4053L349.637 0H387.672V90.6732H403.944V121.599H387.672V150ZM343.128 59.3268L321.568 90.6732H353.298V71.7391C353.298 58.906 354.112 46.9145 355.942 36.3955H355.332C350.654 47.1248 346.993 53.2258 343.128 59.3268Z" fill="#F6ABAB"/>
</svg>
