<svg width="56" height="39" viewBox="0 0 56 39" fill="none" xmlns="http://www.w3.org/2000/svg">
<path d="M52.3688 38.5632H3.63122C1.62965 38.5632 0 36.9336 0 34.9211V4.14294C0 2.14137 1.62965 0.511719 3.63122 0.511719H52.3578C54.3703 0.511719 55.9999 2.14137 55.9999 4.14294V34.9211C56 36.9336 54.3704 38.5632 52.3688 38.5632Z" fill="#505278"/>
<path d="M52.3688 0.511719H28V38.5632H52.3687C54.3812 38.5632 56 36.9336 56 34.932V4.14294C56 2.14137 54.3704 0.511719 52.3688 0.511719Z" fill="#424566"/>
<path d="M29.2141 0.510928C28.8421 11.7437 19.5891 20.7562 8.26874 20.7562C5.33746 20.7562 2.5375 20.1546 0 19.05V14.1609C2.43906 15.5718 5.26097 16.3703 8.26874 16.3703C17.1719 16.3703 24.4563 9.3156 24.8281 0.5H29.214V0.510928H29.2141Z" fill="#575982"/>
<path d="M28 0.511719V6.8664C28.711 4.86483 29.1375 2.73203 29.214 0.511719H28Z" fill="#505278"/>
<path d="M56.0009 22.7573V27.1979C53.3759 26.6948 50.8165 26.476 48.279 26.7276C43.6962 27.187 39.4415 29.3308 34.8805 33.4761C34.1477 34.1433 33.404 34.8324 32.693 35.4995C31.5993 36.5168 30.5055 37.5448 29.357 38.5511H22.2695C24.8945 36.8011 27.2461 34.6027 29.707 32.3058C30.4398 31.6277 31.1836 30.9167 31.9383 30.2386C37.232 25.437 42.2851 22.9323 47.8414 22.3745C50.5869 22.1011 53.365 22.3198 56.0009 22.7573Z" fill="#505278"/>
<path d="M22.2695 38.5629H28.0008V33.8926C26.1305 35.6097 24.282 37.2176 22.2695 38.5629Z" fill="#575982"/>
<path d="M11.725 19.0289H6.35468C5.53435 19.0289 4.86719 18.3618 4.86719 17.5414V13.9758C4.86719 13.1554 5.53435 12.4883 6.35468 12.4883H11.725C12.5454 12.4883 13.2125 13.1554 13.2125 13.9758V17.5414C13.2016 18.3727 12.5453 19.0289 11.725 19.0289Z" fill="#424566"/>
<path d="M11.7254 18.9406H6.34413C5.57853 18.9406 4.95508 18.3172 4.95508 17.5516V13.975C4.95508 13.2094 5.57853 12.5859 6.34413 12.5859H11.7254C12.491 12.5859 13.1144 13.2094 13.1144 13.975V17.5516C13.1144 18.3172 12.491 18.9406 11.7254 18.9406Z" fill="#FEBD55"/>
<path d="M13.1144 15.8789V15.6602H10.2707V14.6977L11.0035 13.9649H13.1144C13.1144 13.8883 13.1035 13.8118 13.0926 13.7461H10.9489C10.9161 13.7461 10.8941 13.757 10.8723 13.7789L10.1067 14.5445H9.14409V12.5977H8.92535V14.5445H7.97378L7.20818 13.7789C7.18632 13.757 7.15345 13.7461 7.13159 13.7461H4.97693C4.96601 13.8118 4.95508 13.8883 4.95508 13.9649H7.08788L7.80977 14.6867V15.6602H4.95508V15.8789H7.80977V16.8523L7.08788 17.5742H4.95508C4.95508 17.6508 4.96601 17.7273 4.97693 17.793H7.13159C7.16437 17.793 7.18632 17.782 7.20818 17.7602L7.97378 16.9946H8.92535V18.9414H9.14409V16.9946H10.1066L10.8722 17.7602C10.894 17.782 10.9159 17.793 10.9488 17.793H13.0925C13.1034 17.7273 13.1144 17.6508 13.1144 17.5742H11.0034L10.2706 16.8414V15.8789H13.1144ZM10.0519 16.7757H8.02851V14.7523H10.0519V16.7757Z" fill="#B5613C"/>
<path d="M50.138 18.8746C50.0833 18.8746 50.0396 18.8637 49.9959 18.8419C49.8318 18.7653 49.7662 18.5684 49.8537 18.4044C50.6959 16.7309 50.6959 14.8169 49.8537 13.1434C49.7771 12.9793 49.8428 12.7825 49.9959 12.7059C50.16 12.6293 50.3568 12.695 50.4334 12.8481C51.374 14.7075 51.374 16.8403 50.4334 18.6996C50.3677 18.8091 50.2583 18.8746 50.138 18.8746ZM49.0114 18.2512C49.8974 16.6762 49.8974 14.8606 49.0114 13.2856C48.9239 13.1325 48.727 13.0668 48.563 13.1653C48.4099 13.2528 48.3443 13.4497 48.4427 13.6137C49.2193 14.9918 49.2193 16.5668 48.4427 17.934C48.3552 18.0871 48.4099 18.2949 48.563 18.3824C48.6178 18.4152 48.6724 18.4261 48.7271 18.4261C48.8364 18.4153 48.9458 18.3496 49.0114 18.2512ZM47.6115 17.8028C48.4755 16.545 48.4755 14.9809 47.6115 13.7121C47.513 13.559 47.3052 13.5262 47.1521 13.6246C46.999 13.723 46.9662 13.9309 47.0646 14.0839C47.7646 15.1121 47.7646 16.4027 47.0646 17.4309C46.9662 17.5839 46.9989 17.7808 47.1521 17.8902C47.2069 17.9339 47.2724 17.9448 47.3381 17.9448C47.4474 17.956 47.5458 17.9012 47.6115 17.8028ZM46.1349 17.3871C46.6162 16.9497 46.8786 16.3699 46.8786 15.7684C46.8786 15.1669 46.6162 14.5872 46.1349 14.1497C46.0037 14.0294 45.7959 14.0294 45.6756 14.1716C45.5553 14.3028 45.5553 14.5106 45.6974 14.6309C46.0365 14.9481 46.2224 15.3528 46.2224 15.7684C46.2224 16.1841 46.0365 16.5888 45.6974 16.9059C45.5662 17.0262 45.5553 17.2341 45.6756 17.3653C45.7412 17.431 45.8286 17.4747 45.9162 17.4747C45.9926 17.4747 46.0692 17.4419 46.1349 17.3871Z" fill="#CAD4FF"/>
<path d="M27.5519 33.0508H5.28319C5.09723 33.0508 4.95508 32.9086 4.95508 32.7226C4.95508 32.5367 5.09723 32.3945 5.28319 32.3945H27.5519C27.7379 32.3945 27.88 32.5367 27.88 32.7226C27.88 32.9086 27.7269 33.0508 27.5519 33.0508Z" fill="#E6EAFF"/>
<path d="M50.8039 33.0508H46.582C46.3961 33.0508 46.2539 32.9086 46.2539 32.7226C46.2539 32.5367 46.3961 32.3945 46.582 32.3945H50.8039C50.9899 32.3945 51.132 32.5367 51.132 32.7226C51.132 32.9086 50.9789 33.0508 50.8039 33.0508ZM44.7883 32.7226C44.7883 32.5367 44.6461 32.3945 44.4602 32.3945H40.2383C40.0523 32.3945 39.9102 32.5367 39.9102 32.7226C39.9102 32.9086 40.0523 33.0508 40.2383 33.0508H44.4602C44.6461 33.0508 44.7883 32.8977 44.7883 32.7226Z" fill="#CAD4FF"/>
<path d="M5.28319 7.97028C5.09723 7.97028 4.95508 7.82812 4.95508 7.64216V6.35155C4.95508 6.16559 5.09723 6.02344 5.28319 6.02344C5.46915 6.02344 5.61131 6.16559 5.61131 6.35155V7.63123C5.61131 7.81719 5.46915 7.97028 5.28319 7.97028ZM7.39414 7.64216V6.35155C7.39414 6.16559 7.25198 6.02344 7.06602 6.02344C6.88006 6.02344 6.73791 6.16559 6.73791 6.35155V7.63123C6.73791 7.81719 6.88006 7.95935 7.06602 7.95935C7.25189 7.97028 7.39414 7.81719 7.39414 7.64216ZM9.18789 7.64216V6.35155C9.18789 6.16559 9.04574 6.02344 8.85978 6.02344C8.67382 6.02344 8.53166 6.16559 8.53166 6.35155V7.63123C8.53166 7.81719 8.67382 7.95935 8.85978 7.95935C9.03472 7.97028 9.18789 7.81719 9.18789 7.64216ZM10.9707 7.64216V6.35155C10.9707 6.16559 10.8286 6.02344 10.6426 6.02344C10.4566 6.02344 10.3145 6.16559 10.3145 6.35155V7.63123C10.3145 7.81719 10.4566 7.95935 10.6426 7.95935C10.8285 7.97028 10.9707 7.81719 10.9707 7.64216Z" fill="#E6EAFF"/>
<path d="M5.96016 27.4832H5.90543C5.35857 27.4832 4.91016 27.0347 4.91016 26.4879V24.9347C4.91016 24.3879 5.35857 23.9395 5.90543 23.9395H5.96016C6.50702 23.9395 6.95544 24.3879 6.95544 24.9347V26.4879C6.95553 27.0347 6.51804 27.4832 5.96016 27.4832ZM5.90552 24.5956C5.71956 24.5956 5.56648 24.7487 5.56648 24.9346V26.4878C5.56648 26.6738 5.71956 26.8268 5.90552 26.8268H5.96026C6.14622 26.8268 6.2993 26.6738 6.2993 26.4878V24.9346C6.2993 24.7487 6.14622 24.5956 5.96026 24.5956H5.90552Z" fill="#E6EAFF"/>
<path d="M8.61837 27.4832H8.56364C8.01678 27.4832 7.56836 27.0347 7.56836 26.4879V24.9347C7.56836 24.3879 8.01678 23.9395 8.56364 23.9395H8.61837C9.16523 23.9395 9.61364 24.3879 9.61364 24.9347V26.4879C9.61373 27.0347 9.17625 27.4832 8.61837 27.4832ZM8.56373 24.5956C8.37777 24.5956 8.22468 24.7487 8.22468 24.9346V26.4878C8.22468 26.6738 8.37777 26.8268 8.56373 26.8268H8.61846C8.80442 26.8268 8.9575 26.6738 8.9575 26.4878V24.9346C8.9575 24.7487 8.80442 24.5956 8.61846 24.5956H8.56373Z" fill="#E6EAFF"/>
<path d="M11.2766 27.4832H11.2218C10.675 27.4832 10.2266 27.0347 10.2266 26.4879V24.9347C10.2266 24.3879 10.675 23.9395 11.2218 23.9395H11.2766C11.8234 23.9395 12.2718 24.3879 12.2718 24.9347V26.4879C12.2718 27.0347 11.8234 27.4832 11.2766 27.4832ZM11.2218 24.5956C11.0359 24.5956 10.8828 24.7487 10.8828 24.9346V26.4878C10.8828 26.6738 11.0359 26.8268 11.2218 26.8268H11.2766C11.4625 26.8268 11.6156 26.6738 11.6156 26.4878V24.9346C11.6156 24.7487 11.4625 24.5956 11.2766 24.5956H11.2218Z" fill="#E6EAFF"/>
<path d="M13.9328 27.4832H13.8781C13.3312 27.4832 12.8828 27.0347 12.8828 26.4879V24.9347C12.8828 24.3879 13.3312 23.9395 13.8781 23.9395H13.9328C14.4797 23.9395 14.9281 24.3879 14.9281 24.9347V26.4879C14.9281 27.0347 14.4797 27.4832 13.9328 27.4832ZM13.8781 24.5956C13.6921 24.5956 13.539 24.7487 13.539 24.9346V26.4878C13.539 26.6738 13.6921 26.8268 13.8781 26.8268H13.9328C14.1188 26.8268 14.2719 26.6738 14.2719 26.4878V24.9346C14.2719 24.7487 14.1188 24.5956 13.9328 24.5956H13.8781Z" fill="#E6EAFF"/>
<path d="M18.0129 27.4832H17.9582C17.4113 27.4832 16.9629 27.0347 16.9629 26.4879V24.9347C16.9629 24.3879 17.4113 23.9395 17.9582 23.9395H18.0129C18.5598 23.9395 19.0082 24.3879 19.0082 24.9347V26.4879C19.0083 27.0347 18.5598 27.4832 18.0129 27.4832ZM17.9583 24.5956C17.7723 24.5956 17.6192 24.7487 17.6192 24.9346V26.4878C17.6192 26.6738 17.7723 26.8268 17.9583 26.8268H18.013C18.1989 26.8268 18.352 26.6738 18.352 26.4878V24.9346C18.352 24.7487 18.1989 24.5956 18.013 24.5956H17.9583Z" fill="#E6EAFF"/>
<path d="M20.6711 27.4832H20.6164C20.0695 27.4832 19.6211 27.0347 19.6211 26.4879V24.9347C19.6211 24.3879 20.0695 23.9395 20.6164 23.9395H20.6711C21.218 23.9395 21.6664 24.3879 21.6664 24.9347V26.4879C21.6665 27.0347 21.218 27.4832 20.6711 27.4832ZM20.6165 24.5956C20.4305 24.5956 20.2774 24.7487 20.2774 24.9346V26.4878C20.2774 26.6738 20.4305 26.8268 20.6165 26.8268H20.6712C20.8572 26.8268 21.0102 26.6738 21.0102 26.4878V24.9346C21.0102 24.7487 20.8572 24.5956 20.6712 24.5956H20.6165Z" fill="#E6EAFF"/>
<path d="M23.3293 27.4832H23.2746C22.7277 27.4832 22.2793 27.0347 22.2793 26.4879V24.9347C22.2793 24.3879 22.7277 23.9395 23.2746 23.9395H23.3293C23.8762 23.9395 24.3246 24.3879 24.3246 24.9347V26.4879C24.3247 27.0347 23.8763 27.4832 23.3293 27.4832ZM23.2747 24.5956C23.0887 24.5956 22.9356 24.7487 22.9356 24.9346V26.4878C22.9356 26.6738 23.0887 26.8268 23.2747 26.8268H23.3294C23.5154 26.8268 23.6684 26.6738 23.6684 26.4878V24.9346C23.6684 24.7487 23.5154 24.5956 23.3294 24.5956H23.2747Z" fill="#E6EAFF"/>
<path d="M25.9856 27.4832H25.9308C25.384 27.4832 24.9355 27.0347 24.9355 26.4879V24.9347C24.9355 24.3879 25.384 23.9395 25.9308 23.9395H25.9856C26.5324 23.9395 26.9808 24.3879 26.9808 24.9347V26.4879C26.9809 27.0347 26.5325 27.4832 25.9856 27.4832ZM25.9309 24.5956C25.745 24.5956 25.5919 24.7487 25.5919 24.9346V26.4878C25.5919 26.6738 25.745 26.8268 25.9309 26.8268H25.9856C26.1716 26.8268 26.3247 26.6738 26.3247 26.4878V24.9346C26.3247 24.7487 26.1716 24.5956 25.9856 24.5956H25.9309Z" fill="#E6EAFF"/>
<path d="M30.0656 27.4832H30.0109C29.464 27.4832 29.0156 27.0347 29.0156 26.4879V24.9347C29.0156 24.3879 29.464 23.9395 30.0109 23.9395H30.0656C30.6125 23.9395 31.0609 24.3879 31.0609 24.9347V26.4879C31.0609 27.0347 30.6125 27.4832 30.0656 27.4832ZM30.0109 24.5956C29.8249 24.5956 29.6719 24.7487 29.6719 24.9346V26.4878C29.6719 26.6738 29.8249 26.8268 30.0109 26.8268H30.0656C30.2516 26.8268 30.4047 26.6738 30.4047 26.4878V24.9346C30.4047 24.7487 30.2516 24.5956 30.0656 24.5956H30.0109Z" fill="#CAD4FF"/>
<path d="M32.7237 27.4832H32.6691C32.1222 27.4832 31.6738 27.0347 31.6738 26.4879V24.9347C31.6738 24.3879 32.1222 23.9395 32.6691 23.9395H32.7237C33.2706 23.9395 33.719 24.3879 33.719 24.9347V26.4879C33.719 27.0347 33.2706 27.4832 32.7237 27.4832ZM32.6691 24.5956C32.4831 24.5956 32.3301 24.7487 32.3301 24.9346V26.4878C32.3301 26.6738 32.4831 26.8268 32.6691 26.8268H32.7237C32.9097 26.8268 33.0628 26.6738 33.0628 26.4878V24.9346C33.0628 24.7487 32.9097 24.5956 32.7237 24.5956H32.6691Z" fill="#CAD4FF"/>
<path d="M35.382 27.4832H35.3273C34.7804 27.4832 34.332 27.0347 34.332 26.4879V24.9347C34.332 24.3879 34.7804 23.9395 35.3273 23.9395H35.382C35.9289 23.9395 36.3773 24.3879 36.3773 24.9347V26.4879C36.3774 27.0347 35.9289 27.4832 35.382 27.4832ZM35.3274 24.5956C35.1414 24.5956 34.9884 24.7487 34.9884 24.9346V26.4878C34.9884 26.6738 35.1414 26.8268 35.3274 26.8268H35.3821C35.5681 26.8268 35.7212 26.6738 35.7212 26.4878V24.9346C35.7212 24.7487 35.5681 24.5956 35.3821 24.5956H35.3274Z" fill="#CAD4FF"/>
<path d="M38.0383 27.4832H37.9836C37.4367 27.4832 36.9883 27.0347 36.9883 26.4879V24.9347C36.9883 24.3879 37.4367 23.9395 37.9836 23.9395H38.0383C38.5851 23.9395 39.0336 24.3879 39.0336 24.9347V26.4879C39.0337 27.0347 38.5851 27.4832 38.0383 27.4832ZM37.9836 24.5956C37.7977 24.5956 37.6446 24.7487 37.6446 24.9346V26.4878C37.6446 26.6738 37.7977 26.8268 37.9836 26.8268H38.0384C38.2243 26.8268 38.3774 26.6738 38.3774 26.4878V24.9346C38.3774 24.7487 38.2243 24.5956 38.0384 24.5956H37.9836Z" fill="#CAD4FF"/>
<path d="M42.1203 27.4832H42.0656C41.5187 27.4832 41.0703 27.0347 41.0703 26.4879V24.9347C41.0703 24.3879 41.5187 23.9395 42.0656 23.9395H42.1203C42.6672 23.9395 43.1156 24.3879 43.1156 24.9347V26.4879C43.1156 27.0347 42.6672 27.4832 42.1203 27.4832ZM42.0656 24.5956C41.8796 24.5956 41.7265 24.7487 41.7265 24.9346V26.4878C41.7265 26.6738 41.8796 26.8268 42.0656 26.8268H42.1203C42.3063 26.8268 42.4594 26.6738 42.4594 26.4878V24.9346C42.4594 24.7487 42.3063 24.5956 42.1203 24.5956H42.0656Z" fill="#CAD4FF"/>
<path d="M44.7784 27.4832H44.7238C44.1769 27.4832 43.7285 27.0347 43.7285 26.4879V24.9347C43.7285 24.3879 44.1769 23.9395 44.7238 23.9395H44.7784C45.3253 23.9395 45.7737 24.3879 45.7737 24.9347V26.4879C45.7737 27.0347 45.3253 27.4832 44.7784 27.4832ZM44.7237 24.5956C44.5377 24.5956 44.3847 24.7487 44.3847 24.9346V26.4878C44.3847 26.6738 44.5377 26.8268 44.7237 26.8268H44.7783C44.9643 26.8268 45.1174 26.6738 45.1174 26.4878V24.9346C45.1174 24.7487 44.9643 24.5956 44.7783 24.5956H44.7237Z" fill="#CAD4FF"/>
<path d="M47.4367 27.4832H47.382C46.8351 27.4832 46.3867 27.0347 46.3867 26.4879V24.9347C46.3867 24.3879 46.8351 23.9395 47.382 23.9395H47.4367C47.9836 23.9395 48.432 24.3879 48.432 24.9347V26.4879C48.432 27.0347 47.9836 27.4832 47.4367 27.4832ZM47.3821 24.5956C47.1961 24.5956 47.043 24.7487 47.043 24.9346V26.4878C47.043 26.6738 47.1961 26.8268 47.3821 26.8268H47.4368C47.6228 26.8268 47.7759 26.6738 47.7759 26.4878V24.9346C47.7759 24.7487 47.6228 24.5956 47.4368 24.5956H47.3821Z" fill="#CAD4FF"/>
<path d="M50.093 27.4832H50.0382C49.4914 27.4832 49.043 27.0347 49.043 26.4879V24.9347C49.043 24.3879 49.4914 23.9395 50.0382 23.9395H50.093C50.6398 23.9395 51.0882 24.3879 51.0882 24.9347V26.4879C51.0883 27.0347 50.6398 27.4832 50.093 27.4832ZM50.0383 24.5956C49.8524 24.5956 49.6993 24.7487 49.6993 24.9346V26.4878C49.6993 26.6738 49.8524 26.8268 50.0383 26.8268H50.0931C50.279 26.8268 50.4321 26.6738 50.4321 26.4878V24.9346C50.4321 24.7487 50.279 24.5956 50.0931 24.5956H50.0383Z" fill="#CAD4FF"/>
</svg>
