<svg width="14" height="10" viewBox="0 0 14 10" fill="none" xmlns="http://www.w3.org/2000/svg">
<path d="M14 2.45703V1.71875C14 0.873062 13.3144 0.1875 12.4688 0.1875H1.53125C0.685562 0.1875 0 0.873062 0 1.71875V2.45703C0 2.53253 0.0612227 2.59375 0.136719 2.59375H13.8633C13.9388 2.59375 14 2.53253 14 2.45703Z" fill="#7D8391"/>
<path d="M0 3.60547V8.28125C0 9.12694 0.685562 9.8125 1.53125 9.8125H12.4688C13.3144 9.8125 14 9.12694 14 8.28125V3.60547C14 3.52997 13.9388 3.46875 13.8633 3.46875H0.136719C0.0612227 3.46875 0 3.52997 0 3.60547ZM3.5 7.1875C3.5 7.42911 3.30411 7.625 3.0625 7.625H2.625C2.38339 7.625 2.1875 7.42911 2.1875 7.1875V6.75C2.1875 6.50839 2.38339 6.3125 2.625 6.3125H3.0625C3.30411 6.3125 3.5 6.50839 3.5 6.75V7.1875Z" fill="#7D8391"/>
</svg>
