<svg width="16" height="16" viewBox="0 0 16 16" fill="none" xmlns="http://www.w3.org/2000/svg">
<path d="M6.62891 1.82829C6.62891 1.44958 6.93591 1.14258 7.31462 1.14258H8.68605C9.06476 1.14258 9.37176 1.44958 9.37176 1.82829V14.1712C9.37176 14.5499 9.06476 14.8569 8.68605 14.8569H7.31462C6.93591 14.8569 6.62891 14.5499 6.62891 14.1712V1.82829Z" fill="#7D8391"/>
<path d="M14.1717 6.62891C14.5504 6.62891 14.8574 6.93591 14.8574 7.31462L14.8574 8.68605C14.8574 9.06476 14.5504 9.37176 14.1717 9.37176L1.82885 9.37176C1.45014 9.37176 1.14314 9.06476 1.14314 8.68605L1.14314 7.31462C1.14314 6.93591 1.45014 6.62891 1.82885 6.62891L14.1717 6.62891Z" fill="#7D8391"/>
</svg>
