<svg width="43" height="44" viewBox="0 0 43 44" fill="none" xmlns="http://www.w3.org/2000/svg">
<path d="M29.5607 18.0607C30.1464 17.4749 30.1464 16.5251 29.5607 15.9393C28.9749 15.3536 28.0251 15.3536 27.4393 15.9393L18.5 24.8787L15.5607 21.9393C14.9749 21.3536 14.0251 21.3536 13.4393 21.9393C12.8536 22.5251 12.8536 23.4749 13.4393 24.0607L17.4393 28.0607C18.0251 28.6464 18.9749 28.6464 19.5607 28.0607L29.5607 18.0607Z" fill="#49A041"/>
<path fill-rule="evenodd" clip-rule="evenodd" d="M21.5 0.5C9.62588 0.5 0 10.1259 0 22C0 33.8741 9.62588 43.5 21.5 43.5C33.3741 43.5 43 33.8741 43 22C43 10.1259 33.3741 0.5 21.5 0.5ZM3 22C3 11.7827 11.2827 3.5 21.5 3.5C31.7173 3.5 40 11.7827 40 22C40 32.2173 31.7173 40.5 21.5 40.5C11.2827 40.5 3 32.2173 3 22Z" fill="#49A041"/>
</svg>
