<svg width="12" height="14" viewBox="0 0 12 14" fill="none" xmlns="http://www.w3.org/2000/svg">
<path fill-rule="evenodd" clip-rule="evenodd" d="M8.61473 6.05434H3.39911V4.35039C3.39911 3.63322 3.69163 2.98077 4.16478 2.50895C4.63797 2.03577 5.28908 1.74191 6.00625 1.74191C6.72342 1.74191 7.37587 2.0358 7.84769 2.50895C8.32084 2.98077 8.61473 3.63325 8.61473 4.35039V6.05434ZM10.8377 6.41293C10.7002 6.27678 10.5317 6.17162 10.3429 6.11231V4.35039C10.3429 3.15736 9.85494 2.07216 9.06902 1.28625C8.28311 0.500336 7.19926 0.0136719 6.00625 0.0136719C4.81322 0.0136719 3.72936 0.500336 2.94345 1.28625C2.15753 2.07216 1.66953 3.15736 1.66953 4.35039V6.10693C1.47542 6.16623 1.30151 6.27271 1.16132 6.41293C0.940246 6.63537 0.802734 6.94004 0.802734 7.27702V12.7636C0.802734 13.1006 0.940246 13.4053 1.16132 13.6277C1.38373 13.8488 1.68843 13.9863 2.02541 13.9863H9.97358C10.3106 13.9863 10.6153 13.8488 10.8377 13.6277C11.0587 13.4053 11.1963 13.1006 11.1963 12.7636V7.27702C11.1963 6.94001 11.0588 6.63537 10.8377 6.41293ZM5.15291 8.6925C5.36993 8.47681 5.66921 8.342 5.9995 8.342C6.32978 8.342 6.62903 8.47681 6.84609 8.6925C7.06314 8.90955 7.19658 9.20883 7.19658 9.53909C7.19658 9.79655 7.1157 10.0338 6.97818 10.2293C6.86359 10.3911 6.70991 10.5232 6.53062 10.6122V11.1676C6.53062 11.3131 6.47131 11.4466 6.37424 11.5423C6.27851 11.638 6.14641 11.6987 5.99947 11.6987C5.85386 11.6987 5.72043 11.638 5.6247 11.5423C5.52899 11.4466 5.46832 11.3131 5.46832 11.1676V10.6122C5.29036 10.5232 5.13669 10.3911 5.02209 10.2293C4.88324 10.0338 4.80236 9.79658 4.80236 9.53909C4.80241 9.2088 4.93722 8.90952 5.15291 8.6925Z" fill="#7D8391"/>
</svg>
