<svg width="24" height="32" viewBox="0 0 24 32" fill="none" xmlns="http://www.w3.org/2000/svg">
<path d="M4.19408 0H14.901L23.9644 9.45593V27.8372C23.9644 30.1365 22.1008 32 19.8016 32H4.19408C1.8948 32 0.03125 30.1364 0.03125 27.8372V4.16283C0.03125 1.86359 1.8948 0 4.19408 0Z" fill="#0263D1"/>
<path opacity="0.302" fill-rule="evenodd" clip-rule="evenodd" d="M14.8867 0V9.37826H23.963L14.8867 0Z" fill="white"/>
<path d="M3.89453 22.8344V17.537H5.77106C6.14635 17.537 6.4958 17.593 6.81934 17.6966C7.14287 17.8044 7.4362 17.9597 7.69938 18.1668C7.96251 18.3739 8.1696 18.65 8.32057 18.9951C8.47155 19.3402 8.54921 19.737 8.54921 20.1857C8.54921 20.6343 8.47155 21.0312 8.32057 21.3763C8.1696 21.7213 7.96251 21.9975 7.69938 22.2045C7.43625 22.4116 7.14287 22.5669 6.81934 22.6747C6.4958 22.7783 6.14639 22.8344 5.77106 22.8344H3.89453ZM5.21888 21.6826H5.61143C5.82281 21.6826 6.02125 21.6567 6.1981 21.6092C6.37927 21.5575 6.54318 21.4755 6.69848 21.3676C6.85378 21.2598 6.97455 21.1045 7.06083 20.9018C7.15144 20.7033 7.19454 20.4617 7.19454 20.1857C7.19454 19.9096 7.1514 19.668 7.06083 19.4652C6.97455 19.2668 6.85378 19.1115 6.69848 19.0037C6.54318 18.8915 6.37927 18.8139 6.1981 18.7621C6.02125 18.7146 5.82281 18.6888 5.61143 18.6888H5.21888V21.6826ZM11.763 22.8948C10.9649 22.8948 10.3049 22.6359 9.78295 22.1226C9.26098 21.6092 9.00213 20.9622 9.00213 20.1857C9.00213 19.4092 9.26098 18.7621 9.78295 18.2488C10.3049 17.7354 10.9649 17.4766 11.763 17.4766C12.5481 17.4766 13.1995 17.7355 13.7215 18.2488C14.2391 18.7622 14.498 19.4092 14.498 20.1857C14.498 20.9622 14.2391 21.6093 13.7215 22.1226C13.1995 22.6359 12.5481 22.8948 11.763 22.8948ZM10.7449 21.303C11.008 21.5963 11.3445 21.743 11.7543 21.743C12.1642 21.743 12.4963 21.5963 12.7595 21.303C13.0226 21.0053 13.152 20.6343 13.152 20.1857C13.152 19.737 13.0226 19.366 12.7595 19.0684C12.4963 18.775 12.1642 18.6283 11.7543 18.6283C11.3445 18.6283 11.008 18.775 10.7449 19.0684C10.4818 19.366 10.348 19.737 10.348 20.1857C10.348 20.6343 10.4818 21.0053 10.7449 21.303ZM17.647 22.8948C16.8749 22.8948 16.2321 22.6532 15.7231 22.1787C15.2097 21.6998 14.9552 21.0355 14.9552 20.1857C14.9552 19.3402 15.2141 18.6758 15.7317 18.197C16.2537 17.7181 16.8879 17.4766 17.6471 17.4766C18.333 17.4766 18.8938 17.6448 19.3381 17.9856C19.7781 18.3221 20.0326 18.7707 20.0973 19.3315L18.76 19.6033C18.704 19.3099 18.5702 19.0727 18.3632 18.8958C18.1561 18.7189 17.9145 18.6283 17.6384 18.6283C17.2588 18.6283 16.9439 18.7621 16.6894 19.0338C16.4349 19.3099 16.3054 19.6895 16.3054 20.1856C16.3054 20.6817 16.4349 21.0613 16.685 21.3331C16.9396 21.6092 17.2545 21.7429 17.6384 21.7429C17.9145 21.7429 18.1518 21.6653 18.3459 21.51C18.54 21.3547 18.6608 21.1477 18.7125 20.8888L20.08 21.1994C19.9549 21.7343 19.6788 22.1485 19.2475 22.4461C18.8204 22.7438 18.2855 22.8948 17.647 22.8948Z" fill="white"/>
</svg>
