<svg width="16" height="16" viewBox="0 0 16 16" fill="none" xmlns="http://www.w3.org/2000/svg">
<path d="M3.49977 13H12.4998C12.6898 13.0001 12.8727 13.0722 13.0116 13.202C13.1504 13.3317 13.2348 13.5093 13.2478 13.6989C13.2607 13.8885 13.2013 14.0759 13.0813 14.2233C12.9614 14.3707 12.79 14.4671 12.6018 14.493L12.4998 14.5H3.49977C3.30975 14.4999 3.12683 14.4278 2.98798 14.298C2.84913 14.1683 2.7647 13.9907 2.75175 13.8011C2.73879 13.6115 2.79829 13.4241 2.9182 13.2767C3.03812 13.1293 3.20952 13.0329 3.39777 13.007L3.49977 13H12.4998H3.49977ZM7.89777 1.007L7.99977 1C8.18101 1.00001 8.35611 1.06564 8.4927 1.18477C8.62929 1.30389 8.71812 1.46845 8.74277 1.648L8.74977 1.75V9.438L11.0048 7.184C11.1319 7.05687 11.3006 6.97966 11.4799 6.96645C11.6592 6.95323 11.8373 7.00489 11.9818 7.112L12.0658 7.184C12.1929 7.31117 12.2701 7.47979 12.2833 7.65912C12.2965 7.83845 12.2449 8.01657 12.1378 8.161L12.0658 8.245L8.52977 11.78C8.40278 11.907 8.23443 11.9842 8.05532 11.9976C7.87621 12.011 7.69824 11.9597 7.55377 11.853L7.46977 11.78L3.93377 8.245C3.79958 8.11118 3.72102 7.93151 3.7139 7.74213C3.70678 7.55274 3.77162 7.36768 3.89538 7.22416C4.01915 7.08063 4.19266 6.98928 4.38103 6.96848C4.5694 6.94767 4.75867 6.99895 4.91077 7.112L4.99477 7.184L7.24977 9.44V1.75C7.24978 1.56876 7.31541 1.39366 7.43454 1.25707C7.55366 1.12048 7.71822 1.03165 7.89777 1.007L7.99977 1L7.89777 1.007Z" fill="#E72E2C"/>
</svg>
