<svg width="14" height="14" viewBox="0 0 14 14" fill="none" xmlns="http://www.w3.org/2000/svg">
<path d="M6.65136 10.5953L6.65136 10.5953L10.9656 6.28107C10.3784 6.03669 9.68299 5.63525 9.02527 4.97753C8.36744 4.31971 7.96599 3.62414 7.72161 3.03691L3.40728 7.35124L3.40726 7.35126C3.07061 7.68792 2.90226 7.85627 2.75749 8.04187C2.58671 8.26083 2.4403 8.49773 2.32083 8.7484C2.21956 8.9609 2.14428 9.18675 1.99371 9.63845L1.19973 12.0204C1.12563 12.2427 1.18349 12.4878 1.34917 12.6534C1.51485 12.8191 1.75992 12.877 1.98221 12.8029L4.36416 12.0089C4.81585 11.8583 5.04171 11.783 5.2542 11.6818C5.50487 11.5623 5.74178 11.4159 5.96073 11.2451C6.14634 11.1003 6.31469 10.932 6.65136 10.5953Z" fill="#E72E2C"/>
<path d="M12.1628 5.08392C13.0586 4.18809 13.0586 2.73567 12.1628 1.83984C11.2669 0.944012 9.81451 0.944012 8.91869 1.83984L8.40125 2.35728C8.40833 2.37867 8.41568 2.40037 8.42331 2.42234C8.61296 2.96901 8.97081 3.68564 9.64399 4.35881C10.3172 5.03199 11.0338 5.38984 11.5805 5.5795C11.6023 5.58708 11.6239 5.5944 11.6452 5.60146L12.1628 5.08392Z" fill="#E72E2C"/>
</svg>
