<svg width="16" height="16" viewBox="0 0 16 16" fill="none" xmlns="http://www.w3.org/2000/svg">
<path d="M15.8591 3.17871L11.0066 7.99993L15.8591 12.8211C15.9468 12.6378 16 12.4351 16 12.2187V3.78118C16 3.56471 15.9468 3.36205 15.8591 3.17871Z" fill="#E72E2C"/>
<path d="M14.5938 2.375H1.40626C1.18979 2.375 0.987131 2.42822 0.803787 2.51594L7.00576 8.68666C7.55413 9.23503 8.44588 9.23503 8.99426 8.68666L15.1962 2.51594C15.0129 2.42822 14.8102 2.375 14.5938 2.375Z" fill="#E72E2C"/>
<path d="M0.140938 3.17871C0.0532188 3.36205 0 3.56471 0 3.78118V12.2187C0 12.4351 0.0532188 12.6378 0.140938 12.8211L4.99341 7.99993L0.140938 3.17871Z" fill="#E72E2C"/>
<path d="M10.3438 8.66309L9.6571 9.34974C8.74338 10.2635 7.2566 10.2635 6.34288 9.34974L5.65626 8.66309L0.803787 13.4843C0.987131 13.572 1.18979 13.6252 1.40626 13.6252H14.5938C14.8102 13.6252 15.0129 13.572 15.1962 13.4843L10.3438 8.66309Z" fill="#E72E2C"/>
</svg>
