<svg width="66" height="60" viewBox="0 0 66 60" fill="none" xmlns="http://www.w3.org/2000/svg">
<path d="M1.5 1.78516H10.0027C10.2235 1.78516 10.4182 1.92999 10.4816 2.14148L13.4845 12.1509M13.4845 12.1509C13.4845 12.1509 17.8542 29.4271 19.5817 36.3376C20.3885 39.5647 23.475 39.7928 26.4922 39.7928H50.679C53.6963 39.7928 56.2074 39.7928 57.5895 36.3376C60.372 28.551 63.6174 15.7033 64.3486 12.7632C64.4269 12.4485 64.1872 12.1509 63.863 12.1509H13.4845ZM33 19.6448L45.6654 32.2975M45.6677 19.6448L33.0023 32.2975M33.4027 51.3068C33.4027 55.1233 30.3088 58.2173 26.4922 58.2173C22.6757 58.2173 19.5817 55.1233 19.5817 51.3068C19.5817 47.4902 22.6757 44.3963 26.4922 44.3963C30.3088 44.3963 33.4027 47.4902 33.4027 51.3068ZM57.5907 51.3068C57.5907 55.1233 54.4967 58.2173 50.6802 58.2173C46.8636 58.2173 43.7697 55.1233 43.7697 51.3068C43.7697 47.4902 46.8636 44.3963 50.6802 44.3963C54.4967 44.3963 57.5907 47.4902 57.5907 51.3068Z" stroke="#CDCFD5" stroke-width="2" stroke-linecap="round"/>
</svg>
