<svg width="18" height="18" viewBox="0 0 18 18" fill="none" xmlns="http://www.w3.org/2000/svg">
<g clip-path="url(#clip0_2412_231233)">
<path d="M12.6269 10.6662V8.73134C12.6269 8.43459 12.3863 8.19403 12.0896 8.19403H2.95522C2.65847 8.19403 2.41791 8.43459 2.41791 8.73134V15.1791H1.61194C0.72169 15.1791 0 14.4574 0 13.5672V5.87112C0 5.28572 0.317376 4.74633 0.829111 4.46203L6.98754 1.04068C7.49112 0.760914 8.10573 0.771154 8.59971 1.06754L14.2622 4.46502C14.7477 4.75634 15.0448 5.28103 15.0448 5.84725V9.54676C14.0997 9.61346 13.2509 10.0294 12.6269 10.6662ZM6.1791 6.04478H8.86567C9.16242 6.04478 9.40299 5.80421 9.40299 5.50746C9.40299 5.21071 9.16242 4.97015 8.86567 4.97015H6.1791C5.88235 4.97015 5.64179 5.21071 5.64179 5.50746C5.64179 5.80421 5.88235 6.04478 6.1791 6.04478ZM11.5522 15.1791H3.49254V9.26866H11.5522V15.1791Z" fill="#0D2441"/>
<path d="M14.8671 17.1548C15.057 17.2952 15.3162 17.2952 15.506 17.1548C15.5854 17.0961 15.7152 16.9919 15.8789 16.8467C16.1489 16.6072 16.4186 16.3362 16.6714 16.0373C17.4174 15.1554 17.8731 14.2131 17.8731 13.2302C17.8731 11.7465 16.6703 10.5437 15.1866 10.5437C13.7028 10.5437 12.5 11.7465 12.5 13.2302C12.5 14.2131 12.9557 15.1554 13.7017 16.0373C13.9545 16.3362 14.2242 16.6072 14.4942 16.8467C14.6579 16.9919 14.7878 17.0961 14.8671 17.1548Z" fill="#E72E2C"/>
<path d="M16.2625 13.2302C16.2625 13.8237 15.7814 14.3049 15.1879 14.3049C14.5944 14.3049 14.1133 13.8237 14.1133 13.2302C14.1133 12.6367 14.5944 12.1556 15.1879 12.1556C15.7814 12.1556 16.2625 12.6367 16.2625 13.2302Z" fill="#FAFAFA"/>
</g>
<defs>
<clipPath id="clip0_2412_231233">
<rect width="18" height="18" fill="white"/>
</clipPath>
</defs>
</svg>
