<svg width="20" height="20" viewBox="0 0 20 20" fill="none" xmlns="http://www.w3.org/2000/svg">
<path d="M19.8055 8.0415H19V8H10V12H15.6515C14.827 14.3285 12.6115 16 10 16C6.6865 16 4 13.3135 4 10C4 6.6865 6.6865 4 10 4C11.5295 4 12.921 4.577 13.9805 5.5195L16.809 2.691C15.023 1.0265 12.634 0 10 0C4.4775 0 0 4.4775 0 10C0 15.5225 4.4775 20 10 20C15.5225 20 20 15.5225 20 10C20 9.3295 19.931 8.675 19.8055 8.0415Z" fill="#FFC107"/>
<path d="M1.15234 5.3455L4.43784 7.755C5.32684 5.554 7.4805 4 10 4C11.5295 4 12.921 4.577 13.9805 5.5195L16.809 2.691C15.023 1.0265 12.634 0 10 0C6.159 0 2.82734 2.1685 1.15234 5.3455Z" fill="#FF3D00"/>
<path d="M10 20C12.583 20 14.9302 19.0118 16.7047 17.4043L13.6097 14.7853C12.5719 15.5745 11.3037 16.001 10 16C7.399 16 5.19066 14.3418 4.35866 12.0273L1.09766 14.5398C2.75266 17.7783 6.1135 20 10 20Z" fill="#4CAF50"/>
<path d="M19.8055 8.0415H19V8H10V12H15.6515C15.2571 13.1082 14.5467 14.0766 13.608 14.7855L13.6097 14.7853L16.7047 17.4043C16.4857 17.6033 20 15 20 10C20 9.3295 19.931 8.675 19.8055 8.0415Z" fill="#1976D2"/>
</svg>
