<svg width="14" height="14" viewBox="0 0 14 14" fill="none" xmlns="http://www.w3.org/2000/svg">
<path d="M10.7191 1.95304L9.38579 1.25334C8.21537 0.639135 7.63017 0.332031 7.00065 0.332031C6.37114 0.332031 5.78593 0.639135 4.61551 1.25334L4.40103 1.3659L10.3497 4.76515L13.0275 3.42625C12.5967 2.93836 11.9016 2.57359 10.7191 1.95304Z" fill="#2EA823"/>
<path d="M13.4996 4.30826L10.834 5.64105V7.66536C10.834 7.94151 10.6101 8.16536 10.334 8.16536C10.0578 8.16536 9.83398 7.94151 9.83398 7.66536V6.14105L7.50065 7.30772V13.6014C7.97926 13.4822 8.52382 13.1964 9.38578 12.7441L10.7191 12.0444C12.1536 11.2916 12.8708 10.9152 13.2691 10.2389C13.6673 9.56253 13.6673 8.72092 13.6673 7.03769V6.95971C13.6673 5.69793 13.6673 4.90908 13.4996 4.30826Z" fill="#2EA823"/>
<path d="M6.50065 13.6014V7.30772L0.501744 4.30826C0.333984 4.90908 0.333984 5.69793 0.333984 6.95971V7.03769C0.333984 8.72092 0.333984 9.56253 0.732249 10.2389C1.13051 10.9152 1.84773 11.2916 3.28217 12.0443L4.61551 12.7441C5.47747 13.1964 6.02204 13.4822 6.50065 13.6014Z" fill="#2EA823"/>
<path d="M0.973779 3.42625L7.00065 6.43968L9.27475 5.30263L3.35036 1.91726L3.28218 1.95304C2.09968 2.57359 1.40459 2.93836 0.973779 3.42625Z" fill="#2EA823"/>
</svg>
