<svg width="14" height="14" viewBox="0 0 14 14" fill="none" xmlns="http://www.w3.org/2000/svg">
<path d="M7.21875 0.875C4.68606 0.875 2.625 2.95035 2.625 5.50193C2.625 9.12742 6.78694 12.8708 6.96405 13.028C7.03704 13.0928 7.1279 13.125 7.21875 13.125C7.3096 13.125 7.40046 13.0928 7.47345 13.0285C7.65056 12.8708 11.8125 9.12742 11.8125 5.50193C11.8125 2.95035 9.75144 0.875 7.21875 0.875ZM7.21875 8.02083C5.81153 8.02083 4.66667 6.87597 4.66667 5.46875C4.66667 4.06153 5.81153 2.91667 7.21875 2.91667C8.62597 2.91667 9.77083 4.06153 9.77083 5.46875C9.77083 6.87597 8.62597 8.02083 7.21875 8.02083Z" fill="#49515A"/>
</svg>
