<?xml version="1.0" encoding="UTF-8"?>
<svg xmlns="http://www.w3.org/2000/svg" xmlns:xlink="http://www.w3.org/1999/xlink" width="32px" height="32px" viewBox="0 0 32 32" version="1.1">
<g id="surface1">
<path style=" stroke:none;fill-rule:nonzero;fill:rgb(88.627451%,89.803922%,90.588235%);fill-opacity:1;" d="M 8 0 C 6.898438 0 6 0.898438 6 2 L 6 30 C 6 31.101562 6.898438 32 8 32 L 28 32 C 29.101562 32 30 31.101562 30 30 L 30 8 L 22 0 Z M 8 0 "/>
<path style=" stroke:none;fill-rule:nonzero;fill:rgb(69.019608%,71.764706%,74.117647%);fill-opacity:1;" d="M 24 8 L 30 8 L 22 0 L 22 6 C 22 7.101562 22.898438 8 24 8 Z M 24 8 "/>
<path style=" stroke:none;fill-rule:nonzero;fill:rgb(79.215686%,81.960784%,84.705882%);fill-opacity:1;" d="M 30 14 L 24 8 L 30 8 Z M 30 14 "/>
<path style=" stroke:none;fill-rule:nonzero;fill:rgb(94.509804%,33.72549%,25.882353%);fill-opacity:1;" d="M 26 26 C 26 26.550781 25.550781 27 25 27 L 3 27 C 2.449219 27 2 26.550781 2 26 L 2 16 C 2 15.449219 2.449219 15 3 15 L 25 15 C 25.550781 15 26 15.449219 26 16 Z M 26 26 "/>
<path style=" stroke:none;fill-rule:nonzero;fill:rgb(100%,100%,100%);fill-opacity:1;" d="M 6.359375 18.945312 C 6.359375 18.683594 6.566406 18.394531 6.902344 18.394531 L 8.75 18.394531 C 9.789062 18.394531 10.726562 19.089844 10.726562 20.425781 C 10.726562 21.6875 9.789062 22.394531 8.75 22.394531 L 7.414062 22.394531 L 7.414062 23.449219 C 7.414062 23.800781 7.191406 24 6.902344 24 C 6.636719 24 6.359375 23.800781 6.359375 23.449219 Z M 7.414062 19.402344 L 7.414062 21.394531 L 8.75 21.394531 C 9.285156 21.394531 9.710938 20.921875 9.710938 20.425781 C 9.710938 19.867188 9.285156 19.402344 8.75 19.402344 Z M 7.414062 19.402344 "/>
<path style=" stroke:none;fill-rule:nonzero;fill:rgb(100%,100%,100%);fill-opacity:1;" d="M 12.289062 24 C 12.027344 24 11.738281 23.855469 11.738281 23.503906 L 11.738281 18.964844 C 11.738281 18.675781 12.027344 18.46875 12.289062 18.46875 L 14.121094 18.46875 C 17.777344 18.46875 17.695312 24 14.195312 24 Z M 12.796875 19.441406 L 12.796875 23.023438 L 14.121094 23.023438 C 16.28125 23.023438 16.378906 19.441406 14.121094 19.441406 Z M 12.796875 19.441406 "/>
<path style=" stroke:none;fill-rule:nonzero;fill:rgb(100%,100%,100%);fill-opacity:1;" d="M 18.992188 19.507812 L 18.992188 20.777344 L 21.03125 20.777344 C 21.320312 20.777344 21.605469 21.066406 21.605469 21.34375 C 21.605469 21.609375 21.320312 21.824219 21.03125 21.824219 L 18.992188 21.824219 L 18.992188 23.503906 C 18.992188 23.785156 18.792969 24 18.511719 24 C 18.160156 24 17.945312 23.785156 17.945312 23.503906 L 17.945312 18.960938 C 17.945312 18.675781 18.160156 18.464844 18.511719 18.464844 L 21.320312 18.464844 C 21.671875 18.464844 21.878906 18.675781 21.878906 18.960938 C 21.878906 19.21875 21.671875 19.507812 21.320312 19.507812 Z M 18.992188 19.507812 "/>
<path style=" stroke:none;fill-rule:nonzero;fill:rgb(79.215686%,81.960784%,84.705882%);fill-opacity:1;" d="M 25 27 L 6 27 L 6 28 L 25 28 C 25.550781 28 26 27.550781 26 27 L 26 26 C 26 26.550781 25.550781 27 25 27 Z M 25 27 "/>
</g>
</svg>
