<svg width="16" height="16" viewBox="0 0 16 16" fill="none" xmlns="http://www.w3.org/2000/svg">
<path d="M13.8766 10.1894C13.0195 10.1894 12.1779 10.0553 11.3804 9.79178C10.9896 9.65849 10.5092 9.78077 10.2707 10.0257L8.6965 11.2141C6.87092 10.2396 5.7464 9.11541 4.78521 7.30354L5.93857 5.77039C6.23822 5.47114 6.3457 5.03401 6.21693 4.62385C5.95224 3.82213 5.81779 2.98093 5.81779 2.12343C5.81782 1.50396 5.31386 1 4.69443 1H2.12339C1.50396 1 1 1.50396 1 2.12339C1 9.22365 6.77638 15 13.8766 15C14.4961 15 15 14.496 15 13.8766V11.3127C15 10.6934 14.496 10.1894 13.8766 10.1894Z" fill="#DA362C"/>
</svg>
