<svg width="16" height="16" viewBox="0 0 16 16" fill="none" xmlns="http://www.w3.org/2000/svg">
<g clip-path="url(#clip0_1763_244024)">
<path d="M12.6666 3.33333V1.83333C12.6666 0.822 11.8446 0 10.8333 0H5.16659C4.15525 0 3.33325 0.822 3.33325 1.83333V3.33333H12.6666Z" fill="#0D2441"/>
<path d="M14.1667 4H1.83333C0.822 4 0 4.822 0 5.83333V10.1667C0 11.178 0.822 12 1.83333 12H2.66667V9.16667C2.66667 8.52333 3.19 8 3.83333 8H12.1667C12.81 8 13.3333 8.52333 13.3333 9.16667V12H14.1667C15.178 12 16 11.178 16 10.1667V5.83333C16 4.822 15.178 4 14.1667 4Z" fill="#0D2441"/>
<path d="M12.1668 8.66602H3.8335C3.5575 8.66602 3.3335 8.89002 3.3335 9.16602V14.166C3.3335 15.1773 4.1555 15.9993 5.16683 15.9993H10.8335C11.8448 15.9993 12.6668 15.1773 12.6668 14.166V9.16602C12.6668 8.89002 12.4428 8.66602 12.1668 8.66602ZM5.8335 10.9993H6.8335C7.1095 10.9993 7.3335 11.2233 7.3335 11.4993C7.3335 11.7753 7.1095 11.9993 6.8335 11.9993H5.8335C5.5575 11.9993 5.3335 11.7753 5.3335 11.4993C5.3335 11.2233 5.5575 10.9993 5.8335 10.9993ZM9.50016 13.9993H5.8335C5.5575 13.9993 5.3335 13.7753 5.3335 13.4993C5.3335 13.2233 5.5575 12.9993 5.8335 12.9993H9.50016C9.77616 12.9993 10.0002 13.2233 10.0002 13.4993C10.0002 13.7753 9.77616 13.9993 9.50016 13.9993Z" fill="#0D2441"/>
</g>
<defs>
<clipPath id="clip0_1763_244024">
<rect width="16" height="16" fill="white"/>
</clipPath>
</defs>
</svg>
