<svg width="13" height="13" viewBox="0 0 13 13" fill="none" xmlns="http://www.w3.org/2000/svg">
<path d="M8.02717 6.49907L12.6817 1.8554C12.8855 1.65158 13 1.37513 13 1.08687C13 0.798614 12.8855 0.522165 12.6817 0.318338C12.4778 0.114509 12.2014 0 11.9131 0C11.6249 0 11.3484 0.114509 11.1446 0.318338L6.50093 4.97283L1.85725 0.318338C1.65342 0.114509 1.37697 -2.14767e-09 1.08872 0C0.800462 2.14767e-09 0.524013 0.114509 0.320184 0.318338C0.116357 0.522165 0.0018473 0.798614 0.00184729 1.08687C0.00184729 1.37513 0.116357 1.65158 0.320184 1.8554L4.97469 6.49907L0.320184 11.1428C0.218729 11.2434 0.138201 11.3631 0.0832475 11.495C0.0282934 11.6269 0 11.7684 0 11.9113C0 12.0542 0.0282934 12.1957 0.0832475 12.3276C0.138201 12.4595 0.218729 12.5792 0.320184 12.6798C0.420812 12.7813 0.540531 12.8618 0.672436 12.9168C0.80434 12.9717 0.945821 13 1.08872 13C1.23161 13 1.37309 12.9717 1.505 12.9168C1.63691 12.8618 1.75662 12.7813 1.85725 12.6798L6.50093 8.02531L11.1446 12.6798C11.2452 12.7813 11.3649 12.8618 11.4969 12.9168C11.6288 12.9717 11.7702 13 11.9131 13C12.056 13 12.1975 12.9717 12.3294 12.9168C12.4613 12.8618 12.581 12.7813 12.6817 12.6798C12.7831 12.5792 12.8637 12.4595 12.9186 12.3276C12.9735 12.1957 13.0018 12.0542 13.0018 11.9113C13.0018 11.7684 12.9735 11.6269 12.9186 11.495C12.8637 11.3631 12.7831 11.2434 12.6817 11.1428L8.02717 6.49907Z" fill="#0D2441"/>
</svg>
