<svg width="14" height="14" viewBox="0 0 14 14" fill="none" xmlns="http://www.w3.org/2000/svg">
<path d="M8.17387 6.99929L11.7537 3.42723C11.9105 3.27044 11.9986 3.05779 11.9986 2.83605C11.9986 2.61432 11.9105 2.40167 11.7537 2.24487C11.597 2.08808 11.3843 2 11.1626 2C10.9409 2 10.7283 2.08808 10.5715 2.24487L7 5.82526L3.42845 2.24487C3.27168 2.08808 3.05906 2 2.83736 2C2.61565 2 2.40303 2.08808 2.24626 2.24487C2.08949 2.40167 2.00142 2.61432 2.00142 2.83605C2.00142 3.05779 2.08949 3.27044 2.24626 3.42723L5.82613 6.99929L2.24626 10.5713C2.16823 10.6488 2.10629 10.7408 2.06403 10.8423C2.02176 10.9438 2 11.0526 2 11.1625C2 11.2724 2.02176 11.3813 2.06403 11.4827C2.10629 11.5842 2.16823 11.6763 2.24626 11.7537C2.32365 11.8317 2.41573 11.8937 2.51718 11.936C2.61864 11.9782 2.72745 12 2.83736 12C2.94726 12 3.05608 11.9782 3.15753 11.936C3.25898 11.8937 3.35106 11.8317 3.42845 11.7537L7 8.17332L10.5715 11.7537C10.6489 11.8317 10.741 11.8937 10.8425 11.936C10.9439 11.9782 11.0527 12 11.1626 12C11.2725 12 11.3814 11.9782 11.4828 11.936C11.5843 11.8937 11.6763 11.8317 11.7537 11.7537C11.8318 11.6763 11.8937 11.5842 11.936 11.4827C11.9782 11.3813 12 11.2724 12 11.1625C12 11.0526 11.9782 10.9438 11.936 10.8423C11.8937 10.7408 11.8318 10.6488 11.7537 10.5713L8.17387 6.99929Z" fill="#7D8391"/>
</svg>
