<svg width="6" height="6" viewBox="0 0 6 6" fill="none" xmlns="http://www.w3.org/2000/svg">
<path d="M3.70485 2.99957L5.85307 0.85634C5.94715 0.762266 6 0.634674 6 0.501632C6 0.368591 5.94715 0.240999 5.85307 0.146925C5.759 0.0528504 5.63141 0 5.49837 0C5.36533 0 5.23773 0.0528504 5.14366 0.146925L3.00043 2.29515L0.857193 0.146925C0.763118 0.0528504 0.635526 -9.91234e-10 0.502485 0C0.369444 9.91234e-10 0.241852 0.0528504 0.147777 0.146925C0.053703 0.240999 0.000852598 0.368591 0.000852597 0.501632C0.000852596 0.634674 0.053703 0.762266 0.147777 0.85634L2.29601 2.99957L0.147777 5.14281C0.100952 5.18925 0.0637853 5.24451 0.0384219 5.30539C0.0130585 5.36626 0 5.43156 0 5.49752C0 5.56347 0.0130585 5.62877 0.0384219 5.68965C0.0637853 5.75052 0.100952 5.80578 0.147777 5.85222C0.194221 5.89905 0.249476 5.93622 0.310355 5.96158C0.371234 5.98694 0.436533 6 0.502485 6C0.568437 6 0.633736 5.98694 0.694615 5.96158C0.755495 5.93622 0.810749 5.89905 0.857193 5.85222L3.00043 3.70399L5.14366 5.85222C5.1901 5.89905 5.24536 5.93622 5.30624 5.96158C5.36712 5.98694 5.43242 6 5.49837 6C5.56432 6 5.62962 5.98694 5.6905 5.96158C5.75138 5.93622 5.80663 5.89905 5.85307 5.85222C5.8999 5.80578 5.93707 5.75052 5.96243 5.68965C5.98779 5.62877 6.00085 5.56347 6.00085 5.49752C6.00085 5.43156 5.98779 5.36626 5.96243 5.30539C5.93707 5.24451 5.8999 5.18925 5.85307 5.14281L3.70485 2.99957Z" fill="white"/>
</svg>
