<svg width="16" height="16" viewBox="0 0 16 16" fill="none" xmlns="http://www.w3.org/2000/svg">
<path d="M9.17474 7.99934L12.7551 4.42728C12.9119 4.27049 13 4.05784 13 3.8361C13 3.61437 12.9119 3.40171 12.7551 3.24492C12.5983 3.08813 12.3857 3.00005 12.1639 3.00005C11.9422 3.00005 11.7296 3.08813 11.5728 3.24492L8.00071 6.82531L4.42865 3.24492C4.27186 3.08813 4.05921 3.00005 3.83748 3.00005C3.61574 3.00005 3.40309 3.08813 3.2463 3.24492C3.08951 3.40171 3.00142 3.61437 3.00142 3.8361C3.00142 4.05784 3.08951 4.27049 3.2463 4.42728L6.82668 7.99934L3.2463 11.5714C3.16825 11.6488 3.10631 11.7409 3.06404 11.8424C3.02176 11.9438 3 12.0527 3 12.1626C3 12.2725 3.02176 12.3813 3.06404 12.4828C3.10631 12.5843 3.16825 12.6763 3.2463 12.7538C3.3237 12.8318 3.41579 12.8937 3.51726 12.936C3.61872 12.9783 3.72756 13 3.83748 13C3.94739 13 4.05623 12.9783 4.15769 12.936C4.25916 12.8937 4.35125 12.8318 4.42865 12.7538L8.00071 9.17337L11.5728 12.7538C11.6502 12.8318 11.7423 12.8937 11.8437 12.936C11.9452 12.9783 12.054 13 12.1639 13C12.2739 13 12.3827 12.9783 12.4842 12.936C12.5856 12.8937 12.6777 12.8318 12.7551 12.7538C12.8332 12.6763 12.8951 12.5843 12.9374 12.4828C12.9797 12.3813 13.0014 12.2725 13.0014 12.1626C13.0014 12.0527 12.9797 11.9438 12.9374 11.8424C12.8951 11.7409 12.8332 11.6488 12.7551 11.5714L9.17474 7.99934Z" fill="#9398A3"/>
</svg>
