<svg width="24" height="24" viewBox="0 0 24 24" fill="none" xmlns="http://www.w3.org/2000/svg">
<path d="M20.0827 15.9257L20.7307 12.1785C20.8926 11.2426 20.1728 10.3865 19.2241 10.3865H14.4653C13.9937 10.3865 13.6345 9.96319 13.7109 9.49724L14.3195 5.78237C14.4184 5.17886 14.3902 4.56132 14.2366 3.96938C14.1094 3.47901 13.7311 3.08527 13.2335 2.92543L13.1004 2.88266C12.7997 2.78605 12.4714 2.80853 12.1879 2.94515C11.8759 3.09552 11.6476 3.3698 11.563 3.69601L11.126 5.38037C10.987 5.9163 10.7845 6.4336 10.5234 6.92239C10.1419 7.63656 9.55208 8.20813 8.93897 8.73647L7.61751 9.8752C7.24492 10.1963 7.04925 10.6771 7.09164 11.1674L7.8376 19.7944C7.90603 20.5858 8.56761 21.1932 9.36098 21.1932H13.6307C16.8282 21.1932 19.557 18.9653 20.0827 15.9257Z" fill="#0D2441"/>
<path fill-rule="evenodd" clip-rule="evenodd" d="M4.19041 9.69853C4.55897 9.68262 4.87464 9.95988 4.90642 10.3274L5.79881 20.648C5.85614 21.3109 5.33394 21.8823 4.66714 21.8823C4.03907 21.8823 3.53125 21.3728 3.53125 20.7459V10.3867C3.53125 10.0179 3.82186 9.71443 4.19041 9.69853Z" fill="#E72E2C"/>
</svg>
