<svg width="24" height="24" viewBox="0 0 24 24" fill="none" xmlns="http://www.w3.org/2000/svg">
<path d="M11.9867 11.0697C12.0752 11.1133 12.1748 11.1133 12.2633 11.0697L16.8982 8.43269C16.8982 8.43269 16.8208 8.36731 16.7765 8.34552L13.0929 6.25335C12.4956 5.91555 11.7544 5.91555 11.1571 6.25335L7.47345 8.34552C7.47345 8.34552 7.39602 8.4109 7.35177 8.43269L11.9867 11.0697ZM11.323 12.5516C11.323 12.5516 11.2124 12.519 11.1571 12.4863L6.52212 9.84926C6.52212 9.84926 6.5 9.94733 6.5 9.99092V14.1862C6.5 14.8617 6.86504 15.4938 7.47345 15.8425L11.1571 17.9346C11.1571 17.9346 11.2677 17.9782 11.323 18V12.5516ZM13.0929 12.4863C13.0929 12.4863 13.0155 12.519 12.9823 12.5299V17.9782C12.9823 17.9782 13.0597 17.9564 13.0929 17.9346L16.7765 15.8425C17.3739 15.5047 17.75 14.8726 17.75 14.1862V9.99092C17.75 9.99092 17.7389 9.89285 17.7279 9.84926L13.0929 12.4863Z" fill="#0D2441"/>
<path d="M22.7503 12C22.7503 14.87 21.6303 17.57 19.6003 19.6C17.5703 21.63 14.7503 22.74 12.0003 22.74C9.25031 22.74 6.49031 21.69 4.40031 19.6C0.210312 15.41 0.210312 8.59002 4.40031 4.40002C8.13031 0.66002 13.9503 0.28002 18.1403 3.20002L18.0203 2.08002C17.9803 1.67002 18.2703 1.30002 18.6903 1.25002C19.1003 1.21002 19.4703 1.50002 19.5203 1.92002L19.8403 4.85002C19.8803 5.26002 19.5903 5.63002 19.1703 5.68002L16.1903 6.00002C16.1903 6.00002 16.1403 6.00002 16.1103 6.00002C15.7303 6.00002 15.4103 5.72002 15.3603 5.33002C15.3203 4.92002 15.6103 4.55002 16.0303 4.50002L17.2303 4.37002C13.6303 1.90002 8.67031 2.25002 5.48031 5.45002C1.87031 9.06002 1.87031 14.93 5.48031 18.53C9.09031 22.14 14.9603 22.14 18.5603 18.53C20.3103 16.78 21.2703 14.46 21.2703 11.99C21.2703 11.58 21.6103 11.24 22.0203 11.24C22.4303 11.24 22.7703 11.58 22.7703 11.99L22.7503 12Z" fill="#E72E2C"/>
</svg>
