<svg width="24" height="24" viewBox="0 0 24 24" fill="none" xmlns="http://www.w3.org/2000/svg">
<path d="M16.0065 7.13869V15.4635C16.5445 14.846 17.3255 14.4453 18.1998 14.4453C19.8031 14.4453 21.1256 15.7677 21.1256 17.3711C21.1256 17.6259 21.081 17.8685 21.0185 18.1051H21.8538C22.2598 18.1066 22.5893 17.7771 22.5878 17.3711V12.2549C22.5868 12.1079 22.5415 11.9646 22.4578 11.8437L19.4792 7.4571C19.3417 7.25594 19.1131 7.13664 18.8695 7.13869H16.0065ZM2.84543 4.94116C2.44167 4.94276 2.11565 5.27138 2.11719 5.67513V17.3711C2.11566 17.7749 2.44168 18.1035 2.84543 18.1051H4.41471C4.35229 17.8685 4.30905 17.6257 4.30904 17.3711C4.30903 15.7677 5.63007 14.4453 7.23341 14.4453C8.83675 14.4453 10.1592 15.7677 10.1592 17.3711C10.1592 17.6259 10.1146 17.8685 10.0521 18.1051H14.5472C14.9509 18.1035 15.2769 17.7749 15.2754 17.3711V5.67513C15.277 5.27138 14.9509 4.94276 14.5472 4.94116H2.84543Z" fill="#0D2441"/>
<ellipse cx="7.19794" cy="17.3738" rx="2.10028" ry="2.10028" fill="#E72E2C"/>
<circle cx="18.2568" cy="17.3738" r="2.09275" fill="#E72E2C"/>
</svg>
