<svg width="14" height="14" viewBox="0 0 14 14" fill="none" xmlns="http://www.w3.org/2000/svg">
<path d="M4.16732 0.667969C4.16732 0.391826 3.94346 0.167969 3.66732 0.167969C3.39118 0.167969 3.16732 0.391826 3.16732 0.667969V1.72081C2.20776 1.79764 1.57783 1.98622 1.11503 2.44902C0.652234 2.91182 0.46366 3.54175 0.386823 4.5013H13.6145C13.5376 3.54175 13.3491 2.91182 12.8863 2.44902C12.4235 1.98622 11.7935 1.79764 10.834 1.72081V0.667969C10.834 0.391826 10.6101 0.167969 10.334 0.167969C10.0578 0.167969 9.83398 0.391826 9.83398 0.667969V1.67657C9.39047 1.66797 8.89334 1.66797 8.33398 1.66797H5.66732C5.10796 1.66797 4.61083 1.66797 4.16732 1.67657V0.667969Z" fill="#0D2441"/>
<path fill-rule="evenodd" clip-rule="evenodd" d="M0.333984 7.0013C0.333984 6.44195 0.333984 5.94481 0.342586 5.5013H13.6587C13.6673 5.94481 13.6673 6.44195 13.6673 7.0013V8.33464C13.6673 10.8488 13.6673 12.1059 12.8863 12.8869C12.1052 13.668 10.8481 13.668 8.33398 13.668H5.66732C3.15316 13.668 1.89608 13.668 1.11503 12.8869C0.333984 12.1059 0.333984 10.8488 0.333984 8.33464V7.0013ZM10.334 8.33464C10.7022 8.33464 11.0007 8.03616 11.0007 7.66797C11.0007 7.29978 10.7022 7.0013 10.334 7.0013C9.96579 7.0013 9.66732 7.29978 9.66732 7.66797C9.66732 8.03616 9.96579 8.33464 10.334 8.33464ZM10.334 11.0013C10.7022 11.0013 11.0007 10.7028 11.0007 10.3346C11.0007 9.96645 10.7022 9.66797 10.334 9.66797C9.96579 9.66797 9.66732 9.96645 9.66732 10.3346C9.66732 10.7028 9.96579 11.0013 10.334 11.0013ZM7.66732 7.66797C7.66732 8.03616 7.36884 8.33464 7.00065 8.33464C6.63246 8.33464 6.33398 8.03616 6.33398 7.66797C6.33398 7.29978 6.63246 7.0013 7.00065 7.0013C7.36884 7.0013 7.66732 7.29978 7.66732 7.66797ZM7.66732 10.3346C7.66732 10.7028 7.36884 11.0013 7.00065 11.0013C6.63246 11.0013 6.33398 10.7028 6.33398 10.3346C6.33398 9.96645 6.63246 9.66797 7.00065 9.66797C7.36884 9.66797 7.66732 9.96645 7.66732 10.3346ZM3.66732 8.33464C4.03551 8.33464 4.33398 8.03616 4.33398 7.66797C4.33398 7.29978 4.03551 7.0013 3.66732 7.0013C3.29913 7.0013 3.00065 7.29978 3.00065 7.66797C3.00065 8.03616 3.29913 8.33464 3.66732 8.33464ZM3.66732 11.0013C4.03551 11.0013 4.33398 10.7028 4.33398 10.3346C4.33398 9.96645 4.03551 9.66797 3.66732 9.66797C3.29913 9.66797 3.00065 9.96645 3.00065 10.3346C3.00065 10.7028 3.29913 11.0013 3.66732 11.0013Z" fill="#0D2441"/>
</svg>
