<svg width="66" height="66" viewBox="0 0 66 66" fill="none" xmlns="http://www.w3.org/2000/svg">
<path d="M21.1106 32.3369C20.5309 31.7451 19.5812 31.7353 18.9894 32.315C18.3976 32.8948 18.3878 33.8445 18.9675 34.4362L28.6442 44.3144C29.5212 45.2097 30.9961 45.087 31.7132 44.0591L47.1893 21.8738C47.6633 21.1944 47.4967 20.2594 46.8173 19.7854C46.1378 19.3114 45.2028 19.478 44.7288 20.1574L29.943 41.3532L21.1106 32.3369ZM63.8996 33.0016C63.8996 50.0672 50.0652 63.9016 32.9996 63.9016C15.934 63.9016 2.09961 50.0672 2.09961 33.0016C2.09961 15.936 15.934 2.10156 32.9996 2.10156C50.0652 2.10156 63.8996 15.936 63.8996 33.0016Z" stroke="#49A041" stroke-width="3" stroke-linecap="round"/>
</svg>
