<svg width="14" height="14" viewBox="0 0 14 14" fill="none" xmlns="http://www.w3.org/2000/svg">
<path fill-rule="evenodd" clip-rule="evenodd" d="M13.6673 7.0026C13.6673 10.6845 10.6825 13.6693 7.00065 13.6693C3.31875 13.6693 0.333984 10.6845 0.333984 7.0026C0.333984 3.32071 3.31875 0.335938 7.00065 0.335938C10.6825 0.335938 13.6673 3.32071 13.6673 7.0026ZM7.00065 10.8359C7.27679 10.8359 7.50065 10.6121 7.50065 10.3359V6.33594C7.50065 6.05979 7.27679 5.83594 7.00065 5.83594C6.72451 5.83594 6.50065 6.05979 6.50065 6.33594V10.3359C6.50065 10.6121 6.72451 10.8359 7.00065 10.8359ZM7.00065 3.66927C7.36884 3.66927 7.66732 3.96775 7.66732 4.33594C7.66732 4.70413 7.36884 5.0026 7.00065 5.0026C6.63246 5.0026 6.33398 4.70413 6.33398 4.33594C6.33398 3.96775 6.63246 3.66927 7.00065 3.66927Z" fill="#49515A"/>
</svg>
