<svg width="74" height="11" viewBox="0 0 74 11" fill="none" xmlns="http://www.w3.org/2000/svg">
<path d="M0.559098 9.39913C0.050187 9.39913 0 9.2357 0 8.04455V7.84128C0 6.64607 0.050187 6.48427 0.559098 6.48427H12.1963C12.7069 6.48427 12.7571 6.64607 12.7571 7.83966V8.04293C12.7571 9.2357 12.7061 9.39832 12.1963 9.39832L0.559098 9.39913ZM0.559098 4.15401C0.050187 4.15401 0 3.99139 0 2.79862V2.59535C0 1.39851 0.050187 1.23752 0.559098 1.23752H12.1963C12.7069 1.23752 12.7571 1.40013 12.7571 2.59535V2.79862C12.7571 3.99139 12.7061 4.15401 12.1963 4.15401H0.559098ZM19.9117 5.41668C19.9117 3.44254 20.9533 2.35709 22.5206 2.35709C23.1122 2.35709 23.5859 2.51646 24.1785 2.78883C24.3933 2.88966 24.5712 2.849 24.8529 2.23188L25.0581 1.81234C25.2606 1.30661 25.2756 1.09764 25.0299 0.985441C24.3035 0.592727 23.1792 0.344742 22.208 0.344742C19.4407 0.344742 17.3469 2.36929 17.3469 5.41668C17.3469 8.46326 19.4407 10.4878 22.2071 10.4878C23.1792 10.4878 24.329 10.2406 25.0581 9.84548C25.3011 9.73571 25.2852 9.52432 25.0845 9.01858L24.882 8.57546C24.6002 7.95752 24.4215 7.92256 24.2049 8.01851C23.6123 8.29251 23.1131 8.45187 22.5206 8.45187C20.9533 8.45187 19.9144 7.39 19.9144 5.41668H19.9117ZM52.8853 10.0211C52.8853 10.2894 52.7761 10.3626 51.9547 10.3626H51.8728C51.0073 10.3626 50.8866 10.326 50.8188 10.1301C50.7735 9.99707 50.7373 9.86155 50.7106 9.72433C50.2527 10.2301 49.7007 10.5 48.8598 10.5C46.8206 10.5 45.595 9.11778 45.595 6.89484C45.595 4.49222 46.9589 3.06934 48.9813 3.06934C49.551 3.06934 50.0757 3.23196 50.4808 3.52791V0.40572C50.4808 0.196761 50.5072 0.109763 51.643 0.109763H51.7249C52.7761 0.109763 52.8844 0.196761 52.8844 0.40572L52.8853 10.0211ZM50.4816 5.2809C50.3428 5.14076 50.1738 5.02889 49.9855 4.95246C49.7973 4.87602 49.5938 4.83668 49.3881 4.83696C48.483 4.83696 48.0533 5.56303 48.0533 6.89647C48.0533 7.66076 48.2285 8.14616 48.483 8.40065C48.7119 8.66327 49.0641 8.74783 49.4031 8.74783C49.8213 8.74783 50.1444 8.6527 50.2941 8.47627C50.427 8.3413 50.4808 8.13234 50.4808 7.651L50.4816 5.2809ZM65.1379 10.0699C65.1379 10.2772 65.0296 10.3626 63.9757 10.3626H63.8947C62.7607 10.3626 62.7369 10.2772 62.7369 10.0699V0.40572C62.7369 0.196761 62.7607 0.109763 63.8938 0.109763H63.9748C65.0279 0.109763 65.137 0.196761 65.137 0.40572L65.1379 10.0699ZM56.6819 7.50058C56.8157 8.37626 57.4092 8.79743 58.3416 8.79743C59.0592 8.79743 59.731 8.65108 60.5163 8.3413C60.6801 8.28032 60.8271 8.3413 61.0006 8.83158L61.1239 9.10639C61.2973 9.61212 61.2824 9.72433 61.0957 9.82109C60.1624 10.3016 59.1912 10.4984 58.1109 10.4984C55.7231 10.4984 54.2254 9.15681 54.2254 6.85988C54.2254 4.62637 55.6016 3.06934 57.9639 3.06934C60.3006 3.06934 61.4998 4.60117 61.4998 6.72328C61.4998 7.4274 61.4338 7.50058 61.1635 7.50058H56.6819ZM59.0961 6.13218C59.0592 5.39391 58.7351 4.74996 57.9383 4.74996C57.2472 4.74996 56.7471 5.22967 56.6528 6.13218H59.0961ZM68.8782 7.50058C69.0102 8.37626 69.6054 8.79743 70.5387 8.79743C71.2501 8.79743 71.9281 8.65108 72.7108 8.3413C72.8711 8.28032 73.0225 8.3413 73.1969 8.83158L73.3192 9.10639C73.4927 9.61212 73.4786 9.72433 73.2928 9.82109C72.3595 10.3016 71.3866 10.4984 70.3054 10.4984C67.9167 10.4984 66.4208 9.15681 66.4208 6.85988C66.4208 4.62637 67.7943 3.06934 70.1575 3.06934C72.496 3.06934 73.697 4.60117 73.697 6.72328C73.697 7.4274 73.6292 7.50058 73.3589 7.50058H68.8782ZM71.2951 6.13218C71.251 5.39391 70.9297 4.74996 70.1328 4.74996C69.4443 4.74996 68.9424 5.22967 68.8491 6.13218H71.2951ZM41.7527 5.32968C41.631 5.18143 41.474 5.06104 41.2938 4.97785C41.1136 4.89466 40.9151 4.85091 40.7137 4.84997C39.8086 4.84997 39.378 5.57767 39.378 6.87208C39.378 7.96972 39.6985 8.78523 40.6846 8.78523C41.0509 8.78523 41.3186 8.69905 41.5096 8.52424C41.684 8.35349 41.7527 8.1177 41.7527 7.60221V5.32968ZM44.1828 10.0211C44.1828 10.2894 44.0762 10.3626 43.253 10.3626H43.142C42.2792 10.3626 42.1577 10.326 42.0908 10.1301C42.0444 9.99732 42.0082 9.86174 41.9825 9.72433C41.5246 10.2301 40.9699 10.5 40.1317 10.5C38.1744 10.5 36.918 9.14055 36.918 6.92249C36.918 4.45482 38.4711 3.06934 40.3078 3.06934C41.0509 3.06934 41.6972 3.35554 42.0494 3.76208L42.0908 3.45311C42.1022 3.30676 42.1453 3.20919 43.0329 3.20919H43.1288C44.048 3.20919 44.181 3.26854 44.181 3.49376L44.1828 10.0211ZM32.9136 1.12366C33.817 1.12366 33.8716 1.13423 33.8716 1.4058V3.20756H35.4256C35.6404 3.20756 35.7074 3.24415 35.7074 3.92225V4.02226C35.7074 4.69874 35.6404 4.73776 35.4256 4.73776H33.8716V7.97135C33.8716 8.51285 33.9781 8.79743 34.5178 8.79743C34.7996 8.79743 35.0461 8.74783 35.2891 8.67547C35.5445 8.58522 35.6413 8.69905 35.8157 9.26495L35.8562 9.40073C36.0446 10.0211 35.9891 10.0699 35.7487 10.1788C35.2627 10.3886 34.6129 10.5 34.0063 10.5C32.0895 10.5 31.5498 9.61213 31.5498 8.06729V4.73776H30.6447C30.4157 4.73776 30.3585 4.69711 30.3585 4.02226V3.92225C30.3585 3.24415 30.4149 3.20919 30.6447 3.20919H31.6572C31.7673 2.62947 31.9539 1.81315 32.0763 1.4058C32.1441 1.17082 32.1846 1.12366 32.9136 1.12366ZM27.8914 3.20919C28.9453 3.20919 29.0387 3.29294 29.0387 3.50434V10.0699C29.0387 10.2894 28.9453 10.3626 27.8914 10.3626H27.8228C26.6632 10.3626 26.6368 10.2894 26.6368 10.0699V3.50434C26.6368 3.29294 26.6632 3.20919 27.8228 3.20919H27.8914ZM27.8228 0C28.5835 0 29.1346 0.542317 29.1346 1.15863C29.1313 1.31308 29.0946 1.46536 29.0269 1.60662C28.9592 1.74788 28.8617 1.8753 28.7402 1.98145C28.4937 2.19692 28.1635 2.314 27.8228 2.30668C27.0708 2.30668 26.5135 1.76436 26.5135 1.15863C26.5135 0.540691 27.0708 0 27.8228 0Z" fill="#EE293D"/>
</svg>
