<svg width="34" height="14" viewBox="0 0 34 14" fill="none" xmlns="http://www.w3.org/2000/svg">
<path d="M9.38267 3.56876L7.62193 4.85224C6.79022 4.15403 5.71621 4.01718 5.12748 4.01718C4.53875 4.01718 3.90238 4.18392 3.80914 4.60311C3.71521 5.00968 4.10248 5.3259 4.76744 5.50195C5.52564 5.70124 6.21646 5.87795 7.28026 6.17424C8.862 6.61469 9.9435 7.283 9.9435 8.83155C9.9435 10.9667 8.00171 12.0735 5.40041 12.0735C2.79911 12.0735 1.02679 10.7508 0.5 10.1336L2.36147 8.77508C3.66893 9.88782 4.57823 10.0446 5.33847 10.0446C6.21034 10.0446 7.02571 9.86191 7.13052 9.38028C7.2156 8.99364 6.88687 8.68606 6.14432 8.51665C5.30376 8.32732 4.59456 8.17519 3.80301 7.97191C1.65772 7.42251 1.05266 6.2048 1.05266 5.11132C1.05266 3.6053 2.48875 2.05874 5.11523 2.05874C7.80842 2.05874 9.38539 3.56477 9.38539 3.56477L9.38267 3.56876ZM20.6087 2.20955H12.7565V11.7898H20.7503V9.58157H15.5136V8.03901H19.1209V5.92645H15.5136V4.3985H20.6066L20.6087 2.20955ZM10.7248 14H11.3374V0H10.7248V14ZM21.7814 14H22.3939V0H21.7814V14ZM23.8096 11.7898H30.1148C31.8007 11.7898 33.1667 10.798 33.1667 9.20955C33.1667 7.97058 32.3356 7.15014 31.1711 6.78675C31.1339 6.7789 31.0961 6.77423 31.0581 6.7728C31.0963 6.76938 31.1341 6.76294 31.1711 6.75354C31.8381 6.49578 32.5773 5.80953 32.5773 4.64098C32.5773 3.15887 31.2337 2.21353 29.5758 2.21353H23.8096V11.7898ZM26.5797 4.20518H28.7822C29.2892 4.20518 29.6996 4.59581 29.6996 5.04489C29.6996 5.49397 29.2913 5.88593 28.7822 5.88593H26.5797V4.20518ZM29.2736 9.66129H26.5797V7.91478H29.2736C29.5047 7.92358 29.7234 8.0194 29.8838 8.18214C30.0441 8.34488 30.1337 8.56191 30.1337 8.7877C30.1337 9.01349 30.0441 9.23051 29.8838 9.39326C29.7234 9.556 29.5047 9.65248 29.2736 9.66129Z" fill="#070707"/>
</svg>
